<?xml version="1.0" encoding="utf-8"?>
<!-- Generator: Adobe Illustrator 23.0.3, SVG Export Plug-In . SVG Version: 6.00 Build 0)  -->
<!DOCTYPE svg PUBLIC "-//W3C//DTD SVG 1.1//EN" "http://www.w3.org/Graphics/SVG/1.1/DTD/svg11.dtd" [
	<!ENTITY st0 "opacity:0.65;">
	<!ENTITY st1 "opacity:0.5;fill:none;stroke:#57BCAD;stroke-width:4;stroke-miterlimit:10;">
	<!ENTITY st2 "fill:#57BCAD;">
	<!ENTITY st3 "fill:#FFFFFF;">
	<!ENTITY st4 "fill:none;stroke:#57BCAD;stroke-width:2;stroke-miterlimit:10;">
	<!ENTITY st5 "fill:none;stroke:#57BCAD;stroke-width:3;stroke-miterlimit:10;">
	<!ENTITY st6 "opacity:0.65;clip-path:url(#SVGID_2_);">
	<!ENTITY st7 "clip-path:url(#SVGID_2_);fill:none;">
]>
<svg version="1.1" id="Capa_1" xmlns="http://www.w3.org/2000/svg" xmlns:xlink="http://www.w3.org/1999/xlink" x="0px" y="0px"
	 viewBox="0 0 212.4 130.4" style="enable-background:new 0 0 212.4 130.4;" xml:space="preserve">
<g>
	<g>
		<path style="&st3;" d="M7.3,116.4h1.8v9.6H7.3V116.4z M6.8,112.7c0-0.4,0.1-0.8,0.4-1.1c0.3-0.3,0.6-0.4,1-0.4
			c0.4,0,0.8,0.1,1.1,0.4c0.3,0.3,0.4,0.6,0.4,1.1c0,0.4-0.1,0.8-0.4,1c-0.3,0.3-0.6,0.4-1.1,0.4c-0.4,0-0.8-0.1-1-0.4
			C6.9,113.5,6.8,113.1,6.8,112.7"/>
		<path style="&st3;" d="M12.5,116.4h1.8v1.7c0.3-0.6,0.7-1.1,1.3-1.4c0.6-0.4,1.3-0.5,2.1-0.5c0.7,0,1.3,0.1,1.7,0.3
			c0.5,0.2,0.9,0.5,1.1,0.9c0.3,0.4,0.5,0.8,0.6,1.2c0.1,0.5,0.2,1,0.2,1.7v5.7h-1.8v-5.1c0-0.4,0-0.9-0.1-1.2
			c-0.1-0.4-0.2-0.7-0.4-1c-0.2-0.3-0.4-0.5-0.8-0.7c-0.3-0.2-0.7-0.2-1.1-0.2c-0.5,0-0.9,0.1-1.2,0.3c-0.3,0.2-0.6,0.4-0.8,0.7
			c-0.2,0.3-0.4,0.7-0.5,1c-0.1,0.4-0.2,0.8-0.2,1.2v4.9h-1.8V116.4z"/>
		<path style="&st3;" d="M36.9,126v-5.5c0-0.9-0.2-1.6-0.5-2c-0.3-0.5-0.8-0.7-1.5-0.7c-0.7,0-1.3,0.3-1.7,0.8
			c-0.4,0.6-0.6,1.4-0.6,2.5v4.9h-1.8v-5.4c0-1-0.2-1.7-0.5-2.1c-0.3-0.5-0.8-0.7-1.5-0.7c-0.7,0-1.3,0.3-1.7,0.8
			c-0.4,0.6-0.7,1.4-0.7,2.5v4.9h-1.8v-9.6h1.8v1.7c0.2-0.5,0.5-1,1-1.4c0.5-0.4,1.1-0.6,1.8-0.6c0.9,0,1.6,0.2,2.1,0.6
			c0.5,0.4,0.8,0.9,1,1.5c0.1-0.3,0.2-0.5,0.4-0.8c0.2-0.3,0.4-0.5,0.7-0.7c0.3-0.2,0.6-0.3,0.9-0.4c0.3-0.1,0.7-0.2,1.1-0.2
			c0.6,0,1.2,0.1,1.6,0.3c0.4,0.2,0.8,0.5,1.1,0.8c0.3,0.3,0.5,0.7,0.6,1.2c0.1,0.5,0.2,1,0.2,1.5v6.1H36.9z"/>
		<path style="&st3;" d="M46.1,124.5c0.5,0,0.9-0.1,1.3-0.3c0.4-0.2,0.7-0.4,1-0.7c0.3-0.3,0.5-0.7,0.7-1.1c0.2-0.4,0.2-0.8,0.2-1.3
			c0-0.5-0.1-0.9-0.2-1.3c-0.2-0.4-0.4-0.8-0.7-1.1c-0.3-0.3-0.6-0.6-1-0.7c-0.4-0.2-0.9-0.3-1.3-0.3c-0.5,0-0.9,0.1-1.3,0.3
			c-0.4,0.2-0.7,0.4-1,0.7c-0.3,0.3-0.5,0.7-0.6,1.1c-0.2,0.4-0.2,0.8-0.2,1.3c0,0.5,0.1,0.9,0.2,1.3c0.2,0.4,0.4,0.8,0.6,1.1
			c0.3,0.3,0.6,0.5,1,0.7C45.2,124.4,45.6,124.5,46.1,124.5 M46.1,126.2c-0.8,0-1.5-0.1-2.1-0.4c-0.6-0.3-1.1-0.6-1.6-1.1
			c-0.4-0.5-0.8-1-1-1.6c-0.2-0.6-0.4-1.2-0.4-1.9c0-0.7,0.1-1.3,0.4-1.9c0.2-0.6,0.6-1.2,1-1.6c0.4-0.5,1-0.8,1.6-1.1
			c0.6-0.3,1.3-0.4,2.1-0.4c0.8,0,1.5,0.1,2.1,0.4c0.6,0.3,1.2,0.6,1.6,1.1c0.4,0.5,0.8,1,1,1.6c0.2,0.6,0.4,1.3,0.4,1.9
			c0,0.7-0.1,1.3-0.4,1.9c-0.2,0.6-0.6,1.1-1,1.6c-0.4,0.5-1,0.8-1.6,1.1C47.6,126.1,46.9,126.2,46.1,126.2"/>
		<path style="&st3;" d="M58.8,124.5c0.5,0,0.9-0.1,1.3-0.3c0.4-0.2,0.7-0.4,1-0.7c0.3-0.3,0.5-0.7,0.6-1.1c0.2-0.4,0.2-0.8,0.2-1.3
			c0-0.5-0.1-0.9-0.2-1.3c-0.2-0.4-0.4-0.8-0.6-1.1c-0.3-0.3-0.6-0.6-1-0.7c-0.4-0.2-0.8-0.3-1.3-0.3c-0.5,0-0.9,0.1-1.3,0.3
			c-0.4,0.2-0.7,0.4-1,0.7c-0.3,0.3-0.5,0.7-0.7,1.1c-0.2,0.4-0.2,0.8-0.2,1.3c0,0.5,0.1,0.9,0.2,1.3c0.2,0.4,0.4,0.8,0.7,1.1
			c0.3,0.3,0.6,0.5,1,0.7C57.9,124.4,58.3,124.5,58.8,124.5 M55.6,126h-1.8v-14.8h1.8v6.9c0.3-0.6,0.8-1.1,1.4-1.4
			c0.6-0.3,1.3-0.5,2-0.5c0.7,0,1.4,0.1,2,0.4c0.6,0.3,1.1,0.6,1.6,1.1c0.4,0.5,0.8,1,1,1.6c0.2,0.6,0.4,1.3,0.4,1.9
			c0,0.7-0.1,1.3-0.4,1.9c-0.2,0.6-0.6,1.1-1,1.6c-0.4,0.5-1,0.8-1.6,1.1c-0.6,0.3-1.3,0.4-2,0.4c-0.7,0-1.4-0.2-2-0.5
			c-0.6-0.3-1.1-0.8-1.4-1.4V126z"/>
		<path style="&st3;" d="M66.4,116.4h1.8v9.6h-1.8V116.4z M65.8,112.7c0-0.4,0.1-0.8,0.4-1.1c0.3-0.3,0.6-0.4,1-0.4
			c0.4,0,0.8,0.1,1.1,0.4c0.3,0.3,0.4,0.6,0.4,1.1c0,0.4-0.1,0.8-0.4,1c-0.3,0.3-0.6,0.4-1.1,0.4c-0.4,0-0.8-0.1-1-0.4
			C66,113.5,65.8,113.1,65.8,112.7"/>
		<rect x="71.5" y="111.1" style="&st3;" width="1.8" height="14.8"/>
		<path style="&st3;" d="M76.7,116.4h1.8v9.6h-1.8V116.4z M76.1,112.7c0-0.4,0.1-0.8,0.4-1.1c0.3-0.3,0.6-0.4,1-0.4
			c0.4,0,0.8,0.1,1.1,0.4c0.3,0.3,0.4,0.6,0.4,1.1c0,0.4-0.1,0.8-0.4,1c-0.3,0.3-0.6,0.4-1.1,0.4c-0.4,0-0.8-0.1-1-0.4
			C76.3,113.5,76.1,113.1,76.1,112.7"/>
		<path style="&st3;" d="M86.1,124.5c0.5,0,0.9-0.1,1.3-0.3c0.4-0.2,0.7-0.4,1-0.7c0.3-0.3,0.5-0.7,0.7-1.1c0.2-0.4,0.2-0.8,0.2-1.3
			c0-0.5-0.1-0.9-0.2-1.3c-0.2-0.4-0.4-0.8-0.7-1.1c-0.3-0.3-0.6-0.6-1-0.7c-0.4-0.2-0.9-0.3-1.3-0.3c-0.5,0-0.9,0.1-1.3,0.3
			c-0.4,0.2-0.7,0.4-1,0.7c-0.3,0.3-0.5,0.7-0.6,1.1c-0.2,0.4-0.2,0.8-0.2,1.3c0,0.5,0.1,0.9,0.2,1.3c0.2,0.4,0.4,0.8,0.6,1.1
			c0.3,0.3,0.6,0.5,1,0.7C85.1,124.4,85.6,124.5,86.1,124.5 M91.1,116.4v9.6h-1.8v-1.7c-0.3,0.6-0.8,1.1-1.4,1.4
			c-0.6,0.3-1.3,0.5-2,0.5c-0.7,0-1.4-0.1-2-0.4c-0.6-0.3-1.1-0.6-1.6-1.1c-0.4-0.5-0.8-1-1-1.6c-0.2-0.6-0.4-1.2-0.4-1.9
			c0-0.7,0.1-1.3,0.4-1.9c0.2-0.6,0.6-1.2,1-1.6c0.4-0.5,0.9-0.8,1.6-1.1c0.6-0.3,1.3-0.4,2-0.4c0.7,0,1.4,0.2,2,0.5
			c0.6,0.3,1.1,0.8,1.4,1.4v-1.6H91.1z"/>
		<path style="&st3;" d="M100.4,118c-0.2,0-0.4-0.1-0.5-0.1c-0.1,0-0.3,0-0.4,0c-1.1,0-1.9,0.3-2.4,1c-0.5,0.7-0.8,1.6-0.8,2.8v4.2
			h-1.8v-9.6h1.8v1.9c0.3-0.6,0.7-1.1,1.3-1.5c0.6-0.4,1.2-0.6,1.9-0.6c0.4,0,0.7,0,0.9,0.1V118z"/>
		<path style="&st3;" d="M102.2,116.4h1.8v9.6h-1.8V116.4z M101.6,112.7c0-0.4,0.1-0.8,0.4-1.1c0.3-0.3,0.6-0.4,1-0.4
			c0.4,0,0.8,0.1,1.1,0.4c0.3,0.3,0.4,0.6,0.4,1.1c0,0.4-0.1,0.8-0.4,1c-0.3,0.3-0.6,0.4-1.1,0.4c-0.4,0-0.8-0.1-1-0.4
			C101.8,113.5,101.6,113.1,101.6,112.7"/>
		<path style="&st3;" d="M111.6,124.5c0.5,0,0.9-0.1,1.3-0.3c0.4-0.2,0.7-0.4,1-0.7c0.3-0.3,0.5-0.7,0.7-1.1
			c0.2-0.4,0.2-0.8,0.2-1.3c0-0.5-0.1-0.9-0.2-1.3c-0.2-0.4-0.4-0.8-0.7-1.1c-0.3-0.3-0.6-0.6-1-0.7c-0.4-0.2-0.9-0.3-1.3-0.3
			c-0.5,0-0.9,0.1-1.3,0.3c-0.4,0.2-0.7,0.4-1,0.7c-0.3,0.3-0.5,0.7-0.6,1.1c-0.2,0.4-0.2,0.8-0.2,1.3c0,0.5,0.1,0.9,0.2,1.3
			c0.2,0.4,0.4,0.8,0.6,1.1c0.3,0.3,0.6,0.5,1,0.7C110.6,124.4,111.1,124.5,111.6,124.5 M116.6,116.4v9.6h-1.8v-1.7
			c-0.3,0.6-0.8,1.1-1.4,1.4c-0.6,0.3-1.3,0.5-2,0.5c-0.7,0-1.4-0.1-2-0.4c-0.6-0.3-1.1-0.6-1.6-1.1c-0.4-0.5-0.8-1-1-1.6
			c-0.2-0.6-0.4-1.2-0.4-1.9c0-0.7,0.1-1.3,0.4-1.9c0.2-0.6,0.6-1.2,1-1.6c0.4-0.5,0.9-0.8,1.6-1.1c0.6-0.3,1.3-0.4,2-0.4
			c0.7,0,1.4,0.2,2,0.5c0.6,0.3,1.1,0.8,1.4,1.4v-1.6H116.6z"/>
		<path style="&st3;" d="M178.1,54.4c-8.3,0-15.1,6.8-15.1,15.1c0,8.3,6.8,15.1,15.1,15.1c8.3,0,15.1-6.8,15.1-15.1
			C193.2,61.2,186.4,54.4,178.1,54.4 M178.1,86.5c-9.4,0-17-7.6-17-17c0-9.4,7.6-17,17-17c9.4,0,17,7.6,17,17
			C195.1,78.9,187.5,86.5,178.1,86.5"/>
		<path style="&st3;" d="M178.1,49.3c-11.2,0-20.2,9.1-20.2,20.2s9.1,20.2,20.2,20.2c11.2,0,20.2-9.1,20.2-20.2
			S189.2,49.3,178.1,49.3 M178.1,91.6c-12.2,0-22.2-9.9-22.2-22.2c0-12.2,9.9-22.2,22.2-22.2c12.2,0,22.2,9.9,22.2,22.2
			C200.2,81.7,190.3,91.6,178.1,91.6"/>
		<path style="&st3;" d="M178.1,43.9c-14.1,0-25.6,11.5-25.6,25.6c0,14.1,11.5,25.6,25.6,25.6c14.1,0,25.6-11.5,25.6-25.6
			C203.7,55.4,192.2,43.9,178.1,43.9 M178.1,97c-15.2,0-27.6-12.4-27.6-27.6c0-15.2,12.4-27.6,27.6-27.6c15.2,0,27.6,12.4,27.6,27.6
			C205.6,84.7,193.3,97,178.1,97"/>
		<rect x="43.4" y="42.3" style="&st3;" width="2" height="54"/>
		<rect x="48.4" y="42.3" style="&st3;" width="2" height="54"/>
		<rect x="53.5" y="42.3" style="&st3;" width="2" height="54"/>
		<polygon style="&st3;" points="79.5,42.3 58,96.3 60.2,96.3 81.6,42.3 		"/>
		<polygon style="&st3;" points="85.4,42.3 63.9,96.3 66,96.3 87.5,42.3 		"/>
		<path style="&st3;" d="M92.7,76.3H79.4l6.5-16.4L92.7,76.3z M94.9,81.4H77.4l1.2-3.1h14.9L94.9,81.4z M97,86.6H75.3l1.3-3.3h19.1
			L97,86.6z M90.8,42.3l-21.5,54h2.1l3.1-7.7h23.3l3.2,7.7h2.1L87,57.4l-0.1,0.1l2-5l18.2,43.8h2.1L89.9,49.8l2-4.9l20.7,51.4h2.1
			L93,42.3H90.8z"/>
		<rect x="116.4" y="42.3" style="&st3;" width="2" height="54"/>
		<rect x="121.4" y="42.3" style="&st3;" width="2" height="54"/>
		<path style="&st3;" d="M132.4,94.3h-4v-3.4h3.9c5.6,0,11.6-4.4,11.6-12.6c0-4.8-2.9-7.7-4.7-9c1.8-1.4,4.7-4.4,4.7-9.4
			c0-3.4-1.3-6.6-3.8-9c-2.1-2.1-5-3.3-7.6-3.3h-4.2v-3.4h4c7.2,0,14.9,6.3,14.9,15.6c0,3.2-1.1,6.1-3.2,8.7l0.7,0.6l-0.7-0.6
			c0,0,0,0.1-0.1,0.1l-0.6,0.8l0.8,0.6c0.1,0.1,3.2,2.6,3.2,8.6C147.3,88,139.6,94.3,132.4,94.3 M128.4,85.6h2.9
			c4,0,7.3-3.3,7.3-7.3c0-4-3.3-7.3-7.3-7.3h-2.9v-3.4h2.9c4,0,7.3-3.3,7.3-7.3c0-4-3.3-7.3-7.3-7.3h-2.9v-3.3h4.2
			c3.8,0,9.4,3.7,9.4,10.3c0,5.7-4.8,8.4-5,8.5l-1.6,0.9l1.6,0.9c0.2,0.1,5,2.7,5,8.1c0,7.8-5.8,10.7-9.7,10.7h-3.9V85.6z M128.4,73
			h2.9c3,0,5.4,2.4,5.4,5.3s-2.4,5.3-5.4,5.3h-2.9V73z M128.4,54.9h2.9c3,0,5.4,2.4,5.4,5.4c0,3-2.4,5.4-5.4,5.4h-2.9V54.9z
			 M149.3,78.7c0-5.2-2.1-8.2-3.2-9.4c2.1-2.8,3.2-6,3.2-9.3c0-10.5-8.7-17.6-16.9-17.6h-4h-2v54h2h4
			C140.6,96.3,149.3,89.2,149.3,78.7"/>
		<rect x="6.8" y="42.3" style="&st3;" width="2" height="54"/>
		<rect x="11.8" y="42.3" style="&st3;" width="2" height="54"/>
		<path style="&st3;" d="M22.8,94.3h-4v-3.4h3.9c5.6,0,11.6-4.4,11.6-12.6c0-4.8-2.9-7.7-4.7-9c1.8-1.4,4.7-4.4,4.7-9.4
			c0-3.4-1.3-6.6-3.8-9c-2.1-2.1-5-3.3-7.6-3.3h-4.2v-3.4h4c7.2,0,14.9,6.3,14.9,15.6c0,3.2-1.1,6.1-3.2,8.7l0.7,0.6l-0.7-0.6
			c0,0,0,0.1-0.1,0.1l-0.6,0.8l0.8,0.6c0.1,0.1,3.2,2.6,3.2,8.6C37.7,88,30,94.3,22.8,94.3 M18.8,85.6h2.9c4,0,7.3-3.3,7.3-7.3
			c0-4-3.3-7.3-7.3-7.3h-2.9v-3.4h2.9c4,0,7.3-3.3,7.3-7.3c0-4-3.3-7.3-7.3-7.3h-2.9v-3.3H23c3.8,0,9.4,3.7,9.4,10.3
			c0,5.7-4.8,8.4-5,8.5l-1.6,0.9l1.6,0.9c0.2,0.1,5,2.7,5,8.1c0,7.8-5.8,10.7-9.7,10.7h-3.9V85.6z M18.8,73h2.9c3,0,5.4,2.4,5.4,5.3
			s-2.4,5.3-5.4,5.3h-2.9V73z M18.8,54.9h2.9c3,0,5.4,2.4,5.4,5.4c0,3-2.4,5.4-5.4,5.4h-2.9V54.9z M39.7,78.7c0-5.2-2.1-8.2-3.2-9.4
			c2.1-2.8,3.2-6,3.2-9.3c0-10.5-8.7-17.6-16.9-17.6h-4h-2v54h2h4C30.9,96.3,39.7,89.2,39.7,78.7"/>
	</g>
	<g>
		<path style="&st3;" d="M8,6.7h1.5v7.9c0,0.4,0.1,0.7,0.2,1c0.1,0.3,0.3,0.6,0.5,0.8c0.2,0.2,0.5,0.4,0.8,0.6
			c0.3,0.1,0.7,0.2,1,0.2c0.4,0,0.7-0.1,1.1-0.2c0.3-0.1,0.6-0.3,0.8-0.6c0.2-0.2,0.4-0.5,0.5-0.8c0.1-0.3,0.2-0.7,0.2-1V6.7h1.5
			v7.9c0,0.6-0.1,1.1-0.3,1.6c-0.2,0.5-0.5,0.9-0.8,1.3c-0.4,0.4-0.8,0.7-1.3,0.9c-0.5,0.2-1.1,0.3-1.7,0.3c-0.6,0-1.2-0.1-1.7-0.3
			c-0.5-0.2-0.9-0.5-1.3-0.9c-0.3-0.4-0.6-0.8-0.8-1.3c-0.2-0.5-0.3-1-0.3-1.6V6.7z"/>
		<path style="&st3;" d="M20.2,10.8h1.4v1.3c0.2-0.5,0.6-0.8,1-1.1c0.5-0.3,1-0.4,1.6-0.4c0.5,0,1,0.1,1.4,0.3
			c0.4,0.2,0.7,0.4,0.9,0.7c0.2,0.3,0.4,0.6,0.5,1c0.1,0.4,0.1,0.8,0.1,1.3v4.5h-1.4v-4c0-0.3,0-0.7-0.1-1c-0.1-0.3-0.2-0.6-0.3-0.8
			c-0.1-0.2-0.3-0.4-0.6-0.5c-0.2-0.1-0.5-0.2-0.9-0.2c-0.4,0-0.7,0.1-1,0.2c-0.3,0.1-0.5,0.3-0.7,0.6c-0.2,0.2-0.3,0.5-0.4,0.8
			c-0.1,0.3-0.1,0.6-0.1,1v3.9h-1.4V10.8z"/>
		<path style="&st3;" d="M38.5,12.1c0.2-0.5,0.6-0.8,1.1-1.1s1-0.4,1.5-0.4c0.6,0,1.1,0.1,1.6,0.3c0.5,0.2,0.9,0.5,1.2,0.9
			c0.3,0.4,0.6,0.8,0.8,1.3c0.2,0.5,0.3,1,0.3,1.5c0,0.5-0.1,1-0.3,1.5c-0.2,0.5-0.5,0.9-0.8,1.3c-0.3,0.4-0.7,0.7-1.2,0.9
			c-0.5,0.2-1,0.3-1.6,0.3c-0.6,0-1.1-0.1-1.5-0.4c-0.5-0.3-0.8-0.6-1.1-1.1v5.4h-1.4V10.8h1.4V12.1z M41.1,11.9
			c-0.4,0-0.7,0.1-1.1,0.2c-0.3,0.1-0.6,0.3-0.8,0.6c-0.2,0.2-0.4,0.5-0.5,0.8c-0.1,0.3-0.2,0.7-0.2,1c0,0.4,0.1,0.7,0.2,1
			c0.1,0.3,0.3,0.6,0.5,0.8c0.2,0.2,0.5,0.4,0.8,0.6c0.3,0.1,0.7,0.2,1.1,0.2c0.4,0,0.7-0.1,1-0.2c0.3-0.1,0.6-0.3,0.8-0.6
			c0.2-0.2,0.4-0.5,0.5-0.8c0.1-0.3,0.2-0.7,0.2-1c0-0.4-0.1-0.7-0.2-1c-0.1-0.3-0.3-0.6-0.5-0.8c-0.2-0.2-0.5-0.4-0.8-0.6
			C41.8,11.9,41.5,11.9,41.1,11.9z"/>
		<path style="&st3;" d="M53.4,12.1c-0.2,0-0.3-0.1-0.4-0.1c-0.1,0-0.2,0-0.3,0c-0.8,0-1.5,0.3-1.9,0.8s-0.6,1.3-0.6,2.2v3.3h-1.4
			v-7.6h1.4v1.5c0.2-0.5,0.5-0.9,1-1.2c0.5-0.3,1-0.4,1.5-0.4c0.3,0,0.5,0,0.7,0.1V12.1z"/>
		<path style="&st3;" d="M59.4,18.5c-0.6,0-1.1-0.1-1.6-0.3s-0.9-0.5-1.2-0.9c-0.3-0.4-0.6-0.8-0.8-1.3c-0.2-0.5-0.3-1-0.3-1.5
			c0-0.5,0.1-1,0.3-1.5s0.5-0.9,0.8-1.3c0.3-0.4,0.8-0.7,1.2-0.9c0.5-0.2,1-0.3,1.6-0.3c0.6,0,1.2,0.1,1.6,0.3
			c0.5,0.2,0.9,0.5,1.3,0.9c0.3,0.4,0.6,0.8,0.8,1.3c0.2,0.5,0.3,1,0.3,1.5c0,0.5-0.1,1-0.3,1.5c-0.2,0.5-0.5,0.9-0.8,1.3
			c-0.3,0.4-0.8,0.7-1.3,0.9C60.5,18.4,60,18.5,59.4,18.5z M59.4,17.2c0.4,0,0.7-0.1,1.1-0.2c0.3-0.1,0.6-0.3,0.8-0.6
			s0.4-0.5,0.5-0.8c0.1-0.3,0.2-0.7,0.2-1c0-0.4-0.1-0.7-0.2-1c-0.1-0.3-0.3-0.6-0.5-0.8s-0.5-0.4-0.8-0.6c-0.3-0.1-0.7-0.2-1.1-0.2
			s-0.7,0.1-1,0.2c-0.3,0.1-0.6,0.3-0.8,0.6s-0.4,0.5-0.5,0.8c-0.1,0.3-0.2,0.7-0.2,1c0,0.4,0.1,0.7,0.2,1c0.1,0.3,0.3,0.6,0.5,0.8
			s0.5,0.4,0.8,0.6C58.6,17.1,59,17.2,59.4,17.2z"/>
		<path style="&st3;" d="M70.4,22.6c-1.1,0-1.9-0.3-2.6-0.8c-0.6-0.5-1-1.4-1-2.5h1.5c0,0.7,0.2,1.2,0.6,1.5
			c0.4,0.3,0.9,0.5,1.5,0.5c0.3,0,0.6,0,0.9-0.1c0.3-0.1,0.5-0.2,0.7-0.4c0.2-0.2,0.3-0.4,0.4-0.7c0.1-0.3,0.1-0.6,0.1-1.1V17
			c-0.2,0.5-0.6,0.8-1,1.1c-0.4,0.3-1,0.4-1.6,0.4c-0.6,0-1-0.1-1.4-0.2c-0.4-0.2-0.7-0.4-0.9-0.7c-0.2-0.3-0.4-0.6-0.4-1
			c-0.1-0.4-0.1-0.8-0.1-1.4v-4.4h1.4v4c0,0.4,0,0.7,0.1,1c0.1,0.3,0.2,0.6,0.3,0.8c0.2,0.2,0.3,0.4,0.6,0.5
			c0.2,0.1,0.6,0.2,0.9,0.2c0.4,0,0.7-0.1,0.9-0.2c0.3-0.1,0.5-0.3,0.7-0.6c0.2-0.2,0.3-0.5,0.4-0.8s0.1-0.6,0.1-1v-3.9H74v8.3
			c0,1.2-0.3,2.1-0.9,2.6S71.6,22.6,70.4,22.6z"/>
		<path style="&st3;" d="M79,14.9c0,0.3,0.1,0.6,0.2,0.9c0.1,0.3,0.2,0.5,0.4,0.7c0.2,0.2,0.4,0.4,0.7,0.5c0.3,0.1,0.6,0.2,1.1,0.2
			c0.6,0,1-0.1,1.3-0.4s0.5-0.5,0.6-0.8h1.5c-0.1,0.3-0.2,0.6-0.4,0.9c-0.2,0.3-0.4,0.5-0.7,0.8c-0.3,0.2-0.6,0.4-1,0.5
			s-0.8,0.2-1.3,0.2c-0.6,0-1.2-0.1-1.7-0.3c-0.5-0.2-0.9-0.5-1.2-0.8c-0.3-0.4-0.5-0.8-0.7-1.3c-0.2-0.5-0.2-1-0.2-1.5
			c0-0.6,0.1-1.1,0.3-1.6c0.2-0.5,0.4-0.9,0.7-1.3s0.7-0.6,1.2-0.8c0.5-0.2,1-0.3,1.6-0.3c0.5,0,0.9,0.1,1.4,0.3
			c0.4,0.2,0.8,0.4,1.1,0.7c0.3,0.3,0.6,0.7,0.7,1.1c0.2,0.4,0.3,0.9,0.3,1.3c0,0.1,0,0.2,0,0.4c0,0.2,0,0.3-0.1,0.5H79z M81.3,11.7
			c-0.7,0-1.2,0.2-1.6,0.6c-0.4,0.4-0.6,0.9-0.7,1.6h4.4c0-0.7-0.2-1.2-0.6-1.6C82.4,11.9,81.9,11.7,81.3,11.7z"/>
		<path style="&st3;" d="M93.9,13.5c-0.1-0.5-0.2-0.9-0.6-1.2s-0.8-0.5-1.5-0.5c-0.4,0-0.7,0.1-1,0.2c-0.3,0.1-0.5,0.3-0.7,0.6
			c-0.2,0.2-0.3,0.5-0.4,0.9c-0.1,0.3-0.2,0.7-0.2,1c0,0.4,0,0.7,0.1,1c0.1,0.3,0.2,0.6,0.4,0.8c0.2,0.2,0.5,0.4,0.8,0.6
			c0.3,0.1,0.7,0.2,1.1,0.2c0.6,0,1.1-0.1,1.4-0.4s0.5-0.6,0.6-1.1h1.4c-0.1,0.4-0.2,0.8-0.3,1.1s-0.4,0.6-0.7,0.9
			c-0.3,0.2-0.7,0.4-1.1,0.6c-0.4,0.1-0.9,0.2-1.4,0.2c-0.6,0-1.2-0.1-1.6-0.3c-0.5-0.2-0.9-0.5-1.2-0.9c-0.3-0.4-0.6-0.8-0.7-1.3
			c-0.2-0.5-0.2-1-0.2-1.5c0-0.5,0.1-1,0.2-1.5c0.2-0.5,0.4-0.9,0.7-1.3s0.7-0.7,1.2-0.9s1-0.3,1.6-0.3s1.1,0.1,1.6,0.3
			c0.4,0.2,0.8,0.4,1.1,0.7s0.5,0.6,0.6,0.9c0.1,0.4,0.2,0.7,0.3,1.1H93.9z"/>
		<path style="&st3;" d="M103.1,18.3c-0.1,0-0.3,0-0.6,0.1c-0.2,0-0.5,0-0.7,0c-0.2,0-0.5,0-0.8-0.1c-0.3,0-0.5-0.2-0.8-0.3
			c-0.2-0.2-0.4-0.4-0.6-0.8s-0.2-0.8-0.2-1.5V12H98v-1.2h1.4V8.2h1.4v2.5h2V12h-2v3.5c0,0.4,0,0.7,0.1,0.9c0.1,0.2,0.1,0.4,0.3,0.5
			s0.2,0.2,0.4,0.2c0.1,0,0.3,0,0.5,0c0.2,0,0.3,0,0.5,0s0.3,0,0.5-0.1V18.3z"/>
		<path style="&st3;" d="M109.6,18.5c-0.6,0-1.1-0.1-1.6-0.3s-0.9-0.5-1.2-0.9c-0.3-0.4-0.6-0.8-0.8-1.3c-0.2-0.5-0.3-1-0.3-1.5
			c0-0.5,0.1-1,0.3-1.5s0.5-0.9,0.8-1.3c0.3-0.4,0.8-0.7,1.2-0.9c0.5-0.2,1-0.3,1.6-0.3c0.6,0,1.2,0.1,1.6,0.3
			c0.5,0.2,0.9,0.5,1.3,0.9c0.3,0.4,0.6,0.8,0.8,1.3c0.2,0.5,0.3,1,0.3,1.5c0,0.5-0.1,1-0.3,1.5c-0.2,0.5-0.5,0.9-0.8,1.3
			c-0.3,0.4-0.8,0.7-1.3,0.9C110.7,18.4,110.2,18.5,109.6,18.5z M109.6,17.2c0.4,0,0.7-0.1,1.1-0.2c0.3-0.1,0.6-0.3,0.8-0.6
			s0.4-0.5,0.5-0.8c0.1-0.3,0.2-0.7,0.2-1c0-0.4-0.1-0.7-0.2-1c-0.1-0.3-0.3-0.6-0.5-0.8s-0.5-0.4-0.8-0.6c-0.3-0.1-0.7-0.2-1.1-0.2
			s-0.7,0.1-1,0.2c-0.3,0.1-0.6,0.3-0.8,0.6s-0.4,0.5-0.5,0.8c-0.1,0.3-0.2,0.7-0.2,1c0,0.4,0.1,0.7,0.2,1c0.1,0.3,0.3,0.6,0.5,0.8
			s0.5,0.4,0.8,0.6C108.8,17.1,109.2,17.2,109.6,17.2z"/>
		<path style="&st3;" d="M128.9,17c-0.2,0.5-0.6,0.8-1.1,1.1c-0.5,0.3-1,0.4-1.6,0.4c-0.6,0-1.1-0.1-1.6-0.3s-0.9-0.5-1.2-0.9
			c-0.3-0.4-0.6-0.8-0.8-1.3c-0.2-0.5-0.3-1-0.3-1.5c0-0.5,0.1-1,0.3-1.5s0.5-0.9,0.8-1.3c0.3-0.4,0.7-0.7,1.2-0.9
			c0.5-0.2,1-0.3,1.6-0.3c0.6,0,1.1,0.1,1.6,0.4c0.5,0.3,0.8,0.6,1.1,1.1V6.7h1.4v11.7h-1.4V17z M126.4,17.2c0.4,0,0.7-0.1,1.1-0.2
			c0.3-0.1,0.6-0.3,0.8-0.6s0.4-0.5,0.5-0.8c0.1-0.3,0.2-0.7,0.2-1c0-0.4-0.1-0.7-0.2-1c-0.1-0.3-0.3-0.6-0.5-0.8s-0.5-0.4-0.8-0.6
			c-0.3-0.1-0.7-0.2-1.1-0.2s-0.7,0.1-1,0.2c-0.3,0.1-0.6,0.3-0.8,0.6s-0.4,0.5-0.5,0.8c-0.1,0.3-0.2,0.7-0.2,1c0,0.4,0.1,0.7,0.2,1
			c0.1,0.3,0.3,0.6,0.5,0.8s0.5,0.4,0.8,0.6C125.6,17.1,126,17.2,126.4,17.2z"/>
		<path style="&st3;" d="M135.4,14.9c0,0.3,0.1,0.6,0.2,0.9c0.1,0.3,0.2,0.5,0.4,0.7c0.2,0.2,0.4,0.4,0.7,0.5
			c0.3,0.1,0.6,0.2,1.1,0.2c0.6,0,1-0.1,1.3-0.4s0.5-0.5,0.6-0.8h1.5c-0.1,0.3-0.2,0.6-0.4,0.9c-0.2,0.3-0.4,0.5-0.7,0.8
			c-0.3,0.2-0.6,0.4-1,0.5s-0.8,0.2-1.3,0.2c-0.6,0-1.2-0.1-1.7-0.3c-0.5-0.2-0.9-0.5-1.2-0.8c-0.3-0.4-0.5-0.8-0.7-1.3
			c-0.2-0.5-0.2-1-0.2-1.5c0-0.6,0.1-1.1,0.3-1.6c0.2-0.5,0.4-0.9,0.7-1.3s0.7-0.6,1.2-0.8c0.5-0.2,1-0.3,1.6-0.3
			c0.5,0,0.9,0.1,1.4,0.3c0.4,0.2,0.8,0.4,1.1,0.7c0.3,0.3,0.6,0.7,0.7,1.1c0.2,0.4,0.3,0.9,0.3,1.3c0,0.1,0,0.2,0,0.4
			c0,0.2,0,0.3-0.1,0.5H135.4z M137.7,11.7c-0.7,0-1.2,0.2-1.6,0.6c-0.4,0.4-0.6,0.9-0.7,1.6h4.4c0-0.7-0.2-1.2-0.6-1.6
			C138.8,11.9,138.3,11.7,137.7,11.7z"/>
		<path style="&st3;" d="M144.6,11.7c0-0.3,0.1-0.6,0.3-0.8c0.2-0.2,0.5-0.3,0.8-0.3s0.6,0.1,0.8,0.3c0.2,0.2,0.3,0.5,0.3,0.8
			c0,0.3-0.1,0.6-0.3,0.8s-0.5,0.3-0.8,0.3s-0.6-0.1-0.8-0.3C144.8,12.3,144.6,12,144.6,11.7z M144.6,17.3c0-0.3,0.1-0.6,0.3-0.8
			c0.2-0.2,0.5-0.3,0.8-0.3s0.6,0.1,0.8,0.3c0.2,0.2,0.3,0.5,0.3,0.8s-0.1,0.6-0.3,0.8c-0.2,0.2-0.5,0.3-0.8,0.3s-0.6-0.1-0.8-0.3
			C144.8,17.9,144.6,17.6,144.6,17.3z"/>
	</g>
</g>
</svg>
