<?xml version="1.0" encoding="utf-8"?>
<!-- Generator: Adobe Illustrator 23.0.3, SVG Export Plug-In . SVG Version: 6.00 Build 0)  -->
<!DOCTYPE svg PUBLIC "-//W3C//DTD SVG 1.1//EN" "http://www.w3.org/Graphics/SVG/1.1/DTD/svg11.dtd" [
	<!ENTITY st0 "opacity:0.65;">
	<!ENTITY st1 "opacity:0.5;fill:none;stroke:#57BCAD;stroke-width:4;stroke-miterlimit:10;">
	<!ENTITY st2 "fill:#57BCAD;">
	<!ENTITY st3 "fill:#FFFFFF;">
	<!ENTITY st4 "fill:none;stroke:#57BCAD;stroke-width:2;stroke-miterlimit:10;">
	<!ENTITY st5 "fill:none;stroke:#57BCAD;stroke-width:3;stroke-miterlimit:10;">
	<!ENTITY st6 "opacity:0.65;clip-path:url(#SVGID_2_);">
	<!ENTITY st7 "clip-path:url(#SVGID_2_);fill:none;">
]>
<svg version="1.1" id="Capa_1" xmlns="http://www.w3.org/2000/svg" xmlns:xlink="http://www.w3.org/1999/xlink" x="0px" y="0px"
	 viewBox="0 0 189 172.4" style="enable-background:new 0 0 189 172.4;" xml:space="preserve">
<g>
	<path d="M19.6,109.4c-0.9-0.7-1.8-1.3-2.9-1.8c-1.1-0.4-2.2-0.6-3.4-0.6c-0.9,0-1.9,0.1-2.7,0.4c-0.9,0.3-1.7,0.6-2.4,1.1
		c-1.4,0.9-2.5,2-3.3,3.5c-0.8,1.5-1.3,3.1-1.3,4.8c0,0.9,0.1,1.9,0.4,2.7c0.2,0.9,0.6,1.7,1,2.4c0.9,1.4,2,2.5,3.5,3.4
		c1.5,0.9,3.1,1.3,4.8,1.3c1.2,0,2.3-0.1,3.2-0.4c0.9-0.2,1.7-0.5,2.2-0.8c0.3-0.1,0.5-0.3,0.7-0.4c0.2-0.1,0.3-0.2,0.3-0.2v-5.9
		h-5.4c-0.2,0-0.3,0-0.3-0.1c0-0.1-0.1-0.2-0.1-0.3v-0.6c0-0.1,0-0.2,0.1-0.3c0.1-0.1,0.2-0.1,0.3-0.1h6.4c0.1,0,0.2,0,0.3,0.1
		c0.1,0.1,0.1,0.2,0.1,0.3v7.2c0,0.2,0,0.4-0.1,0.5c-0.1,0.1-0.2,0.2-0.3,0.3c-0.1,0.1-0.3,0.2-0.5,0.3c-0.2,0.1-0.5,0.3-0.9,0.4
		c-0.7,0.3-1.5,0.6-2.6,0.8c-1,0.3-2.2,0.4-3.5,0.4c-1.1,0-2.2-0.1-3.2-0.4c-1-0.3-1.9-0.7-2.8-1.2c-1.6-1-2.9-2.3-3.9-4
		C2.5,120.8,2,119,2,117c0-1.1,0.2-2.2,0.5-3.2c0.3-1,0.7-1.9,1.2-2.8c1-1.6,2.3-2.9,4-3.9c1.7-1,3.5-1.5,5.6-1.5
		c1.4,0,2.7,0.2,3.8,0.6c1.1,0.4,2.2,1,3.1,1.8c0.7,0.5,1.2,1.1,1.3,1.6c0.1,0.2,0.1,0.4,0.1,0.6c0,0.3-0.1,0.5-0.2,0.7
		c-0.2,0.3-0.5,0.5-0.8,0.6c-0.3,0.1-0.6,0-1-0.2c-0.3-0.2-0.5-0.4-0.5-0.7c-0.1-0.3,0-0.6,0.2-1c0,0,0.1-0.1,0.1-0.1
		C19.5,109.5,19.6,109.5,19.6,109.4"/>
	<path d="M57.3,127.8h-0.8c-0.1,0-0.2,0-0.3-0.1c-0.1-0.1-0.1-0.1-0.2-0.2c-0.6-1.3-1.4-3.2-2.5-5.7H45c0,0-0.1,0-0.1,0
		c0,0-0.1,0-0.1,0c0,0.1,0.1,0.2,0.1,0.3c0,0.1,0,0.2,0,0.3c0,0.4-0.2,0.7-0.4,0.9c-0.3,0.2-0.6,0.3-0.9,0.3c-0.4,0-0.7-0.2-0.9-0.4
		c-0.2-0.2-0.3-0.6-0.3-1c0-0.5,0.3-0.8,0.7-1.2c0.5-0.3,1.2-0.5,2.2-0.4H53c-1.2-2.8-3-7-5.3-12.6h-0.1c-1.9,4.3-4.7,10.9-8.5,19.6
		c0,0.1-0.1,0.1-0.2,0.2c-0.1,0.1-0.2,0.1-0.3,0.1h-0.9c-0.1,0-0.2,0-0.2-0.1c0,0,0-0.1,0-0.1c0,0,0-0.1,0-0.2
		c2.1-4.8,5.3-12.1,9.6-21.7c0-0.1,0.1-0.1,0.2-0.2c0.1,0,0.1-0.1,0.2-0.1h0.1c0.1,0,0.2,0,0.2,0c0.1,0,0.1,0.1,0.2,0.2
		c2.1,4.8,5.3,12.1,9.5,21.7c0,0.1,0,0.1,0,0.2c0,0,0,0.1,0,0.1C57.6,127.8,57.5,127.8,57.3,127.8"/>
	<path d="M88.2,127.3c0.1,0.1,0.1,0.3,0.1,0.4c0,0.1-0.1,0.2-0.3,0.2h-1c-0.1,0-0.2,0-0.3-0.1c-0.1-0.1-0.1-0.1-0.2-0.2
		c-1-1.8-2.5-4.5-4.5-8.2c-0.2,0-0.4,0-0.6,0h-0.6h-2.4c0,0.1,0.1,0.2,0.1,0.2c0,0.1,0,0.2,0,0.2c0,0.4-0.2,0.7-0.4,0.9
		c-0.3,0.2-0.6,0.3-0.9,0.3c-0.4,0-0.7-0.1-0.9-0.4c-0.2-0.3-0.3-0.6-0.3-1c0-0.4,0.2-0.8,0.6-1.1c0.4-0.3,1-0.5,1.9-0.5h0.1h0h0
		h2.9c0.5,0,1-0.1,1.5-0.2c0.5-0.1,0.9-0.3,1.4-0.6c0.8-0.5,1.4-1.1,1.9-1.9c0.5-0.8,0.7-1.7,0.7-2.7c0-1-0.2-1.9-0.7-2.6
		c-0.5-0.8-1.1-1.4-1.9-1.8c-0.4-0.2-0.9-0.4-1.4-0.6c-0.5-0.1-1-0.2-1.5-0.2h-6.5c0,4.5,0,11.1,0,20c0,0.1,0,0.2-0.1,0.3
		c-0.1,0.1-0.2,0.1-0.4,0.1h-0.5c-0.1,0-0.2,0-0.3-0.1c-0.1-0.1-0.1-0.2-0.1-0.3v-7.9v-13.1c0-0.1,0-0.2,0.1-0.3
		c0.1-0.1,0.2-0.1,0.3-0.1h7.7c0.7,0,1.3,0.1,1.9,0.3c0.6,0.2,1.2,0.4,1.7,0.7c1,0.6,1.8,1.4,2.4,2.4c0.6,1,0.9,2.1,0.9,3.3
		c0,1.6-0.5,2.9-1.5,4.1c-1,1.2-2.2,2-3.7,2.4C84.6,121,86.1,123.7,88.2,127.3"/>
	<path d="M123.2,116.9c0,1.1-0.1,2.1-0.4,3.1c-0.3,1-0.7,1.9-1.2,2.7c-1,1.6-2.3,2.8-3.9,3.7c-1.6,0.9-3.4,1.4-5.4,1.4h-1.6
		c-1,0-1.7-0.1-2.2-0.5c-0.5-0.3-0.7-0.7-0.7-1.2c0-0.4,0.1-0.7,0.3-1c0.2-0.2,0.5-0.4,0.9-0.4c0.3,0,0.6,0.1,0.9,0.3
		c0.3,0.2,0.4,0.5,0.4,0.9c0,0.1,0,0.2,0,0.2c0,0.1-0.1,0.1-0.1,0.2h1.9c1,0,1.9-0.1,2.7-0.4c0.9-0.2,1.7-0.6,2.4-1
		c1.4-0.8,2.5-2,3.3-3.4c0.8-1.4,1.2-3,1.2-4.8c0-1.8-0.4-3.3-1.2-4.8c-0.8-1.4-1.9-2.6-3.3-3.4c-0.7-0.4-1.5-0.8-2.4-1
		c-0.9-0.2-1.8-0.4-2.7-0.4h-5.3v20.1c0,0.1,0,0.2-0.1,0.3c-0.1,0.1-0.2,0.1-0.3,0.1h-0.6c-0.1,0-0.2,0-0.3-0.1
		c-0.1-0.1-0.1-0.2-0.1-0.3v-7.9v-13.1c0-0.1,0-0.2,0.1-0.3c0.1-0.1,0.2-0.1,0.3-0.1h6.6c1.1,0,2.1,0.1,3.1,0.4
		c1,0.3,1.9,0.7,2.7,1.2c1.6,1,2.8,2.3,3.8,3.9C122.7,113.2,123.2,115,123.2,116.9"/>
	<path d="M141.2,107.3v8.6h9.9c0.1,0,0.2,0,0.3,0.1c0.1,0.1,0.1,0.2,0.1,0.3v0.5c0,0.1,0,0.2-0.1,0.3c-0.1,0.1-0.2,0.1-0.3,0.1h-9.9
		v9.2h9.5c0-0.1-0.1-0.2-0.1-0.2c0-0.1,0-0.2,0-0.2c0-0.4,0.2-0.7,0.4-0.9c0.3-0.2,0.6-0.3,0.9-0.3c0.4,0,0.7,0.2,0.9,0.4
		c0.2,0.2,0.3,0.5,0.3,0.9c0,0,0,0.1,0,0.1c0,0.4-0.2,0.8-0.6,1.1c-0.4,0.3-1,0.5-1.9,0.5h-10.4c-0.1,0-0.2,0-0.3-0.1
		c-0.1-0.1-0.1-0.2-0.1-0.3v-7.9v-13.2c0-0.1,0-0.2,0.1-0.3c0.1-0.1,0.2-0.1,0.3-0.1h12.5c0.1,0,0.2,0,0.3,0.1
		c0.1,0.1,0.1,0.2,0.1,0.3v0.5c0,0.1,0,0.2-0.1,0.3c-0.1,0.1-0.2,0.1-0.3,0.1H141.2z"/>
	<path d="M186.9,127.8c0,0.1-0.1,0.2-0.2,0.3c-0.1,0.1-0.2,0.1-0.3,0.1H186l-0.1-0.1c-0.1-0.1-0.2-0.3-0.6-0.7
		c-0.1-0.2-0.3-0.4-0.5-0.6c-0.2-0.2-0.4-0.6-0.7-0.9c-0.4-0.5-0.8-1.1-1.4-1.8c-0.6-0.7-1.2-1.6-2-2.6c-1.1-1.5-2.5-3.2-4.1-5.3
		c-1.6-2.1-3.5-4.6-5.7-7.6h0v19c0,0.1,0,0.2-0.1,0.3c-0.1,0.1-0.2,0.1-0.3,0.1h-0.6c-0.1,0-0.2,0-0.3-0.1c-0.1-0.1-0.1-0.2-0.1-0.3
		v-8v-13.3c0-0.1,0-0.2,0.1-0.3c0.1-0.1,0.2-0.1,0.3-0.1h0.5c3.3,4.3,8.3,10.8,15,19.5h0v-16.8c-0.1,0-0.1,0-0.2,0
		c-0.1,0-0.1,0-0.2,0c-0.4,0-0.7-0.2-0.9-0.5c-0.2-0.3-0.2-0.6-0.2-0.9c0-0.4,0.2-0.6,0.5-0.8c0.3-0.2,0.6-0.3,1-0.2
		c0.4,0,0.7,0.3,1,0.7c0.3,0.4,0.4,1,0.4,1.8V127.8z"/>
	<path d="M59.8,169c-0.1,0.2-0.2,0.4-0.3,0.6c-0.1,0.2-0.3,0.3-0.5,0.5c-0.2,0.1-0.4,0.2-0.7,0.3c-0.2,0.1-0.5,0.1-0.8,0.1
		c-0.4,0-0.8-0.1-1.1-0.2c-0.3-0.1-0.6-0.3-0.8-0.6c-0.2-0.2-0.4-0.5-0.5-0.8c-0.1-0.3-0.2-0.7-0.2-1c0-0.3,0.1-0.7,0.2-1
		c0.1-0.3,0.3-0.6,0.5-0.8c0.2-0.2,0.5-0.4,0.8-0.6c0.3-0.1,0.7-0.2,1.1-0.2c0.3,0,0.7,0,0.9,0.1c0.3,0.1,0.5,0.2,0.7,0.4
		c0.2,0.2,0.4,0.3,0.5,0.6c0.1,0.2,0.2,0.4,0.3,0.7h-0.3c-0.1-0.2-0.1-0.4-0.2-0.6c-0.1-0.2-0.3-0.3-0.4-0.5
		c-0.2-0.1-0.4-0.2-0.6-0.3c-0.2-0.1-0.5-0.1-0.8-0.1c-0.4,0-0.7,0.1-1,0.2c-0.3,0.1-0.5,0.3-0.7,0.5c-0.2,0.2-0.3,0.5-0.4,0.7
		c-0.1,0.3-0.2,0.6-0.2,0.9c0,0.3,0.1,0.6,0.2,0.9c0.1,0.3,0.3,0.5,0.5,0.7c0.2,0.2,0.5,0.4,0.7,0.5c0.3,0.1,0.6,0.2,1,0.2
		c0.2,0,0.4,0,0.6-0.1c0.2-0.1,0.4-0.1,0.6-0.3c0.2-0.1,0.3-0.2,0.4-0.4c0.1-0.2,0.2-0.3,0.3-0.5H59.8z"/>
	<polygon points="68.5,168.1 65.6,168.1 65.6,170.4 65.3,170.4 65.3,165.4 65.6,165.4 65.6,167.8 68.5,167.8 68.5,165.4 68.8,165.4 
		68.8,170.4 68.5,170.4 	"/>
	<path d="M75.9,165.8l-1.1,3.3h2.2L75.9,165.8z M77.4,170.4l-0.4-1h-2.4l-0.4,1H74l1.7-5.1H76l1.7,5.1H77.4z"/>
	<path d="M87.4,169c-0.1,0.2-0.2,0.4-0.3,0.6c-0.1,0.2-0.3,0.3-0.5,0.5c-0.2,0.1-0.4,0.2-0.7,0.3c-0.2,0.1-0.5,0.1-0.8,0.1
		c-0.4,0-0.8-0.1-1.1-0.2c-0.3-0.1-0.6-0.3-0.8-0.6c-0.2-0.2-0.4-0.5-0.5-0.8c-0.1-0.3-0.2-0.7-0.2-1c0-0.3,0.1-0.7,0.2-1
		c0.1-0.3,0.3-0.6,0.5-0.8c0.2-0.2,0.5-0.4,0.8-0.6c0.3-0.1,0.7-0.2,1.1-0.2c0.3,0,0.7,0,0.9,0.1c0.3,0.1,0.5,0.2,0.7,0.4
		c0.2,0.2,0.4,0.3,0.5,0.6c0.1,0.2,0.2,0.4,0.3,0.7h-0.3c-0.1-0.2-0.1-0.4-0.3-0.6c-0.1-0.2-0.3-0.3-0.4-0.5
		c-0.2-0.1-0.4-0.2-0.6-0.3c-0.2-0.1-0.5-0.1-0.8-0.1c-0.4,0-0.7,0.1-0.9,0.2c-0.3,0.1-0.5,0.3-0.7,0.5c-0.2,0.2-0.3,0.5-0.4,0.7
		c-0.1,0.3-0.2,0.6-0.2,0.9c0,0.3,0.1,0.6,0.2,0.9c0.1,0.3,0.3,0.5,0.5,0.7c0.2,0.2,0.4,0.4,0.7,0.5c0.3,0.1,0.6,0.2,1,0.2
		c0.2,0,0.4,0,0.7-0.1c0.2-0.1,0.4-0.1,0.6-0.3c0.2-0.1,0.3-0.2,0.4-0.4c0.1-0.2,0.2-0.3,0.3-0.5H87.4z"/>
	<path d="M94.1,165.8l-1.1,3.3h2.2L94.1,165.8z M95.7,170.4l-0.4-1h-2.4l-0.4,1h-0.3l1.7-5.1h0.3l1.7,5.1H95.7z"/>
	<path d="M102.9,168.3c0.2,0,0.4,0,0.6-0.1c0.2-0.1,0.3-0.2,0.4-0.3c0.1-0.1,0.2-0.3,0.3-0.4c0.1-0.2,0.1-0.3,0.1-0.5
		c0-0.2,0-0.4-0.1-0.5c-0.1-0.2-0.2-0.3-0.3-0.4c-0.1-0.1-0.3-0.2-0.4-0.3c-0.2-0.1-0.3-0.1-0.6-0.1h-1.4v2.7H102.9z M101.2,165.4
		h1.7c0.3,0,0.5,0,0.7,0.1c0.2,0.1,0.4,0.2,0.5,0.4c0.1,0.1,0.3,0.3,0.3,0.5c0.1,0.2,0.1,0.4,0.1,0.6c0,0.2,0,0.4-0.1,0.5
		c-0.1,0.2-0.1,0.3-0.2,0.5c-0.1,0.1-0.2,0.3-0.4,0.4c-0.2,0.1-0.3,0.2-0.5,0.2l1.2,1.9h-0.4l-1.2-1.8h-1.5v1.8h-0.3V165.4z"/>
	<rect x="110.1" y="165.4" width="0.3" height="5.1"/>
	<polygon points="118.3,170.1 118.3,170.4 116.2,170.4 116.2,165.4 116.5,165.4 116.5,170.1 	"/>
	<polygon points="125.8,170.1 125.8,170.4 123.7,170.4 123.7,165.4 124,165.4 124,170.1 	"/>
	<path d="M132.5,165.8l-1.1,3.3h2.2L132.5,165.8z M134.1,170.4l-0.4-1h-2.4l-0.4,1h-0.3l1.7-5.1h0.3l1.7,5.1H134.1z"/>
	<path d="M114.1,62.7c0,10.6-8.4,19.2-18.9,19.6v-11c1.4,2,3.7,3.3,6.3,3.3c4.2,0,7.7-3.5,7.7-7.7c0-3.1-1.9-5.8-4.5-7
		c2.7-1.2,4.5-3.9,4.5-7s-1.9-5.8-4.5-7c2.7-1.2,4.5-3.9,4.5-7s-1.9-5.8-4.5-7c2.7-1.2,4.5-3.9,4.5-7c0-4.2-3.5-7.7-7.7-7.7v1.4
		c3.5,0,6.3,2.8,6.3,6.3c0,3.5-2.8,6.3-6.3,6.3c-3.5,0-6.3-2.8-6.3-6.3v-9.7c1.4,2,3.7,3.3,6.3,3.3v-1.4c-3.5,0-6.3-2.8-6.3-6.3
		c0-3.4,2.8-6.3,6.2-6.3c7.4,2.8,12.7,10,12.7,18.4V62.7z M74.9,62.7V22.8c0-8.4,5.3-15.6,12.7-18.4c3.4,0.1,6.2,2.9,6.2,6.3
		c0,3.5-2.8,6.3-6.3,6.3c-4.2,0-7.7,3.5-7.7,7.7c0,3.1,1.9,5.8,4.5,7c-2.7,1.2-4.5,3.9-4.5,7s1.9,5.8,4.5,7c-2.7,1.2-4.5,3.9-4.5,7
		s1.9,5.8,4.5,7c-2.7,1.2-4.5,3.9-4.5,7c0,4.2,3.5,7.7,7.7,7.7c2.6,0,4.9-1.3,6.3-3.3v11C83.3,81.9,74.9,73.2,74.9,62.7 M87.5,31.1
		c-3.5,0-6.3-2.8-6.3-6.3c0-3.5,2.8-6.3,6.3-6.3c2.6,0,4.9-1.3,6.3-3.3v9.7C93.8,28.3,91,31.1,87.5,31.1 M95.2,38.8v-9.7
		c1.4,2,3.7,3.3,6.3,3.3c3.5,0,6.3,2.8,6.3,6.3c0,3.5-2.8,6.3-6.3,6.3C98,45.1,95.2,42.3,95.2,38.8 M95.2,52.8v-9.7
		c1.4,2,3.7,3.3,6.3,3.3c3.5,0,6.3,2.8,6.3,6.3c0,3.5-2.8,6.3-6.3,6.3C98,59.2,95.2,56.3,95.2,52.8 M95.2,57.2
		c1.4,2,3.7,3.3,6.3,3.3c3.5,0,6.3,2.8,6.3,6.3c0,3.5-2.8,6.3-6.3,6.3c-3.5,0-6.3-2.8-6.3-6.3V57.2z M93.8,57.2v9.7
		c0,3.5-2.8,6.3-6.3,6.3c-3.5,0-6.3-2.8-6.3-6.3c0-3.5,2.8-6.3,6.3-6.3C90.1,60.5,92.4,59.2,93.8,57.2 M87.5,45.1
		c-3.5,0-6.3-2.8-6.3-6.3c0-3.5,2.8-6.3,6.3-6.3c2.6,0,4.9-1.3,6.3-3.3v9.7C93.8,42.3,91,45.1,87.5,45.1 M93.8,43.2v9.7
		c0,3.5-2.8,6.3-6.3,6.3c-3.5,0-6.3-2.8-6.3-6.3c0-3.5,2.8-6.3,6.3-6.3C90.1,46.5,92.4,45.2,93.8,43.2 M98.6,3.6
		c-1.8,0.7-3.3,2.2-4.1,4c-0.8-1.8-2.3-3.2-4.1-4c1.3-0.3,2.7-0.4,4.1-0.4C95.9,3.2,97.3,3.4,98.6,3.6 M94.5,1.8
		c-11.6,0-21,9.4-21,21v39.8c0,11.6,9.4,21,21,21c11.6,0,21-9.4,21-21V22.8C115.5,11.3,106,1.8,94.5,1.8"/>
</g>
</svg>
