<?xml version="1.0" encoding="utf-8"?>
<!-- Generator: Adobe Illustrator 23.0.0, SVG Export Plug-In . SVG Version: 6.00 Build 0)  -->
<!DOCTYPE svg PUBLIC "-//W3C//DTD SVG 1.1//EN" "http://www.w3.org/Graphics/SVG/1.1/DTD/svg11.dtd" [
	<!ENTITY st0 "fill:#061E3B;">
]>
<svg version="1.1" id="Capa_1" xmlns="http://www.w3.org/2000/svg" xmlns:xlink="http://www.w3.org/1999/xlink" x="0px" y="0px"
	 viewBox="0 0 290.62 123.16" style="enable-background:new 0 0 290.62 123.16;" xml:space="preserve">
<g>
	<g>
		<path style="&st0;" d="M10.38,105.65h2.51v13.11h-2.51V105.65z M9.63,100.69c0-0.56,0.19-1.04,0.58-1.44
			c0.38-0.4,0.86-0.61,1.41-0.61c0.56,0,1.04,0.2,1.44,0.61c0.4,0.4,0.61,0.89,0.61,1.44c0,0.56-0.2,1.03-0.61,1.41
			c-0.4,0.39-0.88,0.58-1.44,0.58c-0.56,0-1.03-0.19-1.41-0.58C9.82,101.72,9.63,101.25,9.63,100.69"/>
		<path style="&st0;" d="M17.4,105.65h2.51v2.31c0.38-0.81,0.97-1.45,1.76-1.93c0.79-0.48,1.74-0.72,2.86-0.72
			c0.92,0,1.71,0.15,2.37,0.45c0.65,0.3,1.17,0.73,1.56,1.28c0.36,0.5,0.62,1.06,0.78,1.68c0.15,0.62,0.23,1.39,0.23,2.31v7.74
			h-2.51v-6.96c0-0.6-0.06-1.16-0.17-1.69c-0.12-0.53-0.3-0.98-0.56-1.36c-0.26-0.37-0.6-0.67-1.03-0.89
			c-0.42-0.22-0.94-0.33-1.56-0.33c-0.63,0-1.18,0.13-1.65,0.37c-0.46,0.25-0.85,0.58-1.16,1c-0.31,0.41-0.54,0.89-0.69,1.43
			c-0.15,0.54-0.23,1.1-0.23,1.67v6.76H17.4V105.65z"/>
		<path style="&st0;" d="M50.68,118.76v-7.54c0-1.21-0.24-2.13-0.71-2.76c-0.47-0.63-1.16-0.94-2.06-0.94
			c-0.98,0-1.76,0.38-2.34,1.13c-0.58,0.75-0.87,1.9-0.87,3.44v6.67H42.2v-7.39c0-1.33-0.24-2.3-0.71-2.91
			c-0.47-0.62-1.15-0.93-2.03-0.93c-0.96,0-1.74,0.38-2.34,1.13c-0.6,0.75-0.89,1.9-0.89,3.44v6.67h-2.51v-13.11h2.51v2.34
			c0.25-0.73,0.71-1.36,1.39-1.89c0.67-0.53,1.5-0.8,2.48-0.8c1.21,0,2.16,0.26,2.83,0.77c0.67,0.51,1.14,1.19,1.39,2.03
			c0.13-0.36,0.34-0.72,0.61-1.07c0.27-0.35,0.58-0.64,0.94-0.89c0.36-0.25,0.76-0.45,1.21-0.61c0.45-0.15,0.94-0.23,1.46-0.23
			c0.86,0,1.6,0.14,2.19,0.4c0.6,0.27,1.08,0.63,1.44,1.1c0.37,0.46,0.63,1.01,0.8,1.65c0.16,0.63,0.24,1.31,0.24,2.02v8.29H50.68z"
			/>
		<path style="&st0;" d="M63.3,116.83c0.67,0,1.29-0.13,1.83-0.38c0.55-0.25,1.02-0.58,1.4-0.99c0.38-0.41,0.68-0.9,0.89-1.46
			c0.21-0.56,0.32-1.16,0.32-1.79c0-0.64-0.11-1.23-0.32-1.79c-0.21-0.56-0.51-1.05-0.89-1.47c-0.39-0.42-0.85-0.76-1.4-1.01
			c-0.55-0.25-1.16-0.38-1.83-0.38c-0.68,0-1.28,0.13-1.82,0.38c-0.54,0.25-1,0.59-1.37,1.01c-0.37,0.42-0.67,0.91-0.88,1.47
			c-0.21,0.56-0.32,1.15-0.32,1.79c0,0.63,0.11,1.23,0.32,1.79c0.21,0.56,0.5,1.04,0.88,1.46c0.38,0.41,0.83,0.74,1.37,0.99
			C62.02,116.7,62.63,116.83,63.3,116.83 M63.3,119.08c-1.04,0-1.98-0.18-2.83-0.55c-0.85-0.36-1.57-0.86-2.17-1.5
			c-0.6-0.63-1.06-1.37-1.39-2.19c-0.33-0.83-0.49-1.7-0.49-2.63c0-0.93,0.16-1.8,0.49-2.64c0.33-0.84,0.79-1.57,1.39-2.21
			c0.6-0.63,1.32-1.14,2.17-1.5c0.85-0.37,1.79-0.55,2.83-0.55c1.06,0,2.01,0.18,2.86,0.55c0.85,0.37,1.57,0.87,2.18,1.5
			c0.61,0.63,1.07,1.37,1.4,2.21c0.33,0.84,0.49,1.72,0.49,2.64c0,0.92-0.16,1.8-0.49,2.63c-0.33,0.83-0.79,1.56-1.4,2.19
			c-0.61,0.64-1.33,1.14-2.18,1.5C65.31,118.9,64.36,119.08,63.3,119.08"/>
		<path style="&st0;" d="M80.62,116.83c0.66,0,1.25-0.13,1.79-0.38c0.54-0.25,1-0.58,1.37-0.99c0.38-0.41,0.67-0.9,0.88-1.46
			c0.21-0.56,0.32-1.16,0.32-1.79c0-0.63-0.11-1.23-0.32-1.79c-0.21-0.56-0.5-1.05-0.88-1.47c-0.37-0.42-0.83-0.76-1.37-1.01
			c-0.54-0.25-1.13-0.37-1.79-0.37c-0.67,0-1.28,0.12-1.83,0.37c-0.55,0.25-1.02,0.59-1.4,1.01c-0.38,0.42-0.68,0.91-0.89,1.47
			c-0.21,0.56-0.32,1.16-0.32,1.79c0,0.63,0.11,1.23,0.32,1.79c0.21,0.56,0.51,1.04,0.89,1.46c0.38,0.41,0.85,0.75,1.4,0.99
			C79.34,116.7,79.95,116.83,80.62,116.83 M76.18,118.76h-2.51V98.55h2.51v9.35c0.42-0.81,1.05-1.44,1.88-1.91
			c0.83-0.46,1.72-0.69,2.68-0.69c1,0,1.92,0.19,2.76,0.55c0.84,0.37,1.55,0.87,2.14,1.5c0.59,0.64,1.04,1.37,1.37,2.21
			c0.33,0.84,0.49,1.72,0.49,2.64c0,0.92-0.16,1.8-0.49,2.63c-0.33,0.83-0.79,1.56-1.37,2.19c-0.59,0.64-1.3,1.14-2.14,1.5
			c-0.84,0.37-1.76,0.55-2.76,0.55c-0.96,0-1.86-0.23-2.68-0.69c-0.83-0.46-1.45-1.1-1.88-1.9V118.76z"/>
		<path style="&st0;" d="M90.96,105.65h2.51v13.11h-2.51V105.65z M90.21,100.69c0-0.56,0.19-1.04,0.58-1.44
			c0.38-0.4,0.86-0.61,1.41-0.61c0.56,0,1.04,0.2,1.44,0.61c0.4,0.4,0.61,0.89,0.61,1.44c0,0.56-0.2,1.03-0.61,1.41
			c-0.4,0.39-0.88,0.58-1.44,0.58c-0.56,0-1.03-0.19-1.41-0.58C90.4,101.72,90.21,101.25,90.21,100.69"/>
		<rect x="97.98" y="98.55" style="&st0;" width="2.51" height="20.21"/>
		<path style="&st0;" d="M104.99,105.65h2.51v13.11h-2.51V105.65z M104.24,100.69c0-0.56,0.19-1.04,0.58-1.44
			c0.38-0.4,0.86-0.61,1.41-0.61c0.56,0,1.04,0.2,1.44,0.61c0.4,0.4,0.61,0.89,0.61,1.44c0,0.56-0.2,1.03-0.61,1.41
			c-0.4,0.39-0.88,0.58-1.44,0.58c-0.56,0-1.03-0.19-1.41-0.58C104.43,101.72,104.24,101.25,104.24,100.69"/>
		<path style="&st0;" d="M117.81,116.83c0.67,0,1.29-0.12,1.83-0.37c0.55-0.25,1.01-0.58,1.4-1c0.38-0.41,0.68-0.9,0.89-1.46
			c0.21-0.56,0.32-1.16,0.32-1.79c0-0.63-0.11-1.23-0.32-1.79c-0.21-0.56-0.51-1.05-0.89-1.47c-0.38-0.42-0.85-0.76-1.4-1.01
			c-0.55-0.25-1.16-0.37-1.83-0.37c-0.67,0-1.28,0.13-1.82,0.37c-0.54,0.25-1,0.59-1.37,1.01c-0.38,0.42-0.67,0.92-0.88,1.47
			c-0.21,0.56-0.32,1.16-0.32,1.79c0,0.63,0.11,1.23,0.32,1.79c0.21,0.56,0.5,1.05,0.88,1.46c0.37,0.41,0.83,0.75,1.37,1
			C116.53,116.7,117.14,116.83,117.81,116.83 M124.74,105.65v13.11h-2.48v-2.28c-0.42,0.81-1.05,1.44-1.89,1.91
			c-0.84,0.46-1.74,0.69-2.7,0.69c-1,0-1.92-0.19-2.74-0.55c-0.83-0.37-1.54-0.87-2.12-1.5c-0.59-0.64-1.04-1.37-1.37-2.19
			c-0.33-0.83-0.49-1.7-0.49-2.63c0-0.92,0.16-1.8,0.49-2.64c0.33-0.84,0.79-1.57,1.37-2.21c0.59-0.63,1.3-1.13,2.12-1.5
			c0.83-0.36,1.74-0.55,2.74-0.55c0.96,0,1.86,0.23,2.7,0.69c0.84,0.46,1.47,1.1,1.89,1.91v-2.25H124.74z"/>
		<path style="&st0;" d="M137.36,107.96c-0.27-0.06-0.49-0.1-0.65-0.12c-0.16-0.02-0.36-0.03-0.59-0.03c-1.46,0-2.55,0.47-3.28,1.41
			c-0.72,0.94-1.08,2.2-1.08,3.78v5.75h-2.51v-13.11h2.51v2.57c0.35-0.83,0.93-1.5,1.75-2.01c0.82-0.51,1.69-0.76,2.61-0.76
			c0.5,0,0.91,0.07,1.24,0.2V107.96z"/>
		<path style="&st0;" d="M139.78,105.65h2.51v13.11h-2.51V105.65z M139.03,100.69c0-0.56,0.19-1.04,0.58-1.44
			c0.38-0.4,0.86-0.61,1.41-0.61c0.56,0,1.04,0.2,1.44,0.61c0.4,0.4,0.61,0.89,0.61,1.44c0,0.56-0.2,1.03-0.61,1.41
			c-0.4,0.39-0.88,0.58-1.44,0.58c-0.56,0-1.03-0.19-1.41-0.58C139.22,101.72,139.03,101.25,139.03,100.69"/>
		<path style="&st0;" d="M152.6,116.83c0.67,0,1.29-0.12,1.83-0.37c0.55-0.25,1.01-0.58,1.4-1c0.38-0.41,0.68-0.9,0.89-1.46
			c0.21-0.56,0.32-1.16,0.32-1.79c0-0.63-0.11-1.23-0.32-1.79c-0.21-0.56-0.51-1.05-0.89-1.47c-0.38-0.42-0.85-0.76-1.4-1.01
			c-0.55-0.25-1.16-0.37-1.83-0.37s-1.28,0.13-1.82,0.37c-0.54,0.25-1,0.59-1.37,1.01c-0.38,0.42-0.67,0.92-0.88,1.47
			c-0.21,0.56-0.32,1.16-0.32,1.79c0,0.63,0.1,1.23,0.32,1.79c0.21,0.56,0.5,1.05,0.88,1.46c0.37,0.41,0.83,0.75,1.37,1
			C151.32,116.7,151.93,116.83,152.6,116.83 M159.53,105.65v13.11h-2.48v-2.28c-0.42,0.81-1.05,1.44-1.89,1.91
			c-0.84,0.46-1.74,0.69-2.7,0.69c-1,0-1.92-0.19-2.74-0.55c-0.83-0.37-1.54-0.87-2.12-1.5c-0.59-0.64-1.04-1.37-1.37-2.19
			c-0.33-0.83-0.49-1.7-0.49-2.63c0-0.92,0.16-1.8,0.49-2.64c0.33-0.84,0.79-1.57,1.37-2.21c0.59-0.63,1.3-1.13,2.12-1.5
			c0.83-0.36,1.74-0.55,2.74-0.55c0.96,0,1.86,0.23,2.7,0.69c0.84,0.46,1.47,1.1,1.89,1.91v-2.25H159.53z"/>
	</g>
	<path style="&st0;" d="M243.38,21.11c-11.35,0-20.58,9.23-20.58,20.58c0,11.35,9.23,20.58,20.58,20.58
		c11.35,0,20.58-9.23,20.58-20.58C263.96,30.34,254.73,21.11,243.38,21.11 M243.38,64.92c-12.81,0-23.23-10.42-23.23-23.23
		c0-12.81,10.42-23.23,23.23-23.23c12.81,0,23.23,10.42,23.23,23.23C266.61,54.5,256.19,64.92,243.38,64.92"/>
	<path style="&st0;" d="M243.38,14.09c-15.22,0-27.6,12.38-27.6,27.6s12.38,27.6,27.6,27.6c15.22,0,27.6-12.38,27.6-27.6
		S258.6,14.09,243.38,14.09 M243.38,71.94c-16.68,0-30.25-13.57-30.25-30.25c0-16.68,13.57-30.25,30.25-30.25
		c16.68,0,30.25,13.57,30.25,30.25C273.64,58.37,260.07,71.94,243.38,71.94"/>
	<path style="&st0;" d="M243.38,6.73c-19.27,0-34.95,15.68-34.95,34.95c0,19.27,15.68,34.95,34.95,34.95
		c19.27,0,34.95-15.68,34.95-34.95C278.34,22.41,262.66,6.73,243.38,6.73 M243.38,79.29c-20.74,0-37.61-16.87-37.61-37.61
		c0-20.74,16.87-37.61,37.61-37.61c20.74,0,37.61,16.87,37.61,37.61C280.99,62.42,264.12,79.29,243.38,79.29"/>
	<rect x="59.64" y="4.63" style="&st0;" width="2.69" height="73.65"/>
	<rect x="66.42" y="4.63" style="&st0;" width="2.69" height="73.65"/>
	<rect x="73.44" y="4.63" style="&st0;" width="2.69" height="73.65"/>
	<polygon style="&st0;" points="108.88,4.63 79.57,78.28 82.46,78.28 111.77,4.63 	"/>
	<polygon style="&st0;" points="116.84,4.63 87.53,78.28 90.43,78.28 119.74,4.63 	"/>
	<path style="&st0;" d="M126.92,50.96h-18.17l8.89-22.33L126.92,50.96z M129.81,57.93h-23.84l1.7-4.28h20.36L129.81,57.93z
		 M132.78,65.07h-29.65l1.77-4.45h26.03L132.78,65.07z M124.29,4.63L94.98,78.28h2.89l4.19-10.52h31.84l4.37,10.52h2.91
		l-22.05-53.05l-0.17,0.07l2.72-6.84l24.86,59.82h2.91l-26.35-63.4l2.66-6.69L154,78.28h2.9L127.24,4.63H124.29z"/>
	<rect x="159.23" y="4.63" style="&st0;" width="2.69" height="73.65"/>
	<rect x="166.01" y="4.63" style="&st0;" width="2.69" height="73.65"/>
	<path style="&st0;" d="M181.08,75.59h-5.43v-4.61h5.37c7.7,0,15.88-6.05,15.88-17.26c0-6.5-4-10.48-6.43-12.3
		c2.41-1.9,6.43-6.07,6.43-12.77c0-4.71-1.83-9.06-5.15-12.25c-2.92-2.81-6.79-4.49-10.35-4.49h-5.76V7.32h5.43
		c9.81,0,20.32,8.57,20.32,21.33c0,4.31-1.48,8.31-4.42,11.9l0.93,0.76l-0.93-0.75c-0.03,0.04-0.06,0.07-0.1,0.12l-0.85,1.05
		l1.05,0.85c0.17,0.14,4.31,3.57,4.31,11.69C201.4,67.02,190.9,75.59,181.08,75.59 M175.65,63.7h3.95c5.52,0,10-4.48,10-9.98
		c0-5.5-4.49-9.98-10-9.98h-3.95v-4.59h3.96c5.52,0,10.02-4.48,10.02-10c0-5.51-4.5-10-10.02-10h-3.96V14.6h5.76
		c5.23,0,12.8,5,12.8,14.05c0,7.76-6.53,11.47-6.81,11.62l-2.2,1.21l2.23,1.16c0.28,0.14,6.77,3.62,6.77,11.08
		c0,10.69-7.89,14.57-13.19,14.57h-5.37V63.7z M175.65,46.43h3.95c4.03,0,7.31,3.27,7.31,7.29c0,4.02-3.28,7.29-7.31,7.29h-3.95
		V46.43z M175.65,21.85h3.96c4.04,0,7.33,3.28,7.33,7.31c0,4.03-3.29,7.31-7.33,7.31h-3.96V21.85z M204.09,54.26
		c0-7.07-2.83-11.15-4.37-12.86c2.86-3.82,4.37-8.21,4.37-12.75c0-14.37-11.9-24.02-23.01-24.02h-5.43h-2.69v73.65h2.69h5.43
		C192.19,78.28,204.09,68.63,204.09,54.26"/>
	<rect x="9.63" y="4.63" style="&st0;" width="2.69" height="73.65"/>
	<rect x="16.4" y="4.63" style="&st0;" width="2.69" height="73.65"/>
	<path style="&st0;" d="M31.48,75.59h-5.43v-4.61h5.37c7.7,0,15.88-6.05,15.88-17.26c0-6.5-4-10.48-6.43-12.3
		c2.41-1.9,6.43-6.07,6.43-12.77c0-4.71-1.83-9.06-5.14-12.25c-2.92-2.81-6.79-4.49-10.35-4.49h-5.76V7.32h5.43
		c9.81,0,20.32,8.57,20.32,21.33c0,4.31-1.48,8.31-4.42,11.9l0.93,0.76l-0.93-0.75c-0.03,0.04-0.06,0.07-0.1,0.12l-0.85,1.05
		l1.05,0.85c0.18,0.14,4.31,3.57,4.31,11.69C51.8,67.02,41.29,75.59,31.48,75.59 M26.05,63.7H30c5.52,0,10-4.48,10-9.98
		c0-5.5-4.49-9.98-10-9.98h-3.95v-4.59h3.96c5.52,0,10.02-4.48,10.02-10c0-5.51-4.5-10-10.02-10h-3.96V14.6h5.76
		c5.23,0,12.8,5,12.8,14.05c0,7.76-6.53,11.47-6.81,11.62l-2.2,1.21l2.23,1.16c0.28,0.14,6.77,3.62,6.77,11.08
		c0,10.69-7.89,14.57-13.19,14.57h-5.37V63.7z M26.05,46.43H30c4.03,0,7.31,3.27,7.31,7.29c0,4.02-3.28,7.29-7.31,7.29h-3.95V46.43z
		 M26.05,21.85h3.96c4.04,0,7.33,3.28,7.33,7.31c0,4.03-3.29,7.31-7.33,7.31h-3.96V21.85z M54.49,54.26
		c0-7.07-2.83-11.15-4.37-12.86c2.86-3.82,4.37-8.21,4.37-12.75c0-14.37-11.9-24.02-23.01-24.02h-5.43h-2.69v73.65h2.69h5.43
		C42.59,78.28,54.49,68.63,54.49,54.26"/>
</g>
</svg>
