<?xml version="1.0" encoding="utf-8"?>
<!-- Generator: Adobe Illustrator 23.0.3, SVG Export Plug-In . SVG Version: 6.00 Build 0)  -->
<svg version="1.1" id="Capa_1" xmlns="http://www.w3.org/2000/svg" xmlns:xlink="http://www.w3.org/1999/xlink" x="0px" y="0px"
	 viewBox="0 0 190.9 167.1" style="enable-background:new 0 0 190.9 167.1;" xml:space="preserve">
<style type="text/css">
	.st0{fill:#FFFFFF;}
</style>
<g>
	<path class="st0" d="M20.6,106.8c-0.9-0.7-1.8-1.3-2.9-1.8c-1.1-0.4-2.2-0.6-3.4-0.6c-0.9,0-1.9,0.1-2.7,0.4
		c-0.9,0.3-1.7,0.6-2.4,1.1c-1.4,0.9-2.5,2-3.3,3.5s-1.3,3.1-1.3,4.8c0,0.9,0.1,1.9,0.4,2.7c0.2,0.9,0.6,1.7,1,2.4
		c0.9,1.4,2,2.5,3.5,3.4s3.1,1.3,4.8,1.3c1.2,0,2.3-0.1,3.2-0.4c0.9-0.2,1.7-0.5,2.2-0.8c0.3-0.1,0.5-0.3,0.7-0.4s0.3-0.2,0.3-0.2
		v-5.9h-5.4c-0.2,0-0.3,0-0.3-0.1s-0.1-0.2-0.1-0.3v-0.6c0-0.1,0-0.2,0.1-0.3c0.1-0.1,0.2-0.1,0.3-0.1h6.4c0.1,0,0.2,0,0.3,0.1
		c0.1,0.1,0.1,0.2,0.1,0.3v7.2c0,0.2,0,0.4-0.1,0.5s-0.2,0.2-0.3,0.3c-0.1,0.1-0.3,0.2-0.5,0.3c-0.2,0.1-0.5,0.3-0.9,0.4
		c-0.7,0.3-1.5,0.6-2.6,0.8c-1,0.3-2.2,0.4-3.5,0.4c-1.1,0-2.2-0.1-3.2-0.4s-1.9-0.7-2.8-1.2c-1.6-1-2.9-2.3-3.9-4s-1.5-3.5-1.5-5.6
		c0-1.1,0.2-2.2,0.5-3.2s0.7-1.9,1.2-2.8c1-1.6,2.3-2.9,4-3.9s3.5-1.5,5.6-1.5c1.4,0,2.7,0.2,3.8,0.6c1.1,0.4,2.2,1,3.1,1.8
		c0.7,0.5,1.2,1.1,1.3,1.6c0.1,0.2,0.1,0.4,0.1,0.6c0,0.3-0.1,0.5-0.2,0.7c-0.2,0.3-0.5,0.5-0.8,0.6s-0.6,0-1-0.2
		c-0.3-0.2-0.5-0.4-0.5-0.7c-0.1-0.3,0-0.6,0.2-1l0.1-0.1C20.5,106.9,20.5,106.8,20.6,106.8"/>
	<path class="st0" d="M58.3,125.2h-0.8c-0.1,0-0.2,0-0.3-0.1s-0.1-0.1-0.2-0.2c-0.6-1.3-1.4-3.2-2.5-5.7H46h-0.1h-0.1
		c0,0.1,0.1,0.2,0.1,0.3c0,0.1,0,0.2,0,0.3c0,0.4-0.2,0.7-0.4,0.9c-0.3,0.2-0.6,0.3-0.9,0.3c-0.4,0-0.7-0.2-0.9-0.4
		c-0.2-0.2-0.3-0.6-0.3-1c0-0.5,0.3-0.8,0.7-1.2c0.5-0.3,1.2-0.5,2.2-0.4H54c-1.2-2.8-3-7-5.3-12.6h-0.1c-1.9,4.3-4.7,10.9-8.5,19.6
		c0,0.1-0.1,0.1-0.2,0.2c-0.1,0.1-0.2,0.1-0.3,0.1h-0.9c-0.1,0-0.2,0-0.2-0.1v-0.1c0,0,0-0.1,0-0.2c2.1-4.8,5.3-12.1,9.6-21.7
		c0-0.1,0.1-0.1,0.2-0.2c0.1,0,0.1-0.1,0.2-0.1h0.1c0.1,0,0.2,0,0.2,0c0.1,0,0.1,0.1,0.2,0.2c2.1,4.8,5.3,12.1,9.5,21.7
		c0,0.1,0,0.1,0,0.2v0.1C58.5,125.2,58.4,125.2,58.3,125.2"/>
	<path class="st0" d="M89.1,124.6c0.1,0.1,0.1,0.3,0.1,0.4s-0.1,0.2-0.3,0.2h-1c-0.1,0-0.2,0-0.3-0.1c-0.1-0.1-0.1-0.1-0.2-0.2
		c-1-1.8-2.5-4.5-4.5-8.2c-0.2,0-0.4,0-0.6,0h-0.6h-2.4c0,0.1,0.1,0.2,0.1,0.2c0,0.1,0,0.2,0,0.2c0,0.4-0.2,0.7-0.4,0.9
		c-0.3,0.2-0.6,0.3-0.9,0.3c-0.4,0-0.7-0.1-0.9-0.4c-0.2-0.3-0.3-0.6-0.3-1s0.2-0.8,0.6-1.1c0.4-0.3,1-0.5,1.9-0.5h0.1l0,0l0,0h2.9
		c0.5,0,1-0.1,1.5-0.2s0.9-0.3,1.4-0.6c0.8-0.5,1.4-1.1,1.9-1.9s0.7-1.7,0.7-2.7s-0.2-1.9-0.7-2.6c-0.5-0.8-1.1-1.4-1.9-1.8
		c-0.4-0.2-0.9-0.4-1.4-0.6c-0.5-0.1-1-0.2-1.5-0.2h-6.5c0,4.5,0,11.1,0,20c0,0.1,0,0.2-0.1,0.3c-0.1,0.1-0.2,0.1-0.4,0.1H75
		c-0.1,0-0.2,0-0.3-0.1c-0.1-0.1-0.1-0.2-0.1-0.3v-7.9v-13.1c0-0.1,0-0.2,0.1-0.3c0.1-0.1,0.2-0.1,0.3-0.1h7.7
		c0.7,0,1.3,0.1,1.9,0.3c0.6,0.2,1.2,0.4,1.7,0.7c1,0.6,1.8,1.4,2.4,2.4s0.9,2.1,0.9,3.3c0,1.6-0.5,2.9-1.5,4.1s-2.2,2-3.7,2.4
		C85.6,118.4,87.1,121,89.1,124.6"/>
	<path class="st0" d="M124.2,114.3c0,1.1-0.1,2.1-0.4,3.1s-0.7,1.9-1.2,2.7c-1,1.6-2.3,2.8-3.9,3.7c-1.6,0.9-3.4,1.4-5.4,1.4h-1.6
		c-1,0-1.7-0.1-2.2-0.5c-0.5-0.3-0.7-0.7-0.7-1.2c0-0.4,0.1-0.7,0.3-1c0.2-0.2,0.5-0.4,0.9-0.4c0.3,0,0.6,0.1,0.9,0.3
		c0.3,0.2,0.4,0.5,0.4,0.9c0,0.1,0,0.2,0,0.2c0,0.1-0.1,0.1-0.1,0.2h1.9c1,0,1.9-0.1,2.7-0.4c0.9-0.2,1.7-0.6,2.4-1
		c1.4-0.8,2.5-2,3.3-3.4s1.2-3,1.2-4.8s-0.4-3.3-1.2-4.8c-0.8-1.4-1.9-2.6-3.3-3.4c-0.7-0.4-1.5-0.8-2.4-1s-1.8-0.4-2.7-0.4h-5.3
		v20.1c0,0.1,0,0.2-0.1,0.3c-0.1,0.1-0.2,0.1-0.3,0.1h-0.6c-0.1,0-0.2,0-0.3-0.1c-0.1-0.1-0.1-0.2-0.1-0.3v-7.9v-13.1
		c0-0.1,0-0.2,0.1-0.3c0.1-0.1,0.2-0.1,0.3-0.1h6.6c1.1,0,2.1,0.1,3.1,0.4s1.9,0.7,2.7,1.2c1.6,1,2.8,2.3,3.8,3.9
		C123.7,110.5,124.2,112.3,124.2,114.3"/>
	<path class="st0" d="M142.2,104.7v8.6h9.9c0.1,0,0.2,0,0.3,0.1s0.1,0.2,0.1,0.3v0.5c0,0.1,0,0.2-0.1,0.3c-0.1,0.1-0.2,0.1-0.3,0.1
		h-9.9v9.2h9.5c0-0.1-0.1-0.2-0.1-0.2c0-0.1,0-0.2,0-0.2c0-0.4,0.2-0.7,0.4-0.9c0.3-0.2,0.6-0.3,0.9-0.3c0.4,0,0.7,0.2,0.9,0.4
		c0.2,0.2,0.3,0.5,0.3,0.9v0.1c0,0.4-0.2,0.8-0.6,1.1c-0.4,0.3-1,0.5-1.9,0.5h-10.4c-0.1,0-0.2,0-0.3-0.1s-0.1-0.2-0.1-0.3v-7.9
		v-13.2c0-0.1,0-0.2,0.1-0.3c0.1-0.1,0.2-0.1,0.3-0.1h12.5c0.1,0,0.2,0,0.3,0.1s0.1,0.2,0.1,0.3v0.5c0,0.1,0,0.2-0.1,0.3
		c-0.1,0.1-0.2,0.1-0.3,0.1L142.2,104.7L142.2,104.7z"/>
	<path class="st0" d="M187.9,125.1c0,0.1-0.1,0.2-0.2,0.3c-0.1,0.1-0.2,0.1-0.3,0.1H187l-0.1-0.1c-0.1-0.1-0.2-0.3-0.6-0.7
		c-0.1-0.2-0.3-0.4-0.5-0.6s-0.4-0.6-0.7-0.9c-0.4-0.5-0.8-1.1-1.4-1.8c-0.6-0.7-1.2-1.6-2-2.6c-1.1-1.5-2.5-3.2-4.1-5.3
		c-1.6-2.1-3.5-4.6-5.7-7.6l0,0v19c0,0.1,0,0.2-0.1,0.3c-0.1,0.1-0.2,0.1-0.3,0.1h-0.6c-0.1,0-0.2,0-0.3-0.1s-0.1-0.2-0.1-0.3v-8
		v-13.3c0-0.1,0-0.2,0.1-0.3c0.1-0.1,0.2-0.1,0.3-0.1h0.5c3.3,4.3,8.3,10.8,15,19.5l0,0v-16.8c-0.1,0-0.1,0-0.2,0
		c-0.1,0-0.1,0-0.2,0c-0.4,0-0.7-0.2-0.9-0.5s-0.2-0.6-0.2-0.9c0-0.4,0.2-0.6,0.5-0.8c0.3-0.2,0.6-0.3,1-0.2c0.4,0,0.7,0.3,1,0.7
		c0.3,0.4,0.4,1,0.4,1.8v19.1H187.9z"/>
	<path class="st0" d="M60.8,164.4c-0.1,0.2-0.2,0.4-0.3,0.6c-0.1,0.2-0.3,0.3-0.5,0.5c-0.2,0.1-0.4,0.2-0.7,0.3
		c-0.2,0.1-0.5,0.1-0.8,0.1c-0.4,0-0.8-0.1-1.1-0.2c-0.3-0.1-0.6-0.3-0.8-0.6c-0.2-0.2-0.4-0.5-0.5-0.8s-0.2-0.7-0.2-1
		s0.1-0.7,0.2-1c0.1-0.3,0.3-0.6,0.5-0.8s0.5-0.4,0.8-0.6c0.3-0.1,0.7-0.2,1.1-0.2c0.3,0,0.7,0,0.9,0.1c0.3,0.1,0.5,0.2,0.7,0.4
		s0.4,0.3,0.5,0.6c0.1,0.2,0.2,0.4,0.3,0.7h-0.3c-0.1-0.2-0.1-0.4-0.2-0.6c-0.1-0.2-0.3-0.3-0.4-0.5c-0.2-0.1-0.4-0.2-0.6-0.3
		c-0.2-0.1-0.5-0.1-0.8-0.1c-0.4,0-0.7,0.1-1,0.2c-0.3,0.1-0.5,0.3-0.7,0.5s-0.3,0.5-0.4,0.7c-0.1,0.3-0.2,0.6-0.2,0.9
		c0,0.3,0.1,0.6,0.2,0.9c0.1,0.3,0.3,0.5,0.5,0.7s0.5,0.4,0.7,0.5c0.3,0.1,0.6,0.2,1,0.2c0.2,0,0.4,0,0.6-0.1
		c0.2-0.1,0.4-0.1,0.6-0.3c0.2-0.1,0.3-0.2,0.4-0.4c0.1-0.2,0.2-0.3,0.3-0.5h0.2V164.4z"/>
	<polygon class="st0" points="69.4,163.4 66.5,163.4 66.5,165.8 66.2,165.8 66.2,160.7 66.5,160.7 66.5,163.1 69.4,163.1 
		69.4,160.7 69.7,160.7 69.7,165.8 69.4,165.8 	"/>
	<path class="st0" d="M76.8,161.2l-1.1,3.3h2.2L76.8,161.2z M78.4,165.8l-0.4-1h-2.4l-0.4,1h-0.3l1.7-5.1H77l1.7,5.1H78.4z"/>
	<path class="st0" d="M88.4,164.4c-0.1,0.2-0.2,0.4-0.3,0.6c-0.1,0.2-0.3,0.3-0.5,0.5c-0.2,0.1-0.4,0.2-0.7,0.3
		c-0.2,0.1-0.5,0.1-0.8,0.1c-0.4,0-0.8-0.1-1.1-0.2c-0.3-0.1-0.6-0.3-0.8-0.6c-0.2-0.2-0.4-0.5-0.5-0.8s-0.2-0.7-0.2-1
		s0.1-0.7,0.2-1s0.3-0.6,0.5-0.8s0.5-0.4,0.8-0.6c0.3-0.1,0.7-0.2,1.1-0.2c0.3,0,0.7,0,0.9,0.1c0.3,0.1,0.5,0.2,0.7,0.4
		s0.4,0.3,0.5,0.6c0.1,0.2,0.2,0.4,0.3,0.7h-0.3c-0.1-0.2-0.1-0.4-0.3-0.6s-0.3-0.3-0.4-0.5c-0.2-0.1-0.4-0.2-0.6-0.3
		s-0.5-0.1-0.8-0.1c-0.4,0-0.7,0.1-0.9,0.2c-0.3,0.1-0.5,0.3-0.7,0.5s-0.3,0.5-0.4,0.7c-0.1,0.3-0.2,0.6-0.2,0.9
		c0,0.3,0.1,0.6,0.2,0.9c0.1,0.3,0.3,0.5,0.5,0.7s0.4,0.4,0.7,0.5c0.3,0.1,0.6,0.2,1,0.2c0.2,0,0.4,0,0.7-0.1
		c0.2-0.1,0.4-0.1,0.6-0.3c0.2-0.1,0.3-0.2,0.4-0.4s0.2-0.3,0.3-0.5h0.1V164.4z"/>
	<path class="st0" d="M95.1,161.2l-1.1,3.3h2.2L95.1,161.2z M96.6,165.8l-0.4-1h-2.4l-0.4,1h-0.3l1.7-5.1h0.3l1.7,5.1H96.6z"/>
	<path class="st0" d="M103.9,163.7c0.2,0,0.4,0,0.6-0.1s0.3-0.2,0.4-0.3s0.2-0.3,0.3-0.4c0.1-0.2,0.1-0.3,0.1-0.5s0-0.4-0.1-0.5
		c-0.1-0.2-0.2-0.3-0.3-0.4c-0.1-0.1-0.3-0.2-0.4-0.3c-0.2-0.1-0.3-0.1-0.6-0.1h-1.4v2.7L103.9,163.7L103.9,163.7z M102.2,160.7h1.7
		c0.3,0,0.5,0,0.7,0.1s0.4,0.2,0.5,0.4c0.1,0.1,0.3,0.3,0.3,0.5c0.1,0.2,0.1,0.4,0.1,0.6c0,0.2,0,0.4-0.1,0.5
		c-0.1,0.2-0.1,0.3-0.2,0.5c-0.1,0.1-0.2,0.3-0.4,0.4c-0.2,0.1-0.3,0.2-0.5,0.2l1.2,1.9h-0.4L104,164h-1.5v1.8h-0.3V160.7z"/>
	<rect x="111" y="160.7" class="st0" width="0.3" height="5.1"/>
	<polygon class="st0" points="119.3,165.5 119.3,165.8 117.1,165.8 117.1,160.7 117.4,160.7 117.4,165.5 	"/>
	<polygon class="st0" points="126.8,165.5 126.8,165.8 124.7,165.8 124.7,160.7 125,160.7 125,165.5 	"/>
	<path class="st0" d="M133.5,161.2l-1.1,3.3h2.2L133.5,161.2z M135,165.8l-0.4-1h-2.4l-0.4,1h-0.3l1.7-5.1h0.3l1.7,5.1H135z"/>
	<path class="st0" d="M115.1,62c0,10.6-8.4,19.2-18.9,19.6v-11c1.4,2,3.7,3.3,6.3,3.3c4.2,0,7.7-3.5,7.7-7.7c0-3.1-1.9-5.8-4.5-7
		c2.7-1.2,4.5-3.9,4.5-7s-1.9-5.8-4.5-7c2.7-1.2,4.5-3.9,4.5-7s-1.9-5.8-4.5-7c2.7-1.2,4.5-3.9,4.5-7c0-4.2-3.5-7.7-7.7-7.7v1.4
		c3.5,0,6.3,2.8,6.3,6.3s-2.8,6.3-6.3,6.3s-6.3-2.8-6.3-6.3v-9.7c1.4,2,3.7,3.3,6.3,3.3v-1.4c-3.5,0-6.3-2.8-6.3-6.3
		c0-3.4,2.8-6.3,6.2-6.3c7.4,2.8,12.7,10,12.7,18.4C115.1,22.2,115.1,62,115.1,62z M75.8,62V22.2c0-8.4,5.3-15.6,12.7-18.4
		c3.4,0.1,6.2,2.9,6.2,6.3c0,3.5-2.8,6.3-6.3,6.3c-4.2,0-7.7,3.5-7.7,7.7c0,3.1,1.9,5.8,4.5,7c-2.7,1.2-4.5,3.9-4.5,7s1.9,5.8,4.5,7
		c-2.7,1.2-4.5,3.9-4.5,7s1.9,5.8,4.5,7c-2.7,1.2-4.5,3.9-4.5,7c0,4.2,3.5,7.7,7.7,7.7c2.6,0,4.9-1.3,6.3-3.3v11
		C84.3,81.2,75.8,72.6,75.8,62 M88.4,30.5c-3.5,0-6.3-2.8-6.3-6.3s2.8-6.3,6.3-6.3c2.6,0,4.9-1.3,6.3-3.3v9.7
		C94.8,27.6,91.9,30.5,88.4,30.5 M96.1,38.2v-9.7c1.4,2,3.7,3.3,6.3,3.3c3.5,0,6.3,2.8,6.3,6.3s-2.8,6.3-6.3,6.3
		C99,44.5,96.1,41.7,96.1,38.2 M96.1,52.2v-9.7c1.4,2,3.7,3.3,6.3,3.3c3.5,0,6.3,2.8,6.3,6.3s-2.8,6.3-6.3,6.3
		C99,58.5,96.1,55.7,96.1,52.2 M96.1,56.6c1.4,2,3.7,3.3,6.3,3.3c3.5,0,6.3,2.8,6.3,6.3s-2.8,6.3-6.3,6.3s-6.3-2.8-6.3-6.3V56.6z
		 M94.8,56.6v9.7c0,3.5-2.8,6.3-6.3,6.3s-6.3-2.8-6.3-6.3S85,60,88.5,60C91.1,59.9,93.4,58.6,94.8,56.6 M88.4,44.5
		c-3.5,0-6.3-2.8-6.3-6.3s2.8-6.3,6.3-6.3c2.6,0,4.9-1.3,6.3-3.3v9.7C94.8,41.7,91.9,44.5,88.4,44.5 M94.8,42.5v9.7
		c0,3.5-2.8,6.3-6.3,6.3s-6.3-2.8-6.3-6.3s2.8-6.3,6.3-6.3C91.1,45.9,93.4,44.5,94.8,42.5 M99.6,3c-1.8,0.7-3.3,2.2-4.1,4
		c-0.8-1.8-2.3-3.2-4.1-4c1.3-0.3,2.7-0.4,4.1-0.4S98.3,2.7,99.6,3 M95.4,1.2c-11.6,0-21,9.4-21,21V62c0,11.6,9.4,21,21,21
		s21-9.4,21-21V22.2C116.4,10.6,107,1.2,95.4,1.2"/>
</g>
</svg>
