<?xml version="1.0" encoding="utf-8"?>
<!-- Generator: Adobe Illustrator 23.0.3, SVG Export Plug-In . SVG Version: 6.00 Build 0)  -->
<!DOCTYPE svg PUBLIC "-//W3C//DTD SVG 1.1//EN" "http://www.w3.org/Graphics/SVG/1.1/DTD/svg11.dtd" [
	<!ENTITY st0 "clip-path:url(#SVGID_2_);">
	<!ENTITY st1 "opacity:0.88;">
	<!ENTITY st2 "fill:none;">
	<!ENTITY st3 "opacity:8.000000e-02;">
	<!ENTITY st4 "fill:#FFFFFF;">
	<!ENTITY st5 "fill:#80C883;">
	<!ENTITY st6 "clip-path:url(#SVGID_6_);">
	<!ENTITY st7 "clip-path:url(#SVGID_8_);">
	<!ENTITY st8 "fill:#81C984;">
	<!ENTITY st9 "clip-path:url(#SVGID_10_);">
	<!ENTITY st10 "fill:#050C14;">
]>
<svg version="1.1" id="Capa_1" xmlns="http://www.w3.org/2000/svg" xmlns:xlink="http://www.w3.org/1999/xlink" x="0px" y="0px"
	 viewBox="0 0 183.5 118.5" style="enable-background:new 0 0 183.5 118.5;" xml:space="preserve">
<g id="Grupo_46_1_" transform="translate(996.094 827.158)">
	<g id="Grupo_44_2_">
		<rect id="Rectángulo_19_2_" x="-950.4" y="-746.8" style="&st10;" width="3.3" height="36.7"/>
		<path id="Trazado_65_2_" style="&st10;" d="M-932.7-746.8l-13.7,18.3l13.7,18.3h4l-13.9-18.3l13.9-18.3H-932.7z"/>
		<path id="Trazado_66_2_" style="&st10;" d="M-861.6-718.5l-0.3-1.6l-15.1-26.7h-1.7v36.7h3.3v-28.3l0.3,1.6l15.1,26.7h1.7v-36.7
			h-3.3L-861.6-718.5z"/>
		<path id="Trazado_67_2_" style="&st10;" d="M-824.8-746.8h-1.7l-10.6,36.7h3.4l2.4-8.5h11.5l2.4,8.5h3.4L-824.8-746.8z
			 M-830.5-721.8l4.8-16.9l0.1-1.4l0.1,1.4l4.8,16.9H-830.5z"/>
		<path id="Trazado_68_3_" style="&st10;" d="M-880.5-821.3v-4.4l-34.2,22.9l-34.8-23v4.4l34.8,23L-880.5-821.3z"/>
		<path id="Trazado_69_3_" style="&st10;" d="M-859.6-821.7v-4.4l-55.1,36.9l-34.8-23v4.4l34.8,23L-859.6-821.7z"/>
		<path id="Trazado_70_3_" style="&st10;" d="M-949.5-794l15.2,10.3v-4.4l-15.2-10.3l0,0L-949.5-794z"/>
		<path id="Trazado_71_3_" style="&st10;" d="M-913.5-815.5l-15.2-10.3v4.4l15.2,10.3V-815.5z"/>
		<path id="Trazado_72_3_" style="&st10;" d="M-859.6-798.4l-15.2,10.3v4.4l15.2-10.3V-798.4z"/>
		<path id="Trazado_73_3_" style="&st10;" d="M-859.9-812.4l-35.8,24.2v4.4l35.8-24.2V-812.4z"/>
		<path id="Trazado_74_2_" style="&st10;" d="M-903.8-728.3l-11.5-18.5h-4.1l13.8,22.2v14.5h3.8v-14.4l11.2-22.3h-3.9L-903.8-728.3z
			"/>
		<path id="Trazado_75_2_" style="&st10;" d="M-976.3-726.5c-0.8-0.8-1.7-1.4-2.7-1.9c-1-0.5-2.1-1-3.2-1.4s-2.1-0.9-3.1-1.3
			c-1-0.4-1.9-0.9-2.7-1.5c-0.8-0.5-1.4-1.2-1.9-2.1c-0.5-0.9-0.8-1.9-0.7-3v-0.7c0-0.8,0.1-1.6,0.5-2.3c0.3-0.7,0.7-1.3,1.3-1.9
			c0.5-0.5,1.2-1,1.8-1.3c0.7-0.3,1.5-0.5,2.3-0.5h2c0.8,0,1.5,0.2,2.3,0.5c0.7,0.3,1.3,0.7,1.8,1.3c0.5,0.5,0.9,1.2,1.2,1.9
			c0.3,0.7,0.5,1.5,0.5,2.3v1.5l3.3-0.5v-0.9c0-1.2-0.2-2.4-0.7-3.5c-0.4-1.1-1.1-2-1.9-2.9c-0.8-0.8-1.8-1.5-2.8-1.9
			c-1.1-0.5-2.3-0.7-3.5-0.7h-2.3c-1.2,0-2.4,0.2-3.5,0.7c-1.1,0.5-2,1.1-2.8,1.9c-0.8,0.8-1.5,1.8-1.9,2.9
			c-0.5,1.1-0.7,2.3-0.7,3.5v0.7c0,1.4,0.2,2.7,0.7,4c0.5,1,1.1,2,1.9,2.7c0.8,0.7,1.7,1.4,2.7,1.9c1,0.5,2.1,0.9,3.2,1.4
			c1.1,0.4,2.1,0.8,3.1,1.2c1,0.4,1.9,0.9,2.7,1.5c0.8,0.6,1.5,1.3,1.9,2.1c0.5,1,0.8,2,0.7,3.1v1.1c0,0.8-0.2,1.6-0.5,2.3
			c-0.3,0.7-0.8,1.3-1.3,1.9c-0.6,0.5-1.2,1-1.9,1.3c-0.7,0.3-1.5,0.5-2.3,0.5h-2.3c-0.8,0-1.6-0.2-2.3-0.5
			c-0.7-0.3-1.4-0.7-1.9-1.3c-0.6-0.5-1-1.2-1.3-1.9c-0.3-0.7-0.5-1.5-0.5-2.3v-2l-3.3,0.5v1.5c0,1.2,0.2,2.4,0.7,3.5
			c0.5,1.1,1.2,2,2,2.9c0.8,0.8,1.8,1.5,2.9,1.9c1.1,0.5,2.3,0.7,3.5,0.7h2.6c1.2,0,2.4-0.2,3.5-0.7c1.1-0.5,2.1-1.1,2.9-1.9
			c0.8-0.8,1.5-1.8,2-2.9c0.5-1.1,0.8-2.3,0.7-3.5v-1.1c0-1.4-0.2-2.7-0.7-4C-974.8-724.8-975.5-725.7-976.3-726.5z"/>
	</g>
</g>
</svg>
