<?xml version="1.0" encoding="utf-8"?>
<!-- Generator: Adobe Illustrator 23.0.3, SVG Export Plug-In . SVG Version: 6.00 Build 0)  -->
<svg version="1.1" id="Capa_1" xmlns="http://www.w3.org/2000/svg" xmlns:xlink="http://www.w3.org/1999/xlink" x="0px" y="0px"
	 viewBox="0 0 172 122.2" style="enable-background:new 0 0 172 122.2;" xml:space="preserve">
<style type="text/css">
	.st0{enable-background:new    ;}
	.st1{fill:#FFFFFF;}
</style>
<g class="st0">
	<path class="st1" d="M10.7,8.7h1.1v7.8c0,0.4,0.1,0.7,0.2,1.1c0.1,0.3,0.3,0.6,0.5,0.9s0.5,0.5,0.8,0.6s0.7,0.2,1.1,0.2
		c0.4,0,0.8-0.1,1.1-0.2s0.6-0.4,0.9-0.6s0.4-0.6,0.5-0.9s0.2-0.7,0.2-1.1V8.7h1.1v7.8c0,0.5-0.1,1-0.3,1.5
		c-0.2,0.5-0.4,0.9-0.8,1.2c-0.3,0.3-0.7,0.6-1.2,0.8c-0.5,0.2-1,0.3-1.6,0.3s-1.1-0.1-1.6-0.3c-0.5-0.2-0.9-0.5-1.2-0.8
		s-0.6-0.8-0.8-1.2c-0.2-0.5-0.3-1-0.3-1.5V8.7H10.7z"/>
	<path class="st1" d="M20.9,12.9H22v1.6c0.2-0.5,0.5-0.9,1-1.2s1-0.5,1.7-0.5c0.5,0,0.9,0.1,1.3,0.2c0.4,0.2,0.7,0.4,0.9,0.7
		c0.2,0.3,0.4,0.6,0.5,0.9c0.1,0.4,0.2,0.8,0.2,1.3v4.2h-1v-3.9c0-0.4,0-0.7-0.1-1s-0.2-0.6-0.4-0.8c-0.2-0.2-0.4-0.4-0.7-0.5
		c-0.3-0.1-0.6-0.2-0.9-0.2c-0.4,0-0.7,0.1-1,0.2c-0.3,0.2-0.5,0.4-0.7,0.6c-0.2,0.3-0.3,0.6-0.4,0.9c-0.1,0.3-0.1,0.7-0.1,1v3.7
		h-1.1v-7.2H20.9z"/>
	<path class="st1" d="M35.1,14.4c0.2-0.5,0.6-0.9,1.1-1.2s1.1-0.5,1.7-0.5c0.5,0,1.1,0.1,1.5,0.3c0.5,0.2,0.8,0.5,1.2,0.8
		c0.3,0.3,0.6,0.7,0.8,1.2s0.3,0.9,0.3,1.5c0,0.5-0.1,1-0.3,1.5s-0.4,0.9-0.8,1.2s-0.7,0.6-1.2,0.8c-0.5,0.2-1,0.3-1.5,0.3
		c-0.6,0-1.2-0.2-1.7-0.5s-0.9-0.7-1.1-1.3v5.7H34V12.9h1.1V14.4z M37.8,13.7c-0.4,0-0.8,0.1-1.1,0.2c-0.3,0.2-0.6,0.4-0.9,0.6
		s-0.4,0.6-0.5,0.9c-0.1,0.3-0.2,0.7-0.2,1.1c0,0.4,0.1,0.7,0.2,1.1c0.1,0.3,0.3,0.6,0.5,0.9s0.5,0.5,0.9,0.6s0.7,0.2,1.1,0.2
		c0.4,0,0.8-0.1,1.1-0.2s0.6-0.4,0.8-0.6s0.4-0.6,0.5-0.9s0.2-0.7,0.2-1.1c0-0.4-0.1-0.7-0.2-1.1c-0.1-0.3-0.3-0.6-0.5-0.9
		s-0.5-0.5-0.8-0.6C38.6,13.7,38.3,13.7,37.8,13.7z"/>
	<path class="st1" d="M47.9,13.9c-0.1,0-0.3-0.1-0.3-0.1c-0.1,0-0.2,0-0.3,0c-0.4,0-0.8,0.1-1.1,0.3s-0.6,0.4-0.8,0.7
		s-0.4,0.6-0.5,1s-0.2,0.8-0.2,1.2v3.2h-1.1V13h1.1v1.7c0.2-0.6,0.6-1,1-1.3c0.5-0.3,1-0.5,1.5-0.5c0.1,0,0.3,0,0.4,0
		c0.1,0,0.2,0,0.3,0.1C47.9,13,47.9,13.9,47.9,13.9z"/>
	<path class="st1" d="M52.1,20.3c-0.6,0-1.1-0.1-1.5-0.3s-0.9-0.5-1.2-0.8s-0.6-0.8-0.8-1.2s-0.3-0.9-0.3-1.5c0-0.5,0.1-1,0.3-1.5
		s0.4-0.9,0.8-1.2c0.3-0.3,0.7-0.6,1.2-0.8s1-0.3,1.5-0.3c0.6,0,1.1,0.1,1.6,0.3s0.9,0.5,1.2,0.8s0.6,0.7,0.8,1.2s0.3,1,0.3,1.5
		c0,0.5-0.1,1-0.3,1.5s-0.4,0.9-0.8,1.2c-0.3,0.3-0.7,0.6-1.2,0.8C53.2,20.2,52.6,20.3,52.1,20.3z M52.1,19.3c0.4,0,0.8-0.1,1.1-0.2
		s0.6-0.4,0.9-0.6s0.4-0.6,0.5-0.9s0.2-0.7,0.2-1.1c0-0.4-0.1-0.7-0.2-1.1c-0.1-0.3-0.3-0.6-0.5-0.9s-0.5-0.5-0.9-0.6
		c-0.3-0.2-0.7-0.2-1.1-0.2c-0.4,0-0.8,0.1-1.1,0.2c-0.3,0.2-0.6,0.4-0.8,0.6s-0.4,0.6-0.5,0.9c-0.1,0.3-0.2,0.7-0.2,1.1
		c0,0.4,0.1,0.7,0.2,1.1c0.1,0.3,0.3,0.6,0.5,0.9s0.5,0.5,0.8,0.6S51.7,19.3,52.1,19.3z"/>
	<path class="st1" d="M61.1,24.5c-2.2,0-3.3-1.1-3.3-3.3h1.1c0,0.8,0.2,1.4,0.6,1.8c0.4,0.4,0.9,0.6,1.7,0.6c0.4,0,0.7,0,1-0.1
		s0.5-0.2,0.7-0.4c0.2-0.2,0.3-0.5,0.4-0.8c0.1-0.3,0.2-0.7,0.2-1.2v-2.4c-0.2,0.5-0.5,0.9-1,1.2c-0.5,0.3-1,0.5-1.7,0.5
		c-0.5,0-1-0.1-1.3-0.2c-0.3-0.2-0.6-0.4-0.9-0.7c-0.2-0.3-0.4-0.6-0.5-1S58,17.7,58,17.1v-4.2h1v3.9c0,0.4,0,0.7,0.1,1.1
		s0.2,0.6,0.3,0.8c0.2,0.2,0.4,0.4,0.6,0.5c0.3,0.1,0.6,0.2,1,0.2s0.7-0.1,1-0.2c0.3-0.2,0.5-0.4,0.7-0.6c0.2-0.3,0.3-0.6,0.4-0.9
		s0.1-0.7,0.1-1V13h1v8.1c0,1.2-0.3,2.1-0.8,2.7C63,24.2,62.2,24.5,61.1,24.5z"/>
	<path class="st1" d="M67.5,16.7c0,0.3,0.1,0.7,0.2,1s0.2,0.6,0.5,0.8c0.2,0.2,0.5,0.4,0.8,0.6s0.7,0.2,1.1,0.2
		c0.6,0,1.1-0.1,1.4-0.4s0.6-0.6,0.7-0.9h1.1c-0.1,0.3-0.2,0.6-0.4,0.8c-0.2,0.3-0.4,0.5-0.7,0.7s-0.6,0.4-0.9,0.5s-0.8,0.2-1.2,0.2
		c-0.6,0-1.1-0.1-1.6-0.3s-0.8-0.5-1.1-0.8s-0.5-0.8-0.7-1.2c-0.1-0.5-0.2-1-0.2-1.5c0-0.5,0.1-1,0.2-1.5c0.2-0.5,0.4-0.9,0.7-1.2
		c0.3-0.3,0.7-0.6,1.1-0.8s0.9-0.3,1.5-0.3c0.5,0,0.9,0.1,1.3,0.2c0.4,0.2,0.8,0.4,1,0.7c0.3,0.3,0.5,0.6,0.7,1s0.3,0.8,0.3,1.3
		c0,0.1,0,0.2,0,0.3s0,0.3,0,0.4h-5.8V16.7z M70,13.5c-0.7,0-1.3,0.2-1.7,0.6c-0.4,0.4-0.7,1-0.7,1.7h4.7c0-0.4-0.1-0.7-0.2-1
		s-0.3-0.5-0.5-0.7s-0.5-0.4-0.7-0.5S70.3,13.5,70,13.5z"/>
	<path class="st1" d="M80.7,15.5c0-0.3-0.1-0.5-0.2-0.7s-0.2-0.4-0.4-0.6c-0.2-0.2-0.4-0.3-0.7-0.4c-0.3-0.1-0.6-0.1-1-0.1
		s-0.8,0.1-1.1,0.2c-0.3,0.2-0.6,0.4-0.8,0.6c-0.2,0.3-0.4,0.6-0.5,0.9c-0.1,0.3-0.2,0.7-0.2,1.1s0.1,0.7,0.2,1.1
		c0.1,0.3,0.3,0.6,0.5,0.9s0.5,0.5,0.8,0.6c0.3,0.2,0.7,0.2,1.1,0.2c0.7,0,1.2-0.2,1.6-0.5c0.3-0.3,0.6-0.7,0.7-1.2h1.1
		c-0.1,0.4-0.2,0.7-0.3,1c-0.2,0.3-0.4,0.6-0.7,0.8c-0.3,0.2-0.6,0.4-1,0.6c-0.4,0.1-0.9,0.2-1.4,0.2c-0.6,0-1.1-0.1-1.5-0.3
		s-0.8-0.5-1.1-0.8s-0.5-0.8-0.7-1.2c-0.2-0.5-0.2-0.9-0.2-1.4c0-0.5,0.1-1,0.2-1.4s0.4-0.9,0.7-1.2s0.7-0.6,1.1-0.8s1-0.3,1.5-0.3
		c0.6,0,1.1,0.1,1.5,0.2c0.4,0.2,0.7,0.4,1,0.6c0.3,0.3,0.5,0.6,0.6,0.9c0.1,0.3,0.2,0.7,0.3,1C81.8,15.5,80.7,15.5,80.7,15.5z"/>
	<path class="st1" d="M87.7,20.1c-0.1,0-0.3,0-0.5,0.1c-0.2,0-0.4,0-0.7,0c-0.2,0-0.5,0-0.7-0.1c-0.3,0-0.5-0.1-0.7-0.3
		c-0.2-0.2-0.4-0.4-0.5-0.8c-0.1-0.3-0.2-0.8-0.2-1.4v-3.9H83v-0.9h1.4v-2.6h1.1v2.7h2.1v0.9h-2.1v3.7c0,0.4,0,0.7,0.1,0.9
		c0.1,0.2,0.2,0.4,0.3,0.5c0.1,0.1,0.3,0.2,0.4,0.2c0.2,0,0.3,0.1,0.5,0.1s0.3,0,0.5,0s0.4,0,0.5-0.1v1H87.7z"/>
	<path class="st1" d="M92.2,20.3c-0.6,0-1.1-0.1-1.5-0.3s-0.9-0.5-1.2-0.8c-0.3-0.3-0.6-0.8-0.8-1.2s-0.3-0.9-0.3-1.5
		c0-0.5,0.1-1,0.3-1.5s0.4-0.9,0.8-1.2c0.3-0.3,0.7-0.6,1.2-0.8s1-0.3,1.5-0.3c0.6,0,1.1,0.1,1.6,0.3s0.9,0.5,1.2,0.8
		c0.3,0.3,0.6,0.7,0.8,1.2s0.3,1,0.3,1.5c0,0.5-0.1,1-0.3,1.5s-0.4,0.9-0.8,1.2c-0.3,0.3-0.7,0.6-1.2,0.8
		C93.3,20.2,92.8,20.3,92.2,20.3z M92.2,19.3c0.4,0,0.8-0.1,1.1-0.2s0.6-0.4,0.9-0.6s0.4-0.6,0.5-0.9s0.2-0.7,0.2-1.1
		c0-0.4-0.1-0.7-0.2-1.1c-0.1-0.3-0.3-0.6-0.5-0.9s-0.5-0.5-0.9-0.6c-0.3-0.2-0.7-0.2-1.1-0.2s-0.8,0.1-1.1,0.2
		c-0.3,0.2-0.6,0.4-0.8,0.6s-0.4,0.6-0.5,0.9c-0.1,0.3-0.2,0.7-0.2,1.1c0,0.4,0.1,0.7,0.2,1.1c0.1,0.3,0.3,0.6,0.5,0.9
		s0.5,0.5,0.8,0.6S91.8,19.3,92.2,19.3z"/>
	<path class="st1" d="M108,18.6c-0.2,0.5-0.6,0.9-1.1,1.2c-0.5,0.3-1.1,0.5-1.7,0.5c-0.5,0-1.1-0.1-1.5-0.3s-0.8-0.5-1.2-0.8
		s-0.6-0.8-0.8-1.2s-0.3-0.9-0.3-1.5c0-0.5,0.1-1,0.3-1.5s0.4-0.9,0.8-1.2c0.3-0.3,0.7-0.6,1.2-0.8s1-0.3,1.5-0.3
		c0.6,0,1.2,0.2,1.7,0.5s0.9,0.7,1.1,1.2V8.7h1.1v11.4H108V18.6z M105.3,19.3c0.4,0,0.8-0.1,1.1-0.2s0.6-0.4,0.9-0.6
		s0.4-0.6,0.5-0.9s0.2-0.7,0.2-1.1c0-0.4-0.1-0.7-0.2-1.1c-0.1-0.3-0.3-0.6-0.5-0.9s-0.5-0.5-0.9-0.6c-0.3-0.2-0.7-0.2-1.1-0.2
		s-0.8,0.1-1.1,0.2c-0.3,0.2-0.6,0.4-0.8,0.6s-0.4,0.6-0.5,0.9c-0.1,0.3-0.2,0.7-0.2,1.1c0,0.4,0.1,0.7,0.2,1.1
		c0.1,0.3,0.3,0.6,0.5,0.9s0.5,0.5,0.8,0.6S104.9,19.3,105.3,19.3z"/>
	<path class="st1" d="M112.2,16.7c0,0.3,0.1,0.7,0.2,1s0.2,0.6,0.5,0.8c0.2,0.2,0.5,0.4,0.8,0.6s0.7,0.2,1.1,0.2
		c0.6,0,1.1-0.1,1.4-0.4s0.6-0.6,0.7-0.9h1.1c-0.1,0.3-0.2,0.6-0.4,0.8c-0.2,0.3-0.4,0.5-0.7,0.7s-0.6,0.4-0.9,0.5s-0.8,0.2-1.2,0.2
		c-0.6,0-1.1-0.1-1.6-0.3s-0.8-0.5-1.1-0.8s-0.5-0.8-0.7-1.2c-0.1-0.5-0.2-1-0.2-1.5c0-0.5,0.1-1,0.2-1.5c0.2-0.5,0.4-0.9,0.7-1.2
		c0.3-0.3,0.7-0.6,1.1-0.8s0.9-0.3,1.5-0.3c0.5,0,0.9,0.1,1.3,0.2c0.4,0.2,0.8,0.4,1,0.7c0.3,0.3,0.5,0.6,0.7,1s0.3,0.8,0.3,1.3
		c0,0.1,0,0.2,0,0.3s0,0.3,0,0.4h-5.8V16.7z M114.6,13.5c-0.7,0-1.3,0.2-1.7,0.6c-0.4,0.4-0.7,1-0.7,1.7h4.7c0-0.4-0.1-0.7-0.2-1
		s-0.3-0.5-0.5-0.7s-0.5-0.4-0.7-0.5S115,13.5,114.6,13.5z"/>
	<path class="st1" d="M119.7,13.7c0-0.3,0.1-0.5,0.3-0.7c0.2-0.2,0.4-0.3,0.7-0.3c0.3,0,0.5,0.1,0.7,0.3s0.3,0.4,0.3,0.7
		s-0.1,0.5-0.3,0.7c-0.2,0.2-0.4,0.3-0.7,0.3c-0.3,0-0.5-0.1-0.7-0.3S119.7,13.9,119.7,13.7z M119.7,19.2c0-0.3,0.1-0.5,0.3-0.7
		c0.2-0.2,0.4-0.3,0.7-0.3c0.3,0,0.5,0.1,0.7,0.3c0.2,0.2,0.3,0.4,0.3,0.7c0,0.3-0.1,0.5-0.3,0.7c-0.2,0.2-0.4,0.3-0.7,0.3
		c-0.3,0-0.5-0.1-0.7-0.3C119.8,19.7,119.7,19.5,119.7,19.2z"/>
</g>
<g id="Grupo_12">
	<path id="Trazado_27" class="st1" d="M10.5,106.1h1.4v7.5h-1.4V106.1z M10.1,103.3c0-0.3,0.1-0.6,0.3-0.8c0.2-0.2,0.5-0.3,0.8-0.3
		c0.6,0,1.1,0.5,1.2,1.2c0,0.3-0.1,0.6-0.3,0.8c-0.2,0.2-0.5,0.3-0.8,0.3C10.6,104.4,10.1,103.9,10.1,103.3L10.1,103.3"/>
	<path id="Trazado_28" class="st1" d="M14.4,106.1h1.4v1.3c0.2-0.5,0.6-0.8,1-1.1c0.5-0.3,1-0.4,1.6-0.4c0.5,0,0.9,0.1,1.3,0.3
		c0.4,0.2,0.7,0.4,0.9,0.7c0.2,0.3,0.4,0.6,0.4,1c0.1,0.4,0.1,0.9,0.1,1.3v4.4h-1.4v-4c0-0.3,0-0.6-0.1-1c-0.1-0.3-0.2-0.5-0.3-0.8
		c-0.1-0.2-0.3-0.4-0.6-0.5c-0.1-0.1-0.5-0.1-0.8-0.1c-0.3,0-0.6,0.1-0.9,0.2s-0.5,0.3-0.7,0.6c-0.2,0.2-0.3,0.5-0.4,0.8
		c-0.1,0.3-0.1,0.6-0.1,1v3.8h-1.4V106.1z"/>
	<path id="Trazado_29" class="st1" d="M33.2,113.6v-4.3c0-0.6-0.1-1.1-0.4-1.6c-0.3-0.4-0.7-0.6-1.2-0.5c-0.5,0-1,0.2-1.3,0.6
		c-0.4,0.6-0.5,1.3-0.5,2v3.8h-1.4v-4.2c0-0.6-0.1-1.2-0.4-1.7c-0.3-0.4-0.7-0.6-1.1-0.5c-0.5,0-1,0.2-1.3,0.6
		c-0.4,0.6-0.6,1.3-0.5,2v3.8h-1.4v-7.5H25v1.3c0.1-0.4,0.4-0.8,0.8-1.1c0.4-0.3,0.9-0.5,1.4-0.5c0.6,0,1.1,0.1,1.6,0.4
		c0.4,0.3,0.7,0.7,0.8,1.2c0.1-0.2,0.2-0.4,0.3-0.6c0.2-0.2,0.3-0.4,0.5-0.5s0.4-0.3,0.7-0.3c0.3-0.1,0.5-0.1,0.8-0.1
		c0.4,0,0.8,0.1,1.2,0.2c0.3,0.1,0.6,0.4,0.8,0.6c0.2,0.3,0.4,0.6,0.4,0.9c0.1,0.4,0.1,0.8,0.1,1.1v4.7L33.2,113.6z"/>
	<path id="Trazado_30" class="st1" d="M40.3,112.5c0.7,0,1.3-0.3,1.8-0.8c0.2-0.2,0.4-0.5,0.5-0.8c0.2-0.7,0.2-1.4,0-2
		c-0.1-0.3-0.3-0.6-0.5-0.8c-0.2-0.2-0.5-0.4-0.8-0.6c-0.3-0.1-0.7-0.2-1-0.2c-0.4,0-0.7,0.1-1,0.2s-0.6,0.3-0.8,0.6
		c-0.2,0.2-0.4,0.5-0.5,0.8c-0.2,0.7-0.2,1.4,0,2c0.1,0.3,0.3,0.6,0.5,0.8C38.9,112.2,39.6,112.5,40.3,112.5 M40.3,113.8
		c-0.5,0-1.1-0.1-1.6-0.3c-0.5-0.2-0.9-0.5-1.2-0.9s-0.6-0.8-0.8-1.2c-0.2-0.5-0.3-1-0.3-1.5s0.1-1,0.3-1.5s0.4-0.9,0.8-1.3
		c0.3-0.4,0.8-0.7,1.2-0.9c0.5-0.2,1-0.3,1.6-0.3s1.1,0.1,1.6,0.3c0.5,0.2,0.9,0.5,1.2,0.9s0.6,0.8,0.8,1.3s0.3,1,0.3,1.5
		s-0.1,1-0.3,1.5s-0.4,0.9-0.8,1.2c-0.3,0.4-0.8,0.7-1.2,0.9C41.4,113.7,40.8,113.8,40.3,113.8"/>
	<path id="Trazado_31" class="st1" d="M50,112.5c0.7,0,1.3-0.3,1.8-0.8c0.2-0.2,0.4-0.5,0.5-0.8c0.2-0.7,0.2-1.4,0-2
		c-0.1-0.3-0.3-0.6-0.5-0.8c-0.2-0.2-0.5-0.4-0.8-0.6c-0.3-0.1-0.7-0.2-1-0.2c-0.4,0-0.7,0.1-1,0.2s-0.6,0.3-0.8,0.6
		c-0.2,0.2-0.4,0.5-0.5,0.8c-0.2,0.7-0.2,1.4,0,2c0.1,0.3,0.3,0.6,0.5,0.8c0.2,0.2,0.5,0.4,0.8,0.6C49.3,112.4,49.7,112.5,50,112.5
		 M47.5,113.6h-1.4v-11.5h1.4v5.3c0.2-0.5,0.6-0.8,1.1-1.1c0.5-0.3,1-0.4,1.5-0.4s1.1,0.1,1.6,0.3c0.5,0.2,0.9,0.5,1.2,0.9
		s0.6,0.8,0.8,1.3s0.3,1,0.3,1.5s-0.1,1-0.3,1.5s-0.4,0.9-0.8,1.2c-0.3,0.4-0.7,0.7-1.2,0.9c-0.5,0.2-1,0.3-1.6,0.3
		c-0.5,0-1-0.1-1.5-0.4c-0.5-0.2-0.8-0.6-1.1-1.1V113.6z"/>
	<path id="Trazado_32" class="st1" d="M55.8,106.1h1.4v7.5h-1.4V106.1z M55.4,103.3c0-0.3,0.1-0.6,0.3-0.8c0.2-0.2,0.5-0.4,0.8-0.3
		c0.6,0,1.1,0.5,1.2,1.2c0,0.3-0.1,0.6-0.3,0.8c-0.2,0.2-0.5,0.3-0.8,0.3C55.9,104.4,55.4,103.9,55.4,103.3L55.4,103.3"/>
	<rect id="Rectángulo_5" x="59.8" y="102.1" class="st1" width="1.4" height="11.5"/>
	<path id="Trazado_33" class="st1" d="M63.7,106.1h1.4v7.5h-1.4C63.7,113.6,63.7,106.1,63.7,106.1z M63.3,103.3
		c0-0.3,0.1-0.6,0.3-0.8c0.2-0.2,0.5-0.4,0.8-0.3c0.6,0,1.1,0.5,1.2,1.2c0,0.3-0.1,0.6-0.3,0.8c-0.2,0.2-0.5,0.3-0.8,0.3
		C63.8,104.4,63.3,103.9,63.3,103.3L63.3,103.3"/>
	<path id="Trazado_34" class="st1" d="M70.9,112.5c0.4,0,0.7-0.1,1-0.2s0.6-0.3,0.8-0.6c0.2-0.2,0.4-0.5,0.5-0.8
		c0.2-0.7,0.2-1.4,0-2c-0.1-0.3-0.3-0.6-0.5-0.8c-0.2-0.2-0.5-0.4-0.8-0.6c-0.3-0.1-0.7-0.2-1-0.2c-0.4,0-0.7,0.1-1,0.2
		s-0.6,0.3-0.8,0.6c-0.2,0.2-0.4,0.5-0.5,0.8c-0.2,0.7-0.2,1.4,0,2c0.1,0.3,0.3,0.6,0.5,0.8c0.2,0.2,0.5,0.4,0.8,0.6
		C70.2,112.4,70.6,112.5,70.9,112.5 M74.8,106.1v7.5h-1.4v-1.3c-0.2,0.5-0.6,0.8-1.1,1.1c-0.5,0.3-1,0.4-1.5,0.4s-1.1-0.1-1.5-0.3
		c-0.5-0.2-0.9-0.5-1.2-0.9c-0.3-0.4-0.6-0.8-0.8-1.2c-0.2-0.5-0.3-1-0.3-1.5s0.1-1,0.3-1.5c0.2-0.5,0.4-0.9,0.8-1.3
		c0.3-0.4,0.7-0.7,1.2-0.9c0.5-0.2,1-0.3,1.5-0.3s1.1,0.1,1.5,0.4c0.5,0.2,0.8,0.6,1.1,1.1v-1.3L74.8,106.1z"/>
	<path id="Trazado_35" class="st1" d="M81.9,107.4c-0.2,0-0.3-0.1-0.4-0.1s-0.2,0-0.3,0c-0.7-0.1-1.4,0.3-1.8,0.8
		c-0.4,0.6-0.6,1.4-0.6,2.2v3.3h-1.4v-7.5h1.4v1.5c0.2-0.5,0.5-0.9,1-1.1c0.4-0.3,0.9-0.4,1.5-0.4c0.2,0,0.5,0,0.7,0.1L81.9,107.4z"
		/>
	<path id="Trazado_36" class="st1" d="M83.3,106.1h1.4v7.5h-1.4V106.1z M82.9,103.3c0-0.3,0.1-0.6,0.3-0.8c0.2-0.2,0.5-0.4,0.8-0.3
		c0.6,0,1.1,0.5,1.2,1.2c0,0.3-0.1,0.6-0.3,0.8c-0.2,0.2-0.5,0.3-0.8,0.3C83.4,104.4,82.9,103.9,82.9,103.3L82.9,103.3"/>
	<path id="Trazado_37" class="st1" d="M90.5,112.5c0.4,0,0.7-0.1,1-0.2s0.6-0.3,0.8-0.6c0.2-0.2,0.4-0.5,0.5-0.8
		c0.2-0.7,0.2-1.4,0-2c-0.1-0.3-0.3-0.6-0.5-0.8c-0.2-0.2-0.5-0.4-0.8-0.6c-0.3-0.1-0.7-0.2-1-0.2c-0.4,0-0.7,0.1-1,0.2
		s-0.6,0.3-0.8,0.6c-0.2,0.2-0.4,0.5-0.5,0.8c-0.2,0.7-0.2,1.4,0,2c0.1,0.3,0.3,0.6,0.5,0.8c0.2,0.2,0.5,0.4,0.8,0.6
		C89.8,112.4,90.2,112.5,90.5,112.5 M94.4,106.1v7.5H93v-1.3c-0.2,0.5-0.6,0.8-1.1,1.1c-0.5,0.3-1,0.4-1.5,0.4s-1.1-0.1-1.5-0.3
		c-0.5-0.2-0.9-0.5-1.2-0.9c-0.3-0.4-0.6-0.8-0.8-1.2c-0.2-0.5-0.3-1-0.3-1.5s0.1-1,0.3-1.5c0.2-0.5,0.4-0.9,0.8-1.3
		c0.3-0.4,0.7-0.7,1.2-0.9c0.5-0.2,1-0.3,1.5-0.3s1.1,0.1,1.5,0.4c0.5,0.2,0.8,0.6,1.1,1.1v-1.3L94.4,106.1z"/>
	<path id="Trazado_38" class="st1" d="M141.6,58c-6.4,0-11.6,5.2-11.6,11.7s5.2,11.7,11.6,11.7c6.4,0,11.6-5.2,11.6-11.7l0,0
		C153.2,63.3,148,58,141.6,58 M141.6,82.9c-7.2,0-13.1-5.9-13.1-13.2s5.9-13.2,13.1-13.2c7.2,0,13.1,5.9,13.1,13.2
		C154.7,77,148.8,82.9,141.6,82.9"/>
	<path id="Trazado_39" class="st1" d="M141.6,54c-8.6,0-15.5,7-15.5,15.7s7,15.7,15.5,15.7c8.6,0,15.5-7,15.5-15.7l0,0
		C157.1,61.1,150.2,54,141.6,54 M141.6,86.9c-9.4,0-17-7.7-17-17.2s7.6-17.2,17-17.2s17,7.7,17,17.2S151,86.9,141.6,86.9"/>
	<path id="Trazado_40" class="st1" d="M141.6,49.8c-10.9,0-19.7,8.9-19.7,19.9s8.8,19.9,19.7,19.9s19.7-8.9,19.7-19.9
		S152.5,49.8,141.6,49.8 M141.6,91.1c-11.7,0-21.2-9.6-21.2-21.4s9.5-21.4,21.2-21.4s21.2,9.6,21.2,21.4
		C162.7,81.5,153.3,91.1,141.6,91.1"/>
	<rect id="Rectángulo_6" x="38.2" y="48.6" class="st1" width="1.5" height="41.9"/>
	<rect id="Rectángulo_7" x="42" y="48.6" class="st1" width="1.5" height="41.9"/>
	<rect id="Rectángulo_8" x="46" y="48.6" class="st1" width="1.5" height="41.9"/>
	<path id="Trazado_41" class="st1" d="M65.9,48.6L49.4,90.5H51l16.5-41.9H65.9z"/>
	<path id="Trazado_42" class="st1" d="M70.4,48.6L53.9,90.5h1.6L72,48.6H70.4z"/>
	<path id="Trazado_43" class="st1" d="M76.1,75H65.8l5-12.7L76.1,75z M77.7,79H64.3l1-2.4h11.5L77.7,79z M79.4,83H62.7l1-2.5h14.6
		L79.4,83z M74.6,48.6L58.1,90.5h1.6l2.4-6H80l2.5,6h1.6L71.7,60.4h-0.1l1.5-3.9l14,34h1.6l-14.8-36l1.5-3.8l15.9,39.9h1.6l-16.7-42
		H74.6z"/>
	<rect id="Rectángulo_9" x="94.3" y="48.6" class="st1" width="1.5" height="41.9"/>
	<rect id="Rectángulo_10" x="98.1" y="48.6" class="st1" width="1.5" height="41.9"/>
	<path id="Trazado_44" class="st1" d="M106.5,89h-3.1v-2.6h3c4.3,0,8.9-3.4,8.9-9.8c0-2.8-1.4-5.4-3.6-7c2.3-1.7,3.6-4.4,3.6-7.3
		c0-2.6-1-5.1-2.9-7c-1.6-1.6-3.6-2.5-5.8-2.6h-3.2v-2.5h3.1c6.4,0.2,11.5,5.6,11.4,12.1c0,2.5-0.9,4.9-2.5,6.8l0.5,0.4l-0.5-0.4
		c0,0,0,0-0.1,0.1l-0.5,0.6l0.6,0.5c0.1,0.1,2.4,2,2.4,6.6C118,83.4,113,88.8,106.5,89 M103.5,82.2h2.2c3.1,0,5.6-2.5,5.7-5.6
		c0-3.1-2.4-5.7-5.5-5.8h-0.1h-2.2v-2.6h2.2c3.1,0,5.7-2.5,5.7-5.6s-2.4-5.7-5.5-5.8h-0.1h-2.2v-2.6h3.2c4.3,0.3,7.5,4.1,7.2,8.4
		c-0.2,2.6-1.6,4.9-3.8,6.2l-1.2,0.7l1.3,0.7c2.3,1.3,3.7,3.7,3.8,6.3c0,6.1-4.4,8.3-7.4,8.3h-3v-2.6H103.5z M103.5,72.4h2.2
		c2.3,0,4.1,1.9,4.1,4.1c0,2.3-1.8,4.1-4.1,4.1l0,0h-2.2V72.4z M103.5,58.4h2.2c2.3,0,4.1,1.8,4.2,4.1c0,2.3-1.8,4.2-4,4.2h-0.1
		h-2.2L103.5,58.4L103.5,58.4z M119.5,76.9c0.1-2.7-0.8-5.3-2.5-7.3c1.6-2.1,2.4-4.6,2.5-7.3c0.1-7.3-5.7-13.4-12.9-13.7H102v41.9
		h4.6C113.8,90.3,119.5,84.2,119.5,76.9"/>
	<rect id="Rectángulo_11" x="10.1" y="48.6" class="st1" width="1.5" height="41.9"/>
	<rect id="Rectángulo_12" x="13.9" y="48.6" class="st1" width="1.5" height="41.9"/>
	<path id="Trazado_45" class="st1" d="M22.4,89h-3.1v-2.6h3c4.3,0,8.9-3.4,8.9-9.8c0-2.8-1.4-5.4-3.6-7c2.3-1.7,3.6-4.4,3.6-7.3
		c0-2.6-1-5.1-2.9-7c-1.6-1.6-3.6-2.5-5.8-2.6h-3.2v-2.5h3.1c6.4,0.2,11.5,5.6,11.4,12.1c0,2.5-0.9,4.9-2.5,6.8l0.5,0.4l-0.5-0.4
		c0,0,0,0-0.1,0.1l-0.5,0.6l0.6,0.5c0.1,0.1,2.4,2,2.4,6.6C33.9,83.4,28.8,88.8,22.4,89 M19.3,82.2h2.2c3.1,0,5.6-2.5,5.7-5.6
		c0-3.1-2.4-5.7-5.5-5.8h-0.1h-2.2v-2.6h2.2c3.1,0,5.7-2.5,5.7-5.6s-2.4-5.7-5.5-5.8h-0.1h-2.2v-2.6h3.2c4.3,0.3,7.5,4.1,7.2,8.4
		c-0.2,2.6-1.6,4.9-3.8,6.2l-1.2,0.7l1.3,0.7c2.3,1.3,3.7,3.7,3.8,6.3c0,6.1-4.4,8.3-7.4,8.3h-3L19.3,82.2z M19.3,72.4h2.2
		c2.3,0,4.1,1.9,4.1,4.1c0,2.3-1.8,4.1-4.1,4.1l0,0h-2.2V72.4z M19.3,58.4h2.2c2.3,0,4.1,1.8,4.2,4.1c0,2.3-1.8,4.2-4,4.2h-0.1h-2.2
		v-8.3H19.3z M35.3,76.9c0.1-2.7-0.8-5.3-2.5-7.3c1.6-2.1,2.4-4.6,2.5-7.3c0.1-7.3-5.7-13.4-12.9-13.7h-4.6v41.9h4.6
		C29.6,90.3,35.4,84.2,35.3,76.9"/>
</g>
</svg>
