<?xml version="1.0" encoding="utf-8"?>
<!-- Generator: Adobe Illustrator 23.0.3, SVG Export Plug-In . SVG Version: 6.00 Build 0)  -->
<svg version="1.1" id="Capa_1" xmlns="http://www.w3.org/2000/svg" xmlns:xlink="http://www.w3.org/1999/xlink" x="0px" y="0px"
	 viewBox="0 0 213 145.2" style="enable-background:new 0 0 213 145.2;" xml:space="preserve">
<style type="text/css">
	.st0{fill:#FFFFFF;}
</style>
<g>
	<g>
		<path class="st0" d="M43.4,21.9c-0.9,0-1.7-0.1-2.3-0.4c-0.7-0.3-1.1-0.6-1.5-1.1c-0.7-0.9-0.9-1.9-0.9-3V9c0-0.2,0.1-0.3,0.2-0.2
			h0.8c0.2,0,0.3,0.1,0.3,0.2v8.3c0,1.2,0.4,2.1,0.9,2.6c0.3,0.2,0.5,0.4,0.9,0.6c0.7,0.3,1.1,0.3,1.7,0.3s1,0,1.7-0.3
			c0.3-0.1,0.6-0.3,0.9-0.6c0.5-0.5,0.9-1.4,0.9-2.6V9c0-0.2,0.1-0.3,0.2-0.2h0.8c0.2,0,0.3,0.1,0.3,0.2v8.4c0,1.1-0.2,2.1-0.9,3
			c-0.3,0.5-0.8,0.8-1.5,1.1S44.3,21.9,43.4,21.9z"/>
		<path class="st0" d="M58.4,15.5c0-1-0.3-1.8-0.9-2.2c-0.6-0.4-1.4-0.6-2.3-0.6c-1.3,0-2.2,0.1-2.6,0.4v8.4c0,0.2-0.1,0.3-0.3,0.3
			h-0.8c-0.2,0-0.3-0.1-0.2-0.3v-9.3c0-0.1,0.5-0.3,1.4-0.4c1-0.1,1.8-0.2,2.7-0.2c1.5,0,2.5,0.3,3.2,1s1,1.9,1,3.5v5.4
			c0,0.2-0.1,0.3-0.2,0.3h-0.8c-0.2,0-0.3-0.1-0.3-0.3C58.4,21.5,58.4,15.5,58.4,15.5z"/>
		<path class="st0" d="M66.8,12.1c0-0.1,0.9-0.3,2.3-0.5c0.7-0.1,1.3-0.1,1.9-0.1c2.7,0,4.1,1.8,4.1,5.3c0,1.9-0.5,3.3-1.4,4
			c-0.9,0.7-1.7,1-2.8,1c-0.8,0-1.7-0.2-2.8-0.5v3.3c0,0.2-0.1,0.3-0.3,0.2H67c-0.2,0-0.2-0.1-0.2-0.2
			C66.8,24.6,66.8,12.1,66.8,12.1z M68,13.1v7.1c1.1,0.3,2,0.5,2.6,0.5c1.3,0,2.2-0.5,2.6-1.3c0.4-0.8,0.5-1.5,0.5-2.7
			c0-0.5,0-0.9,0-1.2s-0.1-0.6-0.2-1.1c-0.1-0.4-0.3-0.7-0.5-1c-0.4-0.5-1.3-0.9-2.4-0.9c-0.3,0-0.7,0-1.2,0.1
			c-0.4,0.1-0.8,0.1-1.1,0.2L68,13.1z"/>
		<path class="st0" d="M81.2,12.7c-1.2,0-1.8,0.2-1.9,0.3l-0.1,0.1v8.3c0,0.2-0.1,0.3-0.3,0.3h-0.8c-0.2,0-0.3-0.1-0.2-0.3v-9.3
			c0-0.1,0.5-0.4,1.5-0.6c0.5-0.1,1-0.1,1.6-0.1c0.6,0,1.2,0.1,1.6,0.1c0.1,0,0.2,0.1,0.2,0.2v0.9c0,0.1-0.1,0.2-0.1,0.2
			C82.1,12.8,81.6,12.7,81.2,12.7z"/>
		<path class="st0" d="M88.9,21.9c-1.2,0-2.2-0.4-2.9-1.1c-0.7-0.7-1.1-1.8-1.1-3.4V16c0-1.6,0.4-2.7,1.1-3.4
			c0.7-0.7,1.7-1.1,2.9-1.1c1.2,0,2.2,0.4,2.9,1.1c0.7,0.7,1.1,1.9,1.1,3.4v1.4c0,1.6-0.4,2.7-1.1,3.4
			C91.1,21.5,90.2,21.9,88.9,21.9z M88.9,20.7c0.8,0,1.4-0.3,2-0.8s0.8-1.2,0.8-2v-2.4c0-0.8-0.3-1.5-0.8-2c-0.5-0.5-1.2-0.8-2-0.8
			s-1.5,0.3-2,0.8c-0.5,0.5-0.8,1.2-0.8,2v2.4c0,0.8,0.3,1.5,0.8,2C87.5,20.4,88.1,20.7,88.9,20.7z"/>
		<path class="st0" d="M94.7,24.8l0.1-0.8c0.1-0.1,0.2-0.2,0.3-0.2c0.5,0,0.8,0,1.1,0c0.7,0,1.3-0.1,1.8-0.4
			c0.5-0.3,0.7-0.7,0.7-1.2c0-0.2-0.1-0.5-0.1-0.7c-0.3-1.1-0.9-2.7-1.7-4.9c-0.8-2.2-1.3-3.8-1.7-4.8c0-0.1,0.1-0.2,0.2-0.2h0.8
			c0.1,0,0.2,0.1,0.3,0.2l3,8.5l2.9-8.5c0.1-0.1,0.2-0.2,0.3-0.2h0.8c0.2,0,0.2,0.1,0.2,0.2l-3.6,10.5c-0.4,1-1,1.8-1.4,2.1
			c-0.3,0.2-0.6,0.3-0.9,0.4c-0.4,0.1-0.7,0.1-0.9,0.2c-0.2,0-0.6,0-0.9,0c-0.4,0-0.8,0-1.1-0.1C94.8,25,94.7,24.9,94.7,24.8z"/>
		<path class="st0" d="M112.5,20.7l0.1,0.8c0,0.1-0.1,0.2-0.2,0.2c-0.7,0.1-1.5,0.2-2.5,0.2c-3,0-4.6-1.5-4.6-4.6v-1.6
			c0-0.5,0.1-1.1,0.4-1.9c0.2-0.4,0.4-0.8,0.7-1.1c0.6-0.6,1.6-1.2,3-1.2c0.7,0,1.4,0.1,1.9,0.4c0.5,0.3,0.9,0.5,1.2,0.9
			s0.5,0.7,0.7,1.2c0.2,0.5,0.2,0.8,0.3,1.1s0,0.6,0,0.9v1.2c0,0.2-0.1,0.3-0.2,0.3h-6.7v0.5c0.1,1.3,0.4,2,1.2,2.4
			c0.4,0.2,0.8,0.3,1.2,0.3c0.4,0,1,0.1,1.8,0.1c0.2,0,0.7-0.1,1.4-0.2C112.4,20.5,112.5,20.6,112.5,20.7z M112.3,16.2
			c0-1.5-0.4-2.6-1.1-3c-0.7-0.4-1.1-0.5-1.7-0.5c-1.9,0-2.9,1.2-2.9,3.5L112.3,16.2L112.3,16.2z"/>
		<path class="st0" d="M116.4,16.1c0-1.4,0.4-2.6,1.1-3.4c0.8-0.8,1.8-1.2,3.1-1.2c1,0,1.8,0.1,2.4,0.2c0.1,0,0.1,0.1,0.1,0.2
			l-0.1,0.8c0,0.1-0.1,0.1-0.2,0.1c-0.6-0.1-1.2-0.2-1.7-0.2c-2.3,0-3.5,1.3-3.5,3.8v0.3c0,2.5,1.2,3.8,3.5,3.8
			c0.5,0,1.1-0.1,1.7-0.2c0.1,0,0.2,0,0.2,0.1l0.1,0.8c0,0.1-0.1,0.2-0.1,0.2c-0.6,0.1-1.4,0.2-2.4,0.2c-1.3,0-2.4-0.4-3.1-1.2
			s-1.1-1.9-1.1-3.4V16.1z"/>
		<path class="st0" d="M127.8,11.6v-1.5l0.2-1.2c0-0.2,0.1-0.3,0.3-0.2h0.6c0.2,0,0.3,0.1,0.3,0.2v2.7h2.1c0.2,0,0.3,0.1,0.2,0.2
			v0.7c0,0.2-0.1,0.3-0.2,0.2h-2.1v5.3c0,1.7,0.7,2.5,2,2.5c0.1,0,0.4,0,0.4,0c0.1,0,0.2,0.1,0.2,0.2v0.7c0,0.1-0.1,0.2-0.2,0.2
			c-0.2,0-0.4,0-0.7,0c-2,0-3-1.1-2.9-3.3v-5.7h-2c-0.2,0-0.3-0.1-0.3-0.2v-0.7c0-0.2,0.1-0.2,0.3-0.2L127.8,11.6L127.8,11.6z"/>
		<path class="st0" d="M138.4,21.9c-1.2,0-2.2-0.4-2.9-1.1c-0.7-0.7-1.1-1.8-1.1-3.4V16c0-1.6,0.4-2.7,1.1-3.4
			c0.7-0.7,1.7-1.1,2.9-1.1c1.2,0,2.2,0.4,2.9,1.1c0.7,0.7,1.1,1.9,1.1,3.4v1.4c0,1.6-0.4,2.7-1.1,3.4
			C140.6,21.5,139.6,21.9,138.4,21.9z M138.4,20.7c0.8,0,1.4-0.3,2-0.8s0.8-1.2,0.8-2v-2.4c0-0.8-0.3-1.5-0.8-2
			c-0.5-0.5-1.2-0.8-2-0.8s-1.5,0.3-2,0.8s-0.8,1.2-0.8,2v2.4c0,0.8,0.3,1.5,0.8,2S137.6,20.7,138.4,20.7z"/>
		<path class="st0" d="M157.5,21.3c0,0.1-0.9,0.3-2.3,0.5c-0.7,0.1-1.3,0.1-1.9,0.1c-2.7,0-4.1-1.8-4.1-5.3c0-1.9,0.5-3.3,1.4-4
			c0.9-0.7,1.7-1,2.8-1c0.8,0,1.7,0.2,2.9,0.6V9c0-0.2,0.1-0.3,0.3-0.2h0.8c0.2,0,0.2,0.1,0.2,0.2L157.5,21.3L157.5,21.3z
			 M156.2,20.3v-7.1c-1.1-0.3-2-0.5-2.6-0.5c-1.3,0-2.2,0.4-2.6,1.3c-0.4,0.8-0.5,1.5-0.5,2.7c0,0.5,0,0.9,0,1.1
			c0,0.3,0.1,0.6,0.2,1.1c0.1,0.4,0.3,0.7,0.5,1c0.4,0.5,1.2,0.9,2.4,0.9c0.3,0,0.7,0,1.2-0.1c0.4,0,0.8-0.1,1.1-0.2L156.2,20.3z"/>
		<path class="st0" d="M167.6,20.7l0.1,0.8c0,0.1-0.1,0.2-0.2,0.2c-0.7,0.1-1.5,0.2-2.5,0.2c-3,0-4.6-1.5-4.6-4.6v-1.6
			c0-0.5,0.1-1.1,0.4-1.9c0.2-0.4,0.4-0.8,0.7-1.1c0.6-0.6,1.6-1.2,3-1.2c0.7,0,1.4,0.1,1.9,0.4c0.5,0.3,0.9,0.5,1.2,0.9
			s0.5,0.7,0.6,1.2c0.1,0.5,0.2,0.8,0.3,1.1s0,0.6,0,0.9v1.2c0,0.2-0.1,0.3-0.2,0.3h-6.6v0.5c0.1,1.3,0.4,2,1.2,2.4
			c0.4,0.2,0.8,0.3,1.2,0.3c0.4,0,1,0.1,1.8,0.1c0.2,0,0.7-0.1,1.4-0.2C167.5,20.5,167.6,20.6,167.6,20.7z M167.4,16.2
			c0-1.5-0.4-2.6-1.1-3c-0.7-0.4-1.1-0.5-1.7-0.5c-1.9,0-2.9,1.2-2.9,3.5L167.4,16.2L167.4,16.2z"/>
		<path class="st0" d="M172.5,13.2c0.4,0,0.8,0.3,0.8,0.8s-0.4,0.8-0.8,0.8c-0.2,0-0.4-0.1-0.6-0.2
			C171.4,14.1,171.8,13.2,172.5,13.2z M172.5,20.3c0.4,0,0.8,0.3,0.8,0.8s-0.4,0.8-0.8,0.8c-0.2,0-0.4-0.1-0.6-0.2
			C171.4,21.2,171.8,20.3,172.5,20.3z"/>
	</g>
</g>
<g>
	<path class="st0" d="M52.5,127.3h1.8v9.4h-1.8V127.3z M52,123.8c0-0.4,0.1-0.8,0.4-1s0.6-0.4,1-0.4s0.8,0.2,1,0.4s0.4,0.6,0.4,1
		s-0.2,0.7-0.4,1c-0.3,0.3-0.6,0.4-1,0.4s-0.7-0.1-1-0.4C52.2,124.5,52,124.2,52,123.8"/>
	<path class="st0" d="M57.6,127.3h1.8v1.7c0.3-0.6,0.7-1.1,1.3-1.4c0.6-0.3,1.3-0.5,2.1-0.5c0.7,0,1.2,0.1,1.7,0.3s0.8,0.5,1.1,0.9
		c0.3,0.4,0.4,0.8,0.6,1.2c0.1,0.4,0.2,1,0.2,1.7v5.6h-1.8v-5c0-0.4,0-0.8-0.1-1.2c-0.1-0.4-0.2-0.7-0.4-1s-0.4-0.5-0.7-0.6
		c-0.3-0.2-0.7-0.2-1.1-0.2c-0.5,0-0.8,0.1-1.2,0.3c-0.3,0.2-0.6,0.4-0.8,0.7s-0.4,0.6-0.5,1s-0.2,0.8-0.2,1.2v4.9h-1.8V127.3z"/>
	<path class="st0" d="M81.6,136.8v-5.4c0-0.9-0.2-1.5-0.5-2c-0.3-0.4-0.8-0.7-1.5-0.7c-0.7,0-1.3,0.3-1.7,0.8
		c-0.4,0.5-0.6,1.4-0.6,2.5v4.8h-1.8v-5.3c0-1-0.2-1.7-0.5-2.1c-0.3-0.4-0.8-0.7-1.5-0.7c-0.7,0-1.3,0.3-1.7,0.8
		c-0.4,0.5-0.6,1.4-0.6,2.5v4.8h-1.8v-9.4h1.8v1.7c0.2-0.5,0.5-1,1-1.4c0.5-0.4,1.1-0.6,1.8-0.6c0.9,0,1.6,0.2,2,0.6
		c0.5,0.4,0.8,0.9,1,1.5c0.1-0.3,0.2-0.5,0.4-0.8c0.2-0.3,0.4-0.5,0.7-0.6s0.6-0.3,0.9-0.4c0.3-0.1,0.7-0.2,1.1-0.2
		c0.6,0,1.2,0.1,1.6,0.3s0.8,0.5,1,0.8s0.4,0.7,0.6,1.2c0.1,0.5,0.2,0.9,0.2,1.4v6L81.6,136.8L81.6,136.8z"/>
	<path class="st0" d="M90.7,135.4c0.5,0,0.9-0.1,1.3-0.3c0.4-0.2,0.7-0.4,1-0.7s0.5-0.6,0.6-1.1c0.2-0.4,0.2-0.8,0.2-1.3
		c0-0.5-0.1-0.9-0.2-1.3c-0.2-0.4-0.4-0.8-0.6-1.1c-0.3-0.3-0.6-0.6-1-0.7c-0.4-0.2-0.8-0.3-1.3-0.3s-0.9,0.1-1.3,0.3
		c-0.4,0.2-0.7,0.4-1,0.7c-0.3,0.3-0.5,0.7-0.6,1.1c-0.2,0.4-0.2,0.8-0.2,1.3c0,0.5,0.1,0.9,0.2,1.3c0.2,0.4,0.4,0.8,0.6,1.1
		s0.6,0.5,1,0.7S90.2,135.4,90.7,135.4 M90.7,137c-0.8,0-1.4-0.1-2-0.4c-0.6-0.3-1.1-0.6-1.6-1.1c-0.4-0.5-0.8-1-1-1.6
		c-0.2-0.6-0.3-1.2-0.3-1.9c0-0.7,0.1-1.3,0.3-1.9c0.2-0.6,0.6-1.1,1-1.6c0.4-0.5,0.9-0.8,1.6-1.1s1.3-0.4,2-0.4
		c0.8,0,1.4,0.1,2.1,0.4c0.6,0.3,1.1,0.6,1.6,1.1c0.4,0.5,0.8,1,1,1.6c0.2,0.6,0.3,1.2,0.3,1.9s-0.1,1.3-0.3,1.9
		c-0.2,0.6-0.6,1.1-1,1.6c-0.4,0.5-1,0.8-1.6,1.1C92.1,136.9,91.4,137,90.7,137"/>
	<path class="st0" d="M103.1,135.4c0.5,0,0.9-0.1,1.3-0.3c0.4-0.2,0.7-0.4,1-0.7s0.5-0.6,0.6-1.1c0.2-0.4,0.2-0.8,0.2-1.3
		c0-0.5-0.1-0.9-0.2-1.3c-0.2-0.4-0.4-0.8-0.6-1.1s-0.6-0.6-1-0.7c-0.4-0.2-0.8-0.3-1.3-0.3c-0.5,0-0.9,0.1-1.3,0.3
		c-0.4,0.2-0.7,0.4-1,0.7c-0.3,0.3-0.5,0.7-0.6,1.1c-0.2,0.4-0.2,0.8-0.2,1.3c0,0.5,0.1,0.9,0.2,1.3c0.2,0.4,0.4,0.8,0.6,1.1
		c0.3,0.3,0.6,0.5,1,0.7C102.2,135.3,102.6,135.4,103.1,135.4 M99.9,136.8h-1.8v-14.6h1.8v6.7c0.3-0.6,0.8-1,1.3-1.4
		s1.2-0.5,1.9-0.5c0.7,0,1.4,0.1,2,0.4c0.6,0.3,1.1,0.6,1.5,1.1c0.4,0.5,0.8,1,1,1.6c0.2,0.6,0.3,1.2,0.3,1.9s-0.1,1.3-0.3,1.9
		c-0.2,0.6-0.6,1.1-1,1.6c-0.4,0.5-0.9,0.8-1.5,1.1c-0.6,0.3-1.3,0.4-2,0.4c-0.7,0-1.3-0.2-1.9-0.5c-0.6-0.3-1.1-0.8-1.3-1.4V136.8z
		"/>
	<path class="st0" d="M110.6,127.3h1.8v9.4h-1.8V127.3z M110,123.8c0-0.4,0.1-0.8,0.4-1s0.6-0.4,1-0.4c0.4,0,0.8,0.2,1,0.4
		s0.4,0.6,0.4,1s-0.2,0.7-0.4,1s-0.6,0.4-1,0.4s-0.7-0.1-1-0.4C110.2,124.5,110,124.2,110,123.8"/>
	<rect x="115.6" y="122.2" class="st0" width="1.8" height="14.6"/>
	<path class="st0" d="M120.7,127.3h1.8v9.4h-1.8V127.3z M120.1,123.8c0-0.4,0.1-0.8,0.4-1s0.6-0.4,1-0.4c0.4,0,0.8,0.2,1,0.4
		s0.4,0.6,0.4,1s-0.2,0.7-0.4,1s-0.6,0.4-1,0.4s-0.7-0.1-1-0.4C120.3,124.5,120.1,124.2,120.1,123.8"/>
	<path class="st0" d="M129.9,135.4c0.5,0,0.9-0.1,1.3-0.3c0.4-0.2,0.7-0.4,1-0.7s0.5-0.6,0.6-1.1c0.1-0.4,0.2-0.8,0.2-1.3
		c0-0.5-0.1-0.9-0.2-1.3c-0.1-0.4-0.4-0.8-0.6-1.1c-0.3-0.3-0.6-0.6-1-0.7c-0.4-0.2-0.8-0.3-1.3-0.3s-0.9,0.1-1.3,0.3
		c-0.4,0.2-0.7,0.4-1,0.7c-0.3,0.3-0.5,0.7-0.6,1.1c-0.2,0.4-0.2,0.8-0.2,1.3c0,0.5,0.1,0.9,0.2,1.3c0.2,0.4,0.4,0.8,0.6,1.1
		s0.6,0.5,1,0.7S129.4,135.4,129.9,135.4 M134.9,127.3v9.4h-1.8v-1.6c-0.3,0.6-0.8,1-1.4,1.4s-1.3,0.5-1.9,0.5c-0.7,0-1.4-0.1-2-0.4
		c-0.6-0.3-1.1-0.6-1.5-1.1c-0.4-0.5-0.8-1-1-1.6c-0.2-0.6-0.3-1.2-0.3-1.9c0-0.7,0.1-1.3,0.3-1.9c0.2-0.6,0.6-1.1,1-1.6
		c0.4-0.5,0.9-0.8,1.5-1.1c0.6-0.3,1.3-0.4,2-0.4c0.7,0,1.3,0.2,1.9,0.5s1.1,0.8,1.4,1.4v-1.6L134.9,127.3L134.9,127.3z"/>
	<path class="st0" d="M144,129c-0.2,0-0.4-0.1-0.5-0.1c-0.1,0-0.3,0-0.4,0c-1.1,0-1.8,0.3-2.4,1c-0.5,0.7-0.8,1.6-0.8,2.7v4.1h-1.8
		v-9.4h1.8v1.8c0.3-0.6,0.7-1.1,1.3-1.4c0.6-0.4,1.2-0.6,1.9-0.6c0.4,0,0.7,0.1,0.9,0.1L144,129L144,129z"/>
	<path class="st0" d="M145.7,127.3h1.8v9.4h-1.8V127.3z M145.2,123.8c0-0.4,0.1-0.8,0.4-1s0.6-0.4,1-0.4c0.4,0,0.8,0.2,1,0.4
		s0.4,0.6,0.4,1s-0.1,0.7-0.4,1c-0.3,0.3-0.6,0.4-1,0.4s-0.7-0.1-1-0.4C145.3,124.5,145.2,124.2,145.2,123.8"/>
	<path class="st0" d="M154.9,135.4c0.5,0,0.9-0.1,1.3-0.3c0.4-0.2,0.7-0.4,1-0.7s0.5-0.6,0.6-1.1c0.1-0.4,0.2-0.8,0.2-1.3
		c0-0.5-0.1-0.9-0.2-1.3c-0.1-0.4-0.4-0.8-0.6-1.1c-0.3-0.3-0.6-0.6-1-0.7c-0.4-0.2-0.8-0.3-1.3-0.3s-0.9,0.1-1.3,0.3
		c-0.4,0.2-0.7,0.4-1,0.7c-0.3,0.3-0.5,0.7-0.6,1.1c-0.1,0.4-0.2,0.8-0.2,1.3c0,0.5,0.1,0.9,0.2,1.3c0.1,0.4,0.4,0.8,0.6,1.1
		s0.6,0.5,1,0.7S154.5,135.4,154.9,135.4 M159.9,127.3v9.4h-1.8v-1.6c-0.3,0.6-0.8,1-1.4,1.4s-1.3,0.5-1.9,0.5c-0.7,0-1.4-0.1-2-0.4
		c-0.6-0.3-1.1-0.6-1.5-1.1c-0.4-0.5-0.8-1-1-1.6c-0.2-0.6-0.4-1.2-0.4-1.9c0-0.7,0.1-1.3,0.4-1.9c0.2-0.6,0.6-1.1,1-1.6
		c0.4-0.5,0.9-0.8,1.5-1.1c0.6-0.3,1.3-0.4,2-0.4c0.7,0,1.3,0.2,1.9,0.5s1.1,0.8,1.4,1.4v-1.6L159.9,127.3L159.9,127.3z"/>
</g>
<g>
	<path class="st0" d="M176.6,66.5c-8.2,0-14.8,6.7-14.8,14.8c0,8.2,6.6,14.8,14.8,14.8c8.2,0,14.8-6.7,14.8-14.8
		C191.4,73.1,184.8,66.5,176.6,66.5 M176.6,98c-9.2,0-16.7-7.5-16.7-16.7c0-9.2,7.5-16.7,16.7-16.7c9.2,0,16.7,7.5,16.7,16.7
		C193.3,90.5,185.8,98,176.6,98"/>
	<path class="st0" d="M176.6,61.4c-11,0-19.9,8.9-19.9,19.9s8.9,19.9,19.9,19.9c11,0,19.9-8.9,19.9-19.9S187.5,61.4,176.6,61.4
		 M176.6,103.1c-12,0-21.8-9.8-21.8-21.8s9.8-21.8,21.8-21.8s21.8,9.8,21.8,21.8S188.6,103.1,176.6,103.1"/>
	<path class="st0" d="M176.6,56.1c-13.9,0-25.2,11.3-25.2,25.2s11.3,25.2,25.2,25.2s25.2-11.3,25.2-25.2
		C201.8,67.4,190.5,56.1,176.6,56.1 M176.6,108.3c-14.9,0-27.1-12.2-27.1-27.1s12.1-27.1,27.1-27.1c14.9,0,27.1,12.1,27.1,27.1
		C203.7,96.2,191.5,108.3,176.6,108.3"/>
	<rect x="44.3" y="54.6" class="st0" width="1.9" height="53"/>
	<rect x="49.2" y="54.6" class="st0" width="1.9" height="53"/>
	<rect x="54.2" y="54.6" class="st0" width="1.9" height="53"/>
	<polygon class="st0" points="79.7,54.6 58.6,107.6 60.7,107.6 81.8,54.6 	"/>
	<polygon class="st0" points="85.5,54.6 64.4,107.6 66.5,107.6 87.6,54.6 	"/>
	<path class="st0" d="M92.7,87.9H79.7l6.4-16.1L92.7,87.9z M94.8,93H77.7l1.2-3.1h14.7L94.8,93z M97,98.1H75.6l1.3-3.2h18.7L97,98.1
		z M90.8,54.6l-21.1,53h2.1l3-7.6h22.9l3.2,7.6h2.1L87.1,69.4L87,69.5l2-4.9l17.9,43.1h2.1L90,62l1.9-4.8l20.3,50.5h2.1L93,54.6
		H90.8z"/>
	<rect x="116" y="54.6" class="st0" width="1.9" height="53"/>
	<rect x="120.9" y="54.6" class="st0" width="1.9" height="53"/>
	<path class="st0" d="M131.7,105.7h-3.9v-3.3h3.9c5.5,0,11.4-4.3,11.4-12.4c0-4.7-2.9-7.6-4.6-8.9c1.7-1.4,4.6-4.4,4.6-9.2
		c0-3.4-1.3-6.5-3.7-8.8c-2.1-2-4.9-3.2-7.4-3.2h-4.2v-3.3h3.9c7.1,0,14.6,6.2,14.6,15.4c0,3.1-1.1,6-3.2,8.6l0.7,0.5l-0.7-0.5
		c0,0,0,0.1-0.1,0.1l-0.6,0.8l0.8,0.6c0.1,0.1,3.1,2.6,3.1,8.4C146.4,99.5,138.8,105.7,131.7,105.7 M127.8,97.1h2.8
		c4,0,7.2-3.2,7.2-7.2s-3.2-7.2-7.2-7.2h-2.8v-3.3h2.8c4,0,7.2-3.2,7.2-7.2s-3.2-7.2-7.2-7.2h-2.8v-3.3h4.2c3.8,0,9.2,3.6,9.2,10.1
		c0,5.6-4.7,8.3-4.9,8.4l-1.6,0.9l1.6,0.8c0.2,0.1,4.9,2.6,4.9,8c0,7.7-5.7,10.5-9.5,10.5h-3.9L127.8,97.1L127.8,97.1z M127.8,84.7
		h2.8c2.9,0,5.3,2.3,5.3,5.3c0,2.9-2.4,5.3-5.3,5.3h-2.8V84.7z M127.8,67h2.8c2.9,0,5.3,2.4,5.3,5.3s-2.4,5.3-5.3,5.3h-2.8V67z
		 M148.3,90.3c0-5.1-2-8-3.1-9.3c2.1-2.8,3.1-5.9,3.1-9.2c0-10.3-8.6-17.3-16.6-17.3h-3.9h-1.9v53h1.9h3.9
		C139.7,107.6,148.3,100.7,148.3,90.3"/>
	<rect x="8.3" y="54.6" class="st0" width="1.9" height="53"/>
	<rect x="13.2" y="54.6" class="st0" width="1.9" height="53"/>
	<path class="st0" d="M24,105.7h-3.9v-3.3H24c5.5,0,11.4-4.3,11.4-12.4c0-4.7-2.9-7.6-4.6-8.9c1.7-1.4,4.6-4.4,4.6-9.2
		c0-3.4-1.3-6.5-3.7-8.8c-2.1-2-4.9-3.2-7.5-3.2h-4.1v-3.3H24c7.1,0,14.6,6.2,14.6,15.4c0,3.1-1.1,6-3.2,8.6l0.7,0.5l-0.7-0.5
		c0,0,0,0.1-0.1,0.1l-0.6,0.8l0.8,0.6c0.1,0.1,3.1,2.6,3.1,8.4C38.7,99.5,31.1,105.7,24,105.7 M20.1,97.1H23c4,0,7.2-3.2,7.2-7.2
		s-3.2-7.2-7.2-7.2h-2.9v-3.3H23c4,0,7.2-3.2,7.2-7.2S26.9,65,23,65h-2.9v-3.3h4.1c3.8,0,9.2,3.6,9.2,10.1c0,5.6-4.7,8.3-4.9,8.4
		L27,81.1l1.6,0.8c0.2,0.1,4.9,2.6,4.9,8c0,7.7-5.7,10.5-9.5,10.5h-3.9L20.1,97.1L20.1,97.1z M20.1,84.7H23c2.9,0,5.3,2.3,5.3,5.3
		c0,2.9-2.4,5.3-5.3,5.3h-2.9V84.7z M20.1,67H23c2.9,0,5.3,2.4,5.3,5.3s-2.4,5.3-5.3,5.3h-2.9V67z M40.6,90.3c0-5.1-2-8-3.1-9.3
		c2.1-2.8,3.1-5.9,3.1-9.2c0-10.3-8.6-17.3-16.6-17.3h-3.9h-1.9v53h1.9H24C32,107.6,40.6,100.7,40.6,90.3"/>
</g>
</svg>
