<?xml version="1.0" encoding="utf-8"?>
<!-- Generator: Adobe Illustrator 23.0.3, SVG Export Plug-In . SVG Version: 6.00 Build 0)  -->
<svg version="1.1" id="Capa_1" xmlns="http://www.w3.org/2000/svg" xmlns:xlink="http://www.w3.org/1999/xlink" x="0px" y="0px"
	 viewBox="0 0 32.8 32.8" style="enable-background:new 0 0 32.8 32.8;" xml:space="preserve">
<style type="text/css">
	.st0{fill:#FFFFFF;}
</style>
<path class="st0" d="M27.4,19.5c-0.7-0.7-1.6-1.1-2.5-1.1c-0.9,0-1.8,0.4-2.5,1.1l-2.3,2.3c-0.2-0.1-0.4-0.2-0.6-0.3
	c-0.3-0.1-0.5-0.3-0.7-0.4c-2.2-1.4-4.1-3.2-6-5.5c-0.9-1.1-1.5-2.1-2-3.1c0.6-0.5,1.1-1.1,1.7-1.7c0.2-0.2,0.4-0.4,0.6-0.6
	c1.5-1.5,1.5-3.5,0-5l-2-2C11,3,10.7,2.8,10.5,2.5c-0.4-0.5-0.9-0.9-1.4-1.4C8.5,0.5,7.6,0.1,6.7,0.1S5,0.5,4.2,1.2c0,0,0,0,0,0
	L1.8,3.7C0.8,4.6,0.3,5.8,0.2,7.1C0,9.2,0.6,11.2,1.1,12.5c1.2,3.2,2.9,6.1,5.6,9.3c3.2,3.8,7,6.8,11.4,8.9c1.7,0.8,3.9,1.7,6.4,1.9
	c0.2,0,0.3,0,0.5,0c1.7,0,3.1-0.6,4.2-1.8c0,0,0,0,0,0c0.4-0.5,0.8-0.9,1.3-1.3c0.3-0.3,0.6-0.6,0.9-0.9c0.7-0.7,1.1-1.6,1.1-2.5
	c0-0.9-0.4-1.8-1.1-2.5L27.4,19.5z M30,27.1C30,27.1,30,27.1,30,27.1c-0.3,0.3-0.6,0.6-0.9,0.9c-0.5,0.5-1,0.9-1.4,1.5
	c-0.7,0.8-1.6,1.2-2.7,1.2c-0.1,0-0.2,0-0.3,0c-2.2-0.1-4.2-1-5.7-1.7c-4.1-2-7.7-4.8-10.7-8.4c-2.5-3-4.1-5.8-5.2-8.7
	C2.3,10,2,8.6,2.1,7.2c0.1-0.9,0.4-1.6,1-2.2l2.5-2.5C6,2.3,6.4,2.1,6.7,2.1c0.5,0,0.8,0.3,1.1,0.5c0,0,0,0,0,0
	C8.3,3,8.7,3.5,9.1,3.9c0.2,0.2,0.5,0.5,0.7,0.7l2,2c0.8,0.8,0.8,1.5,0,2.3c-0.2,0.2-0.4,0.4-0.6,0.6c-0.6,0.6-1.2,1.2-1.8,1.8
	c0,0,0,0,0,0c-0.6,0.6-0.5,1.2-0.4,1.7c0,0,0,0,0,0.1c0.5,1.3,1.2,2.4,2.3,3.8l0,0c2,2.5,4.1,4.4,6.5,5.9c0.3,0.2,0.6,0.3,0.9,0.5
	c0.3,0.1,0.5,0.3,0.7,0.4c0,0,0.1,0,0.1,0.1c0.2,0.1,0.5,0.2,0.7,0.2c0.6,0,1-0.4,1.1-0.5l2.5-2.5c0.2-0.2,0.6-0.5,1.1-0.5
	c0.5,0,0.8,0.3,1,0.5c0,0,0,0,0,0l4,4C30.7,25.6,30.7,26.4,30,27.1z"/>
</svg>
