<?xml version="1.0" encoding="utf-8"?>
<!-- Generator: Adobe Illustrator 23.0.0, SVG Export Plug-In . SVG Version: 6.00 Build 0)  -->
<!DOCTYPE svg PUBLIC "-//W3C//DTD SVG 1.1//EN" "http://www.w3.org/Graphics/SVG/1.1/DTD/svg11.dtd" [
	<!ENTITY st0 "fill:#FF4D0F;">
	<!ENTITY st1 "fill:#FFFFFF;">
]>
<svg version="1.1" id="Capa_1" xmlns="http://www.w3.org/2000/svg" xmlns:xlink="http://www.w3.org/1999/xlink" x="0px" y="0px"
	 viewBox="0 0 647.09 95.72" style="enable-background:new 0 0 647.09 95.72;" xml:space="preserve">
<g>
	<g>
		<g>
			<g>
				<path style="&st0;" d="M625.67,0.22L0,95.72l630.2-58.57c9.57-0.89,16.89-8.92,16.89-18.53v0
					C647.09,7.22,636.94-1.5,625.67,0.22z"/>
			</g>
		</g>
	</g>
	<g>
		<path style="&st1;" d="M38.13,13.56c6.86,0,12.42,1.74,15.51,4.23c1.52,1.27,2.83,2.69,3.93,4.23c3.04,4.76,3.2,9.67,3.2,12
			l-0.1,1.16l-1.31,8.98c-0.16,0.58-0.1,1.32-1.26,4.28s-2.52,5.5-5.5,8.88c-2.99,3.38-6.44,5.71-12.26,7.35
			c-2.88,0.84-6.08,1.27-9.48,1.27h-7.65l-1.94,13.84c-0.21,1.32-0.94,1.96-2.15,1.96H9.15c-1,0-1.89-0.74-1.73-1.96l9.01-64.25
			c0.16-1.32,0.84-1.96,2.15-1.96H38.13z M28.69,26.29l-3.67,26.84h7.6c2.31,0,4.35-0.37,7.34-1.85c2.99-1.43,5.29-4.86,5.97-9.93
			l0.42-3.43c0.68-5.07-0.58-8.4-3.25-9.88c-2.67-1.43-4.51-1.74-6.81-1.74H28.69z"/>
		<path style="&st1;" d="M93.61,40.29c-4.4,0-7.65,1-8.49,1.69l-0.52,0.58l-5.19,37.2c-0.21,1.32-0.94,1.96-2.15,1.96h-9.96
			c-1,0-1.89-0.74-1.73-1.96l6.44-46.55c0.26-1.27,4.24-3.01,11-4.28c3.41-0.58,6.97-0.9,10.69-0.9c2.67,0,4.93,0.21,6.86,0.63
			c0.79,0.37,1.15,0.9,1.05,1.64l-1.26,9.09c-0.16,0.95-0.63,1.43-1.31,1.43C97.28,40.45,95.45,40.29,93.61,40.29z"/>
		<path style="&st1;" d="M146.06,33.58c3.41,3.75,4.51,9.88,3.3,18.39l-1,6.71c-2.15,15.96-10.48,23.94-24.99,23.88
			c-14.41,0-20.49-7.98-18.34-23.88l0.94-6.71c2.31-15.96,10.64-23.94,25.05-23.94C137.57,28.03,142.6,29.88,146.06,33.58z
			 M125.1,70.36c2.2,0,4.19-0.74,5.92-2.22s2.72-3.43,3.09-5.92l1.94-13.84c0.58-4.91-2.36-8.08-6.76-8.08
			c-2.25,0-4.19,0.74-5.92,2.22c-1.73,1.48-2.72,3.43-2.99,5.87l-1.94,13.84c-0.37,2.48,0.1,4.44,1.41,5.92
			C121.12,69.62,122.85,70.36,125.1,70.36z M137.31,21.43c-0.89,1.16-1.68,1.74-2.46,1.74h-6.65c-1,0-1.78-0.53-1.57-1.74
			l6.08-11.15c0.68-1.21,1.52-1.85,2.46-1.8h9.12c1,0,1.68,0.69,1.52,1.8L137.31,21.43z"/>
		<path style="&st1;" d="M175.72,66.87l-9.85,13.32c-0.63,1-1.47,1.53-2.46,1.53h-9.8c-1,0-1.83-0.74-1.68-1.96l17.82-24.36
			l-11.06-24.57c0.16-1.32,0.84-1.96,2.15-1.9h9.85c0.89,0,1.62,0.58,2.25,1.69l6.03,13.21l9.64-13.21
			c0.89-1.16,1.78-1.74,2.67-1.69h9.9c1,0,1.89,0.79,1.68,1.9l-17.92,24.57l10.95,24.36c-0.21,1.32-0.94,1.96-2.15,1.96h-9.75
			c-1.1,0-1.83-0.53-2.25-1.53L175.72,66.87z"/>
		<path style="&st1;" d="M219.88,79.77c-0.21,1.32-0.94,1.96-2.15,1.96h-9.96c-1,0-1.89-0.74-1.73-1.96l6.86-48.93
			c0.16-1.32,0.84-1.96,2.15-1.9h10.01c1.21-0.05,1.73,0.58,1.68,1.9L219.88,79.77z M214.23,18.1c0.63-4.54,3.35-6.82,8.23-6.82
			c4.98,0,7.18,2.27,6.55,6.82c-0.58,4.49-3.35,6.71-8.44,6.71C215.8,24.81,213.65,22.59,214.23,18.1z"/>
		<path style="&st1;" d="M273.85,79.77c-0.21,1.32-0.94,1.96-2.15,1.96h-9.96c-1,0-1.89-0.74-1.73-1.96l4.4-31.18
			c0.42-3.22,0.21-5.44-0.68-6.6c-0.89-1.11-2.67-1.69-5.24-1.69c-1.42,0-3.67,0.63-5.14,1.06l-0.94,0.32l-5.4,38.1
			c-0.21,1.32-0.94,1.96-2.15,1.96h-9.96c-1,0-1.89-0.74-1.73-1.96l6.44-46.29c0.21-1.16,2.73-2.38,7.6-3.59
			c4.82-1.22,8.59-1.85,11.27-1.85c3.2,0,5.82,0.32,7.86,0.9c1.99,0.63,4.24,2.01,6.76,4.07c4.24-3.33,9.17-4.97,14.83-4.97
			c5.61,0,8.8,0.69,12.1,2.8c1.62,1.11,2.78,2.59,3.46,4.54c1.26,3.91,2.15,10.04,0.63,18.86l-3.56,25.52
			c-0.21,1.32-0.94,1.96-2.15,1.96h-9.96c-1,0-1.89-0.74-1.73-1.96l4.4-31.39c0.84-6.08-1.42-8.08-6.45-8.08
			c-2.31,0-4.72,0.85-7.18,2.48c0.68,2.7,0.52,7.24-0.42,13.63L273.85,79.77z"/>
		<path style="&st1;" d="M321.27,40.72l-0.42-8.98c0.05-0.69,0.52-1.27,1.36-1.64c4.45-1.37,9.75-2.06,15.98-2.06
			c13.62,0,20.54,7.24,18.71,21.14l-4.09,28.75c-0.16,1.16-2.83,2.22-8.07,3.17c-5.29,1-9.69,1.48-13.2,1.48
			c-6.03,0-10.01-0.63-13.89-2.8c-3.88-2.17-5.5-6.71-4.66-13.32c0.94-6.55,3.25-11.1,6.92-13.58c3.62-2.48,8.33-3.7,14.04-3.7h8.23
			l0.1-0.69c0.84-6.08-1.83-8.19-8.59-8.19c-3.2-0.05-6.92,0.42-11.06,1.37C321.95,41.67,321.48,41.35,321.27,40.72z M341.44,60.16
			h-4.51c-6.13,0-9.43,1.74-9.9,5.23c-0.58,4.28,1.05,5.6,5.92,5.6c4.66,0,7.13-0.85,7.39-2.59L341.44,60.16z"/>
		<path style="&st1;" d="M405.99,79.77c-0.21,1.32-0.94,1.96-2.15,1.96h-9.96c-1,0-1.89-0.74-1.73-1.96l4.4-31.18
			c0.42-3.22,0.21-5.44-0.68-6.6c-0.89-1.11-2.67-1.69-5.24-1.69c-1.42,0-3.67,0.63-5.14,1.06l-0.94,0.32l-5.4,38.1
			c-0.21,1.32-0.94,1.96-2.15,1.96h-9.96c-1,0-1.89-0.74-1.73-1.96l6.44-46.29c0.21-1.16,2.73-2.38,7.6-3.59
			c4.82-1.22,8.59-1.85,11.27-1.85c3.2,0,5.82,0.32,7.86,0.9c1.99,0.63,4.24,2.01,6.76,4.07c4.24-3.33,9.17-4.97,14.83-4.97
			c5.61,0,8.8,0.69,12.1,2.8c1.62,1.11,2.78,2.59,3.46,4.54c1.26,3.91,2.15,10.04,0.63,18.86l-3.56,25.52
			c-0.21,1.32-0.94,1.96-2.15,1.96h-9.96c-1,0-1.89-0.74-1.73-1.96l4.4-31.39c0.84-6.08-1.42-8.08-6.45-8.08
			c-2.31,0-4.72,0.85-7.18,2.48c0.68,2.7,0.52,7.24-0.42,13.63L405.99,79.77z"/>
		<path style="&st1;" d="M490.98,59.11c-0.21,1.32-0.94,1.96-2.25,1.96h-28.35v0.42c-0.37,3.59,0.42,5.97,2.31,7.13
			c1.89,1.16,5.34,1.74,10.38,1.74c2.99,0,6.34-0.26,9.96-0.74c0.68,0,1.15,0.32,1.42,0.95l0.1,9.3c-0.26,0.79-0.68,1.27-1.21,1.43
			c-3.09,0.9-8.33,1.32-15.77,1.27c-7.39,0-12.94-1.96-16.72-5.92c-3.83-3.91-5.13-10.15-3.98-18.65l1.15-8.08
			c0.21-1.58,0.52-3.12,0.94-4.6c0.37-1.48,1.15-3.33,2.31-5.6c1.15-2.22,2.57-4.12,4.24-5.71c3.35-3.17,9.59-5.97,17.34-5.97
			c7.7,0,13.52,2.54,15.98,5.97c1.21,1.74,2.2,3.59,2.88,5.6c0.68,2.06,0.94,3.96,0.79,5.76c-0.16,1.8-0.26,3.33-0.26,4.54
			L490.98,59.11z M478.51,49.38c0.79-6.08-1.52-9.09-6.97-9.09c-5.55,0-8.75,3.01-9.54,9.09H478.51z"/>
		<path style="&st1;" d="M535.57,48.59c0.37-3.01-0.31-5.18-1.99-6.45c-1.68-1.21-3.88-1.85-6.6-1.85c-1.89,0-4.72,0.53-6.34,0.95
			l-1.15,0.32l-5.4,38.2c-0.21,1.32-0.94,1.96-2.15,1.96h-9.96c-1,0-1.89-0.74-1.73-1.96l6.44-46.55c0.21-1.16,3.25-2.33,9.12-3.49
			c5.87-1.11,10.64-1.69,14.25-1.69c7.23,0,12.47,1.96,15.72,5.87c3.2,3.96,4.09,11.15,2.67,21.61L545,79.77
			c-0.21,1.32-0.94,1.96-2.15,1.96h-9.96c-1,0-1.89-0.85-1.73-1.96L535.57,48.59z"/>
		<path style="&st1;" d="M577.8,82.57c-11.37,0-16.19-6.29-14.36-18.92l3.09-22.51h-5.24c-1.21,0-1.78-0.63-1.62-1.96l1.21-8.35
			c0.16-1,0.94-1.9,2.15-1.9h5.24l0.94-6.5l2.41-6.82c0.58-1.37,1.36-2.06,2.36-2.06h8.33c1,0,1.89,0.74,1.73,1.96l-1.94,13.42h8.38
			c1.1,0,1.89,0.9,1.73,1.9L591,39.18c-0.16,1-1.05,1.96-2.25,1.96h-8.38l-3.09,22.3c-0.63,4.6,1.26,6.92,5.61,6.92
			c0.16,0,0.68-0.05,1.57-0.11c0.89-0.05,1.36-0.11,1.42-0.11c1.21,0,1.78,0.63,1.62,1.96l-1.1,7.87c-0.16,1.16-0.89,1.85-2.25,2.06
			C581.26,82.41,579.16,82.57,577.8,82.57z"/>
		<path style="&st1;" d="M644.13,59.11c-0.21,1.32-0.94,1.96-2.25,1.96h-28.35v0.42c-0.37,3.59,0.42,5.97,2.31,7.13
			c1.89,1.16,5.34,1.74,10.38,1.74c2.99,0,6.34-0.26,9.96-0.74c0.68,0,1.15,0.32,1.42,0.95l0.1,9.3c-0.26,0.79-0.68,1.27-1.21,1.43
			c-3.09,0.9-8.33,1.32-15.77,1.27c-7.39,0-12.94-1.96-16.72-5.92c-3.83-3.91-5.13-10.15-3.98-18.65l1.15-8.08
			c0.21-1.58,0.52-3.12,0.94-4.6c0.37-1.48,1.15-3.33,2.31-5.6c1.15-2.22,2.57-4.12,4.24-5.71c3.35-3.17,9.59-5.97,17.34-5.97
			c7.7,0,13.52,2.54,15.98,5.97c1.21,1.74,2.2,3.59,2.88,5.6c0.68,2.06,0.94,3.96,0.79,5.76c-0.16,1.8-0.26,3.33-0.26,4.54
			L644.13,59.11z M631.66,49.38c0.79-6.08-1.52-9.09-6.97-9.09c-5.55,0-8.75,3.01-9.54,9.09H631.66z"/>
	</g>
</g>
</svg>
