<?xml version="1.0" encoding="utf-8"?>
<!-- Generator: Adobe Illustrator 23.0.0, SVG Export Plug-In . SVG Version: 6.00 Build 0)  -->
<!DOCTYPE svg PUBLIC "-//W3C//DTD SVG 1.1//EN" "http://www.w3.org/Graphics/SVG/1.1/DTD/svg11.dtd" [
	<!ENTITY st0 "fill:#FF4D0F;">
	<!ENTITY st1 "fill:#FFFFFF;">
	<!ENTITY st2 "fill:url(#SVGID_1_);">
	<!ENTITY st3 "fill:url(#SVGID_2_);">
	<!ENTITY st4 "fill:url(#SVGID_3_);">
	<!ENTITY st5 "fill:url(#SVGID_4_);">
	<!ENTITY st6 "fill:url(#SVGID_5_);">
	<!ENTITY st7 "fill:url(#SVGID_6_);">
	<!ENTITY st8 "fill:url(#SVGID_7_);">
	<!ENTITY st9 "fill:url(#SVGID_8_);">
	<!ENTITY st10 "fill:url(#SVGID_9_);">
	<!ENTITY st11 "fill:url(#SVGID_10_);">
	<!ENTITY st12 "fill:url(#SVGID_11_);">
	<!ENTITY st13 "fill:url(#SVGID_12_);">
	<!ENTITY st14 "fill:url(#SVGID_13_);">
	<!ENTITY st15 "fill:url(#SVGID_14_);">
	<!ENTITY st16 "fill:url(#SVGID_15_);">
	<!ENTITY st17 "fill:url(#SVGID_16_);">
	<!ENTITY st18 "fill:#a9eec2;">
	<!ENTITY st19 "font-family:'Anteb-LightItalic';">
	<!ENTITY st20 "font-size:12.6529px;">
]>
<svg version="1.1" id="Capa_1" xmlns="http://www.w3.org/2000/svg" xmlns:xlink="http://www.w3.org/1999/xlink" x="0px" y="0px"
	 viewBox="0 0 647.09 265.72" style="enable-background:new 0 0 647.09 265.72;" xml:space="preserve">
<g>
	<g>
		<g>
			<path style="&st0;" d="M625.67,0.22L0,95.72l630.2-58.57c9.57-0.89,16.89-8.92,16.89-18.53v0C647.09,7.22,636.94-1.5,625.67,0.22
				z"/>
		</g>
	</g>
</g>
<g>
	<path style="&st1;" d="M38.13,13.56c6.86,0,12.42,1.74,15.51,4.23c1.52,1.27,2.83,2.69,3.93,4.23c3.04,4.76,3.2,9.67,3.2,12
		l-0.1,1.16l-1.31,8.98c-0.16,0.58-0.1,1.32-1.26,4.28s-2.52,5.5-5.5,8.88c-2.99,3.38-6.44,5.71-12.26,7.35
		c-2.88,0.84-6.08,1.27-9.48,1.27h-7.65l-1.94,13.84c-0.21,1.32-0.94,1.96-2.15,1.96H9.15c-1,0-1.89-0.74-1.73-1.96l9.01-64.25
		c0.16-1.32,0.84-1.96,2.15-1.96H38.13z M28.69,26.29l-3.67,26.84h7.6c2.31,0,4.35-0.37,7.34-1.85c2.99-1.43,5.29-4.86,5.97-9.93
		l0.42-3.43c0.68-5.07-0.58-8.4-3.25-9.88c-2.67-1.43-4.51-1.74-6.81-1.74H28.69z"/>
	<path style="&st1;" d="M93.61,40.29c-4.4,0-7.65,1-8.49,1.69l-0.52,0.58l-5.19,37.2c-0.21,1.32-0.94,1.96-2.15,1.96h-9.96
		c-1,0-1.89-0.74-1.73-1.96l6.44-46.55c0.26-1.27,4.24-3.01,11-4.28c3.41-0.58,6.97-0.9,10.69-0.9c2.67,0,4.93,0.21,6.86,0.63
		c0.79,0.37,1.15,0.9,1.05,1.64l-1.26,9.09c-0.16,0.95-0.63,1.43-1.31,1.43C97.28,40.45,95.45,40.29,93.61,40.29z"/>
	<path style="&st1;" d="M146.06,33.58c3.41,3.75,4.51,9.88,3.3,18.39l-1,6.71c-2.15,15.96-10.48,23.94-24.99,23.88
		c-14.41,0-20.49-7.98-18.34-23.88l0.94-6.71c2.31-15.96,10.64-23.94,25.05-23.94C137.57,28.03,142.6,29.88,146.06,33.58z
		 M125.1,70.36c2.2,0,4.19-0.74,5.92-2.22s2.72-3.43,3.09-5.92l1.94-13.84c0.58-4.91-2.36-8.08-6.76-8.08
		c-2.25,0-4.19,0.74-5.92,2.22c-1.73,1.48-2.72,3.43-2.99,5.87l-1.94,13.84c-0.37,2.48,0.1,4.44,1.41,5.92
		C121.12,69.62,122.85,70.36,125.1,70.36z M137.31,21.43c-0.89,1.16-1.68,1.74-2.46,1.74h-6.65c-1,0-1.78-0.53-1.57-1.74l6.08-11.15
		c0.68-1.21,1.52-1.85,2.46-1.8h9.12c1,0,1.68,0.69,1.52,1.8L137.31,21.43z"/>
	<path style="&st1;" d="M175.72,66.87l-9.85,13.32c-0.63,1-1.47,1.53-2.46,1.53h-9.8c-1,0-1.83-0.74-1.68-1.96l17.82-24.36
		l-11.06-24.57c0.16-1.32,0.84-1.96,2.15-1.9h9.85c0.89,0,1.62,0.58,2.25,1.69l6.03,13.21l9.64-13.21c0.89-1.16,1.78-1.74,2.67-1.69
		h9.9c1,0,1.89,0.79,1.68,1.9l-17.92,24.57l10.95,24.36c-0.21,1.32-0.94,1.96-2.15,1.96h-9.75c-1.1,0-1.83-0.53-2.25-1.53
		L175.72,66.87z"/>
	<path style="&st1;" d="M219.88,79.77c-0.21,1.32-0.94,1.96-2.15,1.96h-9.96c-1,0-1.89-0.74-1.73-1.96l6.86-48.93
		c0.16-1.32,0.84-1.96,2.15-1.9h10.01c1.21-0.05,1.73,0.58,1.68,1.9L219.88,79.77z M214.23,18.1c0.63-4.54,3.35-6.82,8.23-6.82
		c4.98,0,7.18,2.27,6.55,6.82c-0.58,4.49-3.35,6.71-8.44,6.71C215.8,24.81,213.65,22.59,214.23,18.1z"/>
	<path style="&st1;" d="M273.85,79.77c-0.21,1.32-0.94,1.96-2.15,1.96h-9.96c-1,0-1.89-0.74-1.73-1.96l4.4-31.18
		c0.42-3.22,0.21-5.44-0.68-6.6c-0.89-1.11-2.67-1.69-5.24-1.69c-1.42,0-3.67,0.63-5.14,1.06l-0.94,0.32l-5.4,38.1
		c-0.21,1.32-0.94,1.96-2.15,1.96h-9.96c-1,0-1.89-0.74-1.73-1.96l6.44-46.29c0.21-1.16,2.73-2.38,7.6-3.59
		c4.82-1.22,8.59-1.85,11.27-1.85c3.2,0,5.82,0.32,7.86,0.9c1.99,0.63,4.24,2.01,6.76,4.07c4.24-3.33,9.17-4.97,14.83-4.97
		c5.61,0,8.8,0.69,12.1,2.8c1.62,1.11,2.78,2.59,3.46,4.54c1.26,3.91,2.15,10.04,0.63,18.86l-3.56,25.52
		c-0.21,1.32-0.94,1.96-2.15,1.96h-9.96c-1,0-1.89-0.74-1.73-1.96l4.4-31.39c0.84-6.08-1.42-8.08-6.45-8.08
		c-2.31,0-4.72,0.85-7.18,2.48c0.68,2.7,0.52,7.24-0.42,13.63L273.85,79.77z"/>
	<path style="&st1;" d="M321.27,40.72l-0.42-8.98c0.05-0.69,0.52-1.27,1.36-1.64c4.45-1.37,9.75-2.06,15.98-2.06
		c13.62,0,20.54,7.24,18.71,21.14l-4.09,28.75c-0.16,1.16-2.83,2.22-8.07,3.17c-5.29,1-9.69,1.48-13.2,1.48
		c-6.03,0-10.01-0.63-13.89-2.8c-3.88-2.17-5.5-6.71-4.66-13.32c0.94-6.55,3.25-11.1,6.92-13.58c3.62-2.48,8.33-3.7,14.04-3.7h8.23
		l0.1-0.69c0.84-6.08-1.83-8.19-8.59-8.19c-3.2-0.05-6.92,0.42-11.06,1.37C321.95,41.67,321.48,41.35,321.27,40.72z M341.44,60.16
		h-4.51c-6.13,0-9.43,1.74-9.9,5.23c-0.58,4.28,1.05,5.6,5.92,5.6c4.66,0,7.13-0.85,7.39-2.59L341.44,60.16z"/>
	<path style="&st1;" d="M405.99,79.77c-0.21,1.32-0.94,1.96-2.15,1.96h-9.96c-1,0-1.89-0.74-1.73-1.96l4.4-31.18
		c0.42-3.22,0.21-5.44-0.68-6.6c-0.89-1.11-2.67-1.69-5.24-1.69c-1.42,0-3.67,0.63-5.14,1.06l-0.94,0.32l-5.4,38.1
		c-0.21,1.32-0.94,1.96-2.15,1.96h-9.96c-1,0-1.89-0.74-1.73-1.96l6.44-46.29c0.21-1.16,2.73-2.38,7.6-3.59
		c4.82-1.22,8.59-1.85,11.27-1.85c3.2,0,5.82,0.32,7.86,0.9c1.99,0.63,4.24,2.01,6.76,4.07c4.24-3.33,9.17-4.97,14.83-4.97
		c5.61,0,8.8,0.69,12.1,2.8c1.62,1.11,2.78,2.59,3.46,4.54c1.26,3.91,2.15,10.04,0.63,18.86l-3.56,25.52
		c-0.21,1.32-0.94,1.96-2.15,1.96h-9.96c-1,0-1.89-0.74-1.73-1.96l4.4-31.39c0.84-6.08-1.42-8.08-6.45-8.08
		c-2.31,0-4.72,0.85-7.18,2.48c0.68,2.7,0.52,7.24-0.42,13.63L405.99,79.77z"/>
	<path style="&st1;" d="M490.98,59.11c-0.21,1.32-0.94,1.96-2.25,1.96h-28.35v0.42c-0.37,3.59,0.42,5.97,2.31,7.13
		c1.89,1.16,5.34,1.74,10.38,1.74c2.99,0,6.34-0.26,9.96-0.74c0.68,0,1.15,0.32,1.42,0.95l0.1,9.3c-0.26,0.79-0.68,1.27-1.21,1.43
		c-3.09,0.9-8.33,1.32-15.77,1.27c-7.39,0-12.94-1.96-16.72-5.92c-3.83-3.91-5.13-10.15-3.98-18.65l1.15-8.08
		c0.21-1.58,0.52-3.12,0.94-4.6c0.37-1.48,1.15-3.33,2.31-5.6c1.15-2.22,2.57-4.12,4.24-5.71c3.35-3.17,9.59-5.97,17.34-5.97
		c7.7,0,13.52,2.54,15.98,5.97c1.21,1.74,2.2,3.59,2.88,5.6c0.68,2.06,0.94,3.96,0.79,5.76c-0.16,1.8-0.26,3.33-0.26,4.54
		L490.98,59.11z M478.51,49.38c0.79-6.08-1.52-9.09-6.97-9.09c-5.55,0-8.75,3.01-9.54,9.09H478.51z"/>
	<path style="&st1;" d="M535.57,48.59c0.37-3.01-0.31-5.18-1.99-6.45c-1.68-1.21-3.88-1.85-6.6-1.85c-1.89,0-4.72,0.53-6.34,0.95
		l-1.15,0.32l-5.4,38.2c-0.21,1.32-0.94,1.96-2.15,1.96h-9.96c-1,0-1.89-0.74-1.73-1.96l6.44-46.55c0.21-1.16,3.25-2.33,9.12-3.49
		c5.87-1.11,10.64-1.69,14.25-1.69c7.23,0,12.47,1.96,15.72,5.87c3.2,3.96,4.09,11.15,2.67,21.61L545,79.77
		c-0.21,1.32-0.94,1.96-2.15,1.96h-9.96c-1,0-1.89-0.85-1.73-1.96L535.57,48.59z"/>
	<path style="&st1;" d="M577.8,82.57c-11.37,0-16.19-6.29-14.36-18.92l3.09-22.51h-5.24c-1.21,0-1.78-0.63-1.62-1.96l1.21-8.35
		c0.16-1,0.94-1.9,2.15-1.9h5.24l0.94-6.5l2.41-6.82c0.58-1.37,1.36-2.06,2.36-2.06h8.33c1,0,1.89,0.74,1.73,1.96l-1.94,13.42h8.38
		c1.1,0,1.89,0.9,1.73,1.9L591,39.18c-0.16,1-1.05,1.96-2.25,1.96h-8.38l-3.09,22.3c-0.63,4.6,1.26,6.92,5.61,6.92
		c0.16,0,0.68-0.05,1.57-0.11c0.89-0.05,1.36-0.11,1.42-0.11c1.21,0,1.78,0.63,1.62,1.96l-1.1,7.87c-0.16,1.16-0.89,1.85-2.25,2.06
		C581.26,82.41,579.16,82.57,577.8,82.57z"/>
	<path style="&st1;" d="M644.13,59.11c-0.21,1.32-0.94,1.96-2.25,1.96h-28.35v0.42c-0.37,3.59,0.42,5.97,2.31,7.13
		c1.89,1.16,5.34,1.74,10.38,1.74c2.99,0,6.34-0.26,9.96-0.74c0.68,0,1.15,0.32,1.42,0.95l0.1,9.3c-0.26,0.79-0.68,1.27-1.21,1.43
		c-3.09,0.9-8.33,1.32-15.77,1.27c-7.39,0-12.94-1.96-16.72-5.92c-3.83-3.91-5.13-10.15-3.98-18.65l1.15-8.08
		c0.21-1.58,0.52-3.12,0.94-4.6c0.37-1.48,1.15-3.33,2.31-5.6c1.15-2.22,2.57-4.12,4.24-5.71c3.35-3.17,9.59-5.97,17.34-5.97
		c7.7,0,13.52,2.54,15.98,5.97c1.21,1.74,2.2,3.59,2.88,5.6c0.68,2.06,0.94,3.96,0.79,5.76c-0.16,1.8-0.26,3.33-0.26,4.54
		L644.13,59.11z M631.66,49.38c0.79-6.08-1.52-9.09-6.97-9.09c-5.55,0-8.75,3.01-9.54,9.09H631.66z"/>
</g>
<g>
	<g>
		<linearGradient id="SVGID_1_" gradientUnits="userSpaceOnUse" x1="241.8363" y1="142.87" x2="597.2847" y2="142.87">
			<stop  offset="0" style="stop-color:#FF4D0F;stop-opacity:0"/>
			<stop  offset="1" style="stop-color:#FF4D0F"/>
		</linearGradient>
		<path style="&st2;" d="M253.27,120.44h6.01c0.53,0,1.01,0.39,0.92,1.03l-4.81,33.99c-0.11,0.7-0.5,1.03-1.15,1.03h-5.31
			c-0.53,0-1.01-0.39-0.92-1.03l3.89-27.59l-8.86,4.05c-0.59,0-0.87-0.25-0.87-0.73l-0.33-4.53c0.06-0.7,0.33-1.15,0.84-1.37
			L253.27,120.44z"/>
		<linearGradient id="SVGID_2_" gradientUnits="userSpaceOnUse" x1="241.8363" y1="142.87" x2="597.2847" y2="142.87">
			<stop  offset="0" style="stop-color:#FF4D0F;stop-opacity:0"/>
			<stop  offset="1" style="stop-color:#FF4D0F"/>
		</linearGradient>
		<path style="&st3;" d="M264.06,156.83c-1.82-0.64-2.63-1.98-2.4-4c0.2-1.09,0.75-2.07,1.68-2.91c0.92-0.81,1.93-1.23,3.08-1.23
			c1.09,0,2.01,0.42,2.71,1.23c0.7,0.84,0.95,1.82,0.78,2.91c-0.11,0.84-0.59,2.13-1.4,3.89s-1.65,3.3-2.49,4.64
			c-0.25,0.33-0.56,0.5-0.92,0.53h-2.24c-0.53,0-0.75-0.28-0.73-0.81C263.16,159.21,263.8,157.81,264.06,156.83z"/>
		<linearGradient id="SVGID_3_" gradientUnits="userSpaceOnUse" x1="241.8363" y1="142.87" x2="597.2847" y2="142.87">
			<stop  offset="0" style="stop-color:#FF4D0F;stop-opacity:0"/>
			<stop  offset="1" style="stop-color:#FF4D0F"/>
		</linearGradient>
		<path style="&st4;" d="M292.37,127.48l-1.15-4.53c0.03-0.53,0.22-0.89,0.56-1.03c2.71-1.31,6.07-1.96,10.09-1.96
			c3.49,0,6.18,0.89,8.05,2.68c1.84,1.82,2.54,4.3,2.07,7.52c-0.25,1.82-0.98,3.52-2.13,5.12c-1.17,1.59-2.54,2.93-4.08,4.05
			c-1.54,1.15-3.1,2.24-4.64,3.27c-1.54,1.06-2.93,2.21-4.14,3.41c-1.23,1.23-1.99,2.46-2.29,3.72h13.5c0.59,0,1.01,0.5,0.92,1.03
			l-0.7,4.7c-0.08,0.53-0.5,1.03-1.15,1.03h-20.1c-0.53,0-0.98-0.39-0.89-1.03l0.67-4.92c0.53-3.66,2.66-6.93,5.14-8.97
			c1.23-1.01,2.54-2.01,3.97-3.02c2.82-2.01,5.31-3.27,7.02-5.2c0.87-0.95,1.34-1.93,1.45-2.91c0.36-2.49-1.31-3.72-5.09-3.72
			c-1.65,0-3.8,0.42-6.43,1.26C292.7,127.99,292.48,127.82,292.37,127.48z"/>
		<linearGradient id="SVGID_4_" gradientUnits="userSpaceOnUse" x1="241.8363" y1="142.87" x2="597.2847" y2="142.87">
			<stop  offset="0" style="stop-color:#FF4D0F;stop-opacity:0"/>
			<stop  offset="1" style="stop-color:#FF4D0F"/>
		</linearGradient>
		<path style="&st5;" d="M322.02,163.88l1.2-4c0.14-0.34,0.42-0.5,0.81-0.53c1.03,0.31,2.07,0.45,3.1,0.47
			c2.32,0,3.86-0.39,4.56-1.17c0.7-0.78,1.2-2.26,1.51-4.44l-4.86-24.63c0.08-0.59,0.59-1.01,1.15-1.01h5.31
			c0.64,0,1.01,0.31,1.03,0.89l2.8,18.62l7.97-18.62c0.25-0.62,0.67-0.92,1.26-0.89h5.28c0.53,0,0.98,0.42,0.89,1.01l-11.96,25.38
			c-1.82,4.05-4.19,6.9-5.95,8.36c-0.87,0.73-1.87,1.29-3.02,1.68c-1.15,0.36-2.1,0.59-2.82,0.67s-1.65,0.11-2.74,0.11
			c-2.66,0-4.36-0.25-5.09-0.75C322.13,164.8,321.99,164.41,322.02,163.88z"/>
		<linearGradient id="SVGID_5_" gradientUnits="userSpaceOnUse" x1="241.8363" y1="142.87" x2="597.2847" y2="142.87">
			<stop  offset="0" style="stop-color:#FF4D0F;stop-opacity:0"/>
			<stop  offset="1" style="stop-color:#FF4D0F"/>
		</linearGradient>
		<path style="&st6;" d="M384.62,154.12c-2.54,1.87-5.59,2.82-9.14,2.82c-3.61,0-6.6-0.59-9-1.76c-0.25-0.14-0.36-0.5-0.34-1.04
			l2.29-4.42c0.2-0.34,0.48-0.5,0.84-0.5c1.9,0.64,3.8,0.98,5.73,0.98s3.49-0.28,4.67-0.84c1.17-0.56,1.87-1.68,2.1-3.35l0.06-0.34
			c0.36-2.6-0.84-3.89-3.61-3.89h-3.61c-0.59,0-1.01-0.5-0.92-1.03l0.64-4.58c0.14-0.7,0.56-1.03,1.2-1.03h3.61
			c2.79,0,4.36-1.29,4.7-3.89l0.06-0.34c0.22-1.68-0.17-2.79-1.15-3.35c-1.01-0.56-2.49-0.84-4.42-0.84s-3.94,0.34-6.01,0.98
			c-0.36,0-0.62-0.17-0.75-0.53l-1.03-4.39c0.08-0.53,0.28-0.89,0.64-1.03c2.74-1.17,5.9-1.76,9.5-1.79c3.55,0,6.32,0.92,8.33,2.8
			c1.99,1.87,2.77,4.5,2.32,7.85c-0.59,3.89-2.68,6.49-6.35,7.8c3.27,1.4,4.67,4.03,4.17,7.88
			C388.68,149.65,387.17,152.25,384.62,154.12z"/>
		<linearGradient id="SVGID_6_" gradientUnits="userSpaceOnUse" x1="241.8363" y1="142.87" x2="597.2847" y2="142.87">
			<stop  offset="0" style="stop-color:#FF4D0F;stop-opacity:0"/>
			<stop  offset="1" style="stop-color:#FF4D0F"/>
		</linearGradient>
		<path style="&st7;" d="M416.95,155.41c-0.06,0.32-1.94,0.77-4.68,1.09c-1.37,0.16-2.66,0.24-3.85,0.24c-5.4,0-7.6-3.49-6.61-10.47
			c0.48-3.51,1.87-6.27,3.61-7.7c1.73-1.43,3.47-2.14,5.28-2.14c2.24,0,4.13,0.32,5.61,0.93l0.81-5.85
			c0.02-0.42,0.26-0.61,0.67-0.59h2c0.4-0.02,0.58,0.18,0.52,0.59L416.95,155.41z M414.07,153.09l1.79-12.75
			c-1.87-0.54-3.33-0.81-4.42-0.81c-2.38,0-4.05,0.77-4.94,2.2c-0.89,1.45-1.27,2.74-1.53,4.74c-0.1,0.83-0.18,1.51-0.22,2.04
			c-0.04,0.54-0.02,1.17,0.08,1.88c0.1,0.71,0.3,1.29,0.61,1.71c0.62,0.85,2,1.57,4.01,1.57c0.99,0,2.94-0.28,3.89-0.42
			L414.07,153.09z"/>
		<linearGradient id="SVGID_7_" gradientUnits="userSpaceOnUse" x1="241.8363" y1="142.87" x2="597.2847" y2="142.87">
			<stop  offset="0" style="stop-color:#FF4D0F;stop-opacity:0"/>
			<stop  offset="1" style="stop-color:#FF4D0F"/>
		</linearGradient>
		<path style="&st8;" d="M439.9,145.29l-0.38,2.6c-0.81,5.89-3.87,8.85-9.18,8.85c-2.4,0-4.25-0.69-5.5-2.08
			c-1.25-1.37-1.67-3.63-1.25-6.76l0.38-2.6c0.44-3.15,1.49-5.42,3.13-6.8c1.65-1.37,3.69-2.06,6.09-2.06
			C438.47,136.42,440.71,139.38,439.9,145.29z M430.75,153.66c1.35,0,2.54-0.44,3.59-1.33c1.05-0.87,1.67-2.02,1.84-3.43l0.65-4.62
			c0.18-1.41-0.12-2.54-0.89-3.43s-1.84-1.33-3.19-1.33c-1.37,0-2.56,0.44-3.59,1.31c-1.03,0.89-1.65,2.04-1.83,3.45l-0.65,4.62
			c-0.18,1.41,0.12,2.54,0.89,3.43S429.4,153.66,430.75,153.66z"/>
		<linearGradient id="SVGID_8_" gradientUnits="userSpaceOnUse" x1="241.8363" y1="142.87" x2="597.2847" y2="142.87">
			<stop  offset="0" style="stop-color:#FF4D0F;stop-opacity:0"/>
			<stop  offset="1" style="stop-color:#FF4D0F"/>
		</linearGradient>
		<path style="&st9;" d="M450.39,139.86c-0.52,0.2-0.91,0.46-0.97,0.56l-0.04,0.12l-2.16,15.35c-0.08,0.42-0.3,0.62-0.67,0.62h-2
			c-0.32,0-0.58-0.22-0.52-0.62l2.52-17.91c0.06-0.38,1.33-0.93,3.49-1.29c1.09-0.18,2.2-0.26,3.33-0.26c1.19,0,2.14,0.12,2.88,0.34
			c0.26,0.08,0.38,0.24,0.32,0.48l-0.28,2.08c-0.06,0.3-0.2,0.44-0.44,0.44C453.48,139.3,451.1,139.58,450.39,139.86z"/>
		<linearGradient id="SVGID_9_" gradientUnits="userSpaceOnUse" x1="241.8363" y1="142.87" x2="597.2847" y2="142.87">
			<stop  offset="0" style="stop-color:#FF4D0F;stop-opacity:0"/>
			<stop  offset="1" style="stop-color:#FF4D0F"/>
		</linearGradient>
		<path style="&st10;" d="M471.83,144.4c0.26-1.88,0.12-3.17-0.44-3.87c-0.58-0.67-1.65-1.01-3.25-1.01c-0.36,0-0.87,0.04-1.53,0.14
			c-0.65,0.1-1.23,0.18-1.73,0.26l-0.73,0.18l-2.2,15.79c-0.08,0.42-0.3,0.62-0.67,0.62h-2c-0.32,0-0.58-0.22-0.52-0.62l2.52-18.11
			c0.02-0.24,0.91-0.52,2.66-0.85c1.75-0.34,3.05-0.5,3.95-0.5c0.97,0,1.75,0.04,2.32,0.1c0.58,0.08,1.23,0.3,2,0.66
			c0.75,0.38,1.45,0.91,2.06,1.61c1.47-1.57,3.53-2.36,6.21-2.36c2.28,0,3.95,0.59,5,1.77c1.05,1.17,1.37,3.25,0.93,6.25
			l-1.59,11.45c-0.08,0.42-0.3,0.62-0.67,0.62h-2c-0.32,0-0.58-0.22-0.52-0.62l1.63-11.6c0.24-1.79,0.02-3.03-0.63-3.73
			c-0.66-0.69-1.75-1.03-3.23-1.03c-1.13,0-2.54,0.61-4.23,1.82c0.1,0.81-0.02,2.52-0.4,5.16l-1.31,9.38
			c-0.08,0.42-0.32,0.62-0.69,0.62h-1.98c-0.32,0-0.59-0.24-0.54-0.62L471.83,144.4z"/>
		<linearGradient id="SVGID_10_" gradientUnits="userSpaceOnUse" x1="241.8363" y1="142.87" x2="597.2847" y2="142.87">
			<stop  offset="0" style="stop-color:#FF4D0F;stop-opacity:0"/>
			<stop  offset="1" style="stop-color:#FF4D0F"/>
		</linearGradient>
		<path style="&st11;" d="M493.63,155.88c-0.08,0.42-0.3,0.62-0.67,0.62h-2c-0.32,0-0.58-0.22-0.52-0.62l2.6-18.61
			c0.06-0.42,0.28-0.62,0.69-0.59h1.98c0.38-0.02,0.56,0.18,0.54,0.59L493.63,155.88z M493.23,133.27c0.16-1.17,0.89-1.75,2.2-1.77
			c1.13,0,1.83,0.63,1.67,1.77c-0.18,1.17-0.89,1.75-2.16,1.75C493.81,135.02,493.07,134.46,493.23,133.27z"/>
		<linearGradient id="SVGID_11_" gradientUnits="userSpaceOnUse" x1="241.8363" y1="142.87" x2="597.2847" y2="142.87">
			<stop  offset="0" style="stop-color:#FF4D0F;stop-opacity:0"/>
			<stop  offset="1" style="stop-color:#FF4D0F"/>
		</linearGradient>
		<path style="&st12;" d="M510.77,154.22l-0.24,1.79c-0.06,0.36-0.28,0.58-0.69,0.66c-0.36,0.06-0.89,0.08-1.59,0.08
			c-3.99,0-5.65-2.24-5.04-6.75l1.43-10.24h-3.37c-0.38,0-0.55-0.2-0.5-0.59l0.24-1.88c0.06-0.42,0.28-0.62,0.69-0.59h3.37
			l0.42-2.82l0.67-2.36c0.14-0.42,0.36-0.61,0.69-0.59h1.67c0.42,0,0.59,0.2,0.54,0.59l-0.73,5.18h3.91c0.42,0,0.58,0.2,0.52,0.59
			l-0.24,1.88c-0.06,0.42-0.3,0.62-0.73,0.59h-3.91l-1.33,9.64c-0.06,0.69-0.06,1.37-0.04,2s0.3,1.17,0.83,1.61s1.31,0.65,2.34,0.65
			c0.16,0,0.5-0.04,0.59-0.04C510.65,153.62,510.83,153.82,510.77,154.22z"/>
		<linearGradient id="SVGID_12_" gradientUnits="userSpaceOnUse" x1="241.8363" y1="142.87" x2="597.2847" y2="142.87">
			<stop  offset="0" style="stop-color:#FF4D0F;stop-opacity:0"/>
			<stop  offset="1" style="stop-color:#FF4D0F"/>
		</linearGradient>
		<path style="&st13;" d="M532.94,145.29l-0.38,2.6c-0.81,5.89-3.87,8.85-9.18,8.85c-2.4,0-4.25-0.69-5.5-2.08
			c-1.25-1.37-1.67-3.63-1.25-6.76l0.38-2.6c0.44-3.15,1.49-5.42,3.13-6.8c1.65-1.37,3.69-2.06,6.09-2.06
			C531.52,136.42,533.76,139.38,532.94,145.29z M523.8,153.66c1.35,0,2.54-0.44,3.59-1.33c1.05-0.87,1.67-2.02,1.84-3.43l0.65-4.62
			c0.18-1.41-0.12-2.54-0.89-3.43s-1.84-1.33-3.19-1.33c-1.37,0-2.56,0.44-3.59,1.31c-1.03,0.89-1.65,2.04-1.83,3.45l-0.65,4.62
			c-0.18,1.41,0.12,2.54,0.89,3.43S522.45,153.66,523.8,153.66z"/>
		<linearGradient id="SVGID_13_" gradientUnits="userSpaceOnUse" x1="241.8363" y1="142.87" x2="597.2847" y2="142.87">
			<stop  offset="0" style="stop-color:#FF4D0F;stop-opacity:0"/>
			<stop  offset="1" style="stop-color:#FF4D0F"/>
		</linearGradient>
		<path style="&st14;" d="M543.44,139.86c-0.52,0.2-0.91,0.46-0.97,0.56l-0.04,0.12l-2.16,15.35c-0.08,0.42-0.3,0.62-0.67,0.62h-2
			c-0.32,0-0.58-0.22-0.52-0.62l2.52-17.91c0.06-0.38,1.33-0.93,3.49-1.29c1.09-0.18,2.2-0.26,3.33-0.26c1.19,0,2.14,0.12,2.88,0.34
			c0.26,0.08,0.38,0.24,0.32,0.48l-0.28,2.08c-0.06,0.3-0.2,0.44-0.44,0.44C546.53,139.3,544.15,139.58,543.44,139.86z"/>
		<linearGradient id="SVGID_14_" gradientUnits="userSpaceOnUse" x1="241.8363" y1="142.87" x2="597.2847" y2="142.87">
			<stop  offset="0" style="stop-color:#FF4D0F;stop-opacity:0"/>
			<stop  offset="1" style="stop-color:#FF4D0F"/>
		</linearGradient>
		<path style="&st15;" d="M555,155.88c-0.08,0.42-0.3,0.62-0.67,0.62h-2c-0.32,0-0.58-0.22-0.52-0.62l2.6-18.61
			c0.06-0.42,0.28-0.62,0.69-0.59h1.98c0.38-0.02,0.56,0.18,0.54,0.59L555,155.88z M554.6,133.27c0.16-1.17,0.89-1.75,2.2-1.77
			c1.13,0,1.82,0.63,1.67,1.77c-0.18,1.17-0.89,1.75-2.16,1.75C555.18,135.02,554.44,134.46,554.6,133.27z"/>
		<linearGradient id="SVGID_15_" gradientUnits="userSpaceOnUse" x1="241.8363" y1="142.87" x2="597.2847" y2="142.87">
			<stop  offset="0" style="stop-color:#FF4D0F;stop-opacity:0"/>
			<stop  offset="1" style="stop-color:#FF4D0F"/>
		</linearGradient>
		<path style="&st16;" d="M577.99,145.29l-0.38,2.6c-0.81,5.89-3.87,8.85-9.18,8.85c-2.4,0-4.25-0.69-5.5-2.08
			c-1.25-1.37-1.67-3.63-1.25-6.76l0.38-2.6c0.44-3.15,1.49-5.42,3.13-6.8c1.65-1.37,3.69-2.06,6.09-2.06
			C576.56,136.42,578.8,139.38,577.99,145.29z M568.85,153.66c1.35,0,2.54-0.44,3.59-1.33c1.05-0.87,1.67-2.02,1.84-3.43l0.65-4.62
			c0.18-1.41-0.12-2.54-0.89-3.43s-1.84-1.33-3.19-1.33c-1.37,0-2.56,0.44-3.59,1.31c-1.03,0.89-1.65,2.04-1.83,3.45l-0.65,4.62
			c-0.18,1.41,0.12,2.54,0.89,3.43S567.5,153.66,568.85,153.66z"/>
		<linearGradient id="SVGID_16_" gradientUnits="userSpaceOnUse" x1="241.8363" y1="142.87" x2="597.2847" y2="142.87">
			<stop  offset="0" style="stop-color:#FF4D0F;stop-opacity:0"/>
			<stop  offset="1" style="stop-color:#FF4D0F"/>
		</linearGradient>
		<path style="&st17;" d="M591.73,139.4c-1.33,0-2.4,0.18-3.21,0.54c-0.83,0.38-1.37,0.71-1.59,1.05c-0.24,0.34-0.38,0.67-0.4,1.01
			c-0.1,0.73,0.22,1.33,0.97,1.82c0.75,0.5,1.69,0.89,2.82,1.19c1.13,0.32,2.24,0.67,3.37,1.09c1.13,0.42,2.04,1.05,2.76,1.88
			c0.69,0.85,0.95,1.9,0.77,3.15c-0.54,3.75-3.45,5.61-8.71,5.59c-2.82,0-5.08-0.58-6.78-1.71c-0.22-0.14-0.3-0.34-0.24-0.6
			l0.16-0.5l0.73-1.35c0.08-0.18,0.24-0.28,0.5-0.28l0.2,0.08c1.65,0.93,3.49,1.39,5.51,1.39c1.8,0,3.13-0.18,3.95-0.56
			c0.81-0.38,1.29-1.05,1.43-2.04c0.1-0.81-0.22-1.47-0.97-1.98c-0.77-0.5-1.71-0.91-2.84-1.21c-1.13-0.3-2.24-0.63-3.37-1.01
			c-1.13-0.38-2.04-0.99-2.74-1.86c-0.69-0.85-0.95-1.94-0.77-3.27c0.26-1.86,1.19-3.23,2.76-4.11c1.57-0.87,3.33-1.31,5.3-1.31
			c1.71,0,3.41,0.2,5.12,0.61c0.22,0.1,0.3,0.26,0.28,0.46c0,0.08-0.04,0.24-0.12,0.48l-0.73,1.67c-0.1,0.18-0.26,0.28-0.5,0.28
			C593.26,139.56,592.05,139.38,591.73,139.4z"/>
	</g>
	<g>
		<path style="&st18;" d="M253.27,120.44h6.01c0.53,0,1.01,0.39,0.92,1.03l-4.81,33.99c-0.11,0.7-0.5,1.03-1.15,1.03h-5.31
			c-0.53,0-1.01-0.39-0.92-1.03l3.89-27.59l-8.86,4.05c-0.59,0-0.87-0.25-0.87-0.73l-0.33-4.53c0.06-0.7,0.33-1.15,0.84-1.37
			L253.27,120.44z"/>
		<path style="&st18;" d="M264.06,156.83c-1.82-0.64-2.63-1.98-2.4-4c0.2-1.09,0.75-2.07,1.68-2.91c0.92-0.81,1.93-1.23,3.08-1.23
			c1.09,0,2.01,0.42,2.71,1.23c0.7,0.84,0.95,1.82,0.78,2.91c-0.11,0.84-0.59,2.13-1.4,3.89s-1.65,3.3-2.49,4.64
			c-0.25,0.33-0.56,0.5-0.92,0.53h-2.24c-0.53,0-0.75-0.28-0.73-0.81C263.16,159.21,263.8,157.81,264.06,156.83z"/>
		<path style="&st18;" d="M292.37,127.48l-1.15-4.53c0.03-0.53,0.22-0.89,0.56-1.03c2.71-1.31,6.07-1.96,10.09-1.96
			c3.49,0,6.18,0.89,8.05,2.68c1.84,1.82,2.54,4.3,2.07,7.52c-0.25,1.82-0.98,3.52-2.13,5.12c-1.17,1.59-2.54,2.93-4.08,4.05
			c-1.54,1.15-3.1,2.24-4.64,3.27c-1.54,1.06-2.93,2.21-4.14,3.41c-1.23,1.23-1.99,2.46-2.29,3.72h13.5c0.59,0,1.01,0.5,0.92,1.03
			l-0.7,4.7c-0.08,0.53-0.5,1.03-1.15,1.03h-20.1c-0.53,0-0.98-0.39-0.89-1.03l0.67-4.92c0.53-3.66,2.66-6.93,5.14-8.97
			c1.23-1.01,2.54-2.01,3.97-3.02c2.82-2.01,5.31-3.27,7.02-5.2c0.87-0.95,1.34-1.93,1.45-2.91c0.36-2.49-1.31-3.72-5.09-3.72
			c-1.65,0-3.8,0.42-6.43,1.26C292.7,127.99,292.48,127.82,292.37,127.48z"/>
		<path style="&st18;" d="M322.02,163.88l1.2-4c0.14-0.34,0.42-0.5,0.81-0.53c1.03,0.31,2.07,0.45,3.1,0.47
			c2.32,0,3.86-0.39,4.56-1.17c0.7-0.78,1.2-2.26,1.51-4.44l-4.86-24.63c0.08-0.59,0.59-1.01,1.15-1.01h5.31
			c0.64,0,1.01,0.31,1.03,0.89l2.8,18.62l7.97-18.62c0.25-0.62,0.67-0.92,1.26-0.89h5.28c0.53,0,0.98,0.42,0.89,1.01l-11.96,25.38
			c-1.82,4.05-4.19,6.9-5.95,8.36c-0.87,0.73-1.87,1.29-3.02,1.68c-1.15,0.36-2.1,0.59-2.82,0.67s-1.65,0.11-2.74,0.11
			c-2.66,0-4.36-0.25-5.09-0.75C322.13,164.8,321.99,164.41,322.02,163.88z"/>
		<path style="&st18;" d="M384.62,154.12c-2.54,1.87-5.59,2.82-9.14,2.82c-3.61,0-6.6-0.59-9-1.76c-0.25-0.14-0.36-0.5-0.34-1.04
			l2.29-4.42c0.2-0.34,0.48-0.5,0.84-0.5c1.9,0.64,3.8,0.98,5.73,0.98s3.49-0.28,4.67-0.84c1.17-0.56,1.87-1.68,2.1-3.35l0.06-0.34
			c0.36-2.6-0.84-3.89-3.61-3.89h-3.61c-0.59,0-1.01-0.5-0.92-1.03l0.64-4.58c0.14-0.7,0.56-1.03,1.2-1.03h3.61
			c2.79,0,4.36-1.29,4.7-3.89l0.06-0.34c0.22-1.68-0.17-2.79-1.15-3.35c-1.01-0.56-2.49-0.84-4.42-0.84s-3.94,0.34-6.01,0.98
			c-0.36,0-0.62-0.17-0.75-0.53l-1.03-4.39c0.08-0.53,0.28-0.89,0.64-1.03c2.74-1.17,5.9-1.76,9.5-1.79c3.55,0,6.32,0.92,8.33,2.8
			c1.99,1.87,2.77,4.5,2.32,7.85c-0.59,3.89-2.68,6.49-6.35,7.8c3.27,1.4,4.67,4.03,4.17,7.88
			C388.68,149.65,387.17,152.25,384.62,154.12z"/>
		<path style="&st1;" d="M416.95,155.41c-0.06,0.32-1.94,0.77-4.68,1.09c-1.37,0.16-2.66,0.24-3.85,0.24c-5.4,0-7.6-3.49-6.61-10.47
			c0.48-3.51,1.87-6.27,3.61-7.7c1.73-1.43,3.47-2.14,5.28-2.14c2.24,0,4.13,0.32,5.61,0.93l0.81-5.85
			c0.02-0.42,0.26-0.61,0.67-0.59h2c0.4-0.02,0.58,0.18,0.52,0.59L416.95,155.41z M414.07,153.09l1.79-12.75
			c-1.87-0.54-3.33-0.81-4.42-0.81c-2.38,0-4.05,0.77-4.94,2.2c-0.89,1.45-1.27,2.74-1.53,4.74c-0.1,0.83-0.18,1.51-0.22,2.04
			c-0.04,0.54-0.02,1.17,0.08,1.88c0.1,0.71,0.3,1.29,0.61,1.71c0.62,0.85,2,1.57,4.01,1.57c0.99,0,2.94-0.28,3.89-0.42
			L414.07,153.09z"/>
		<path style="&st1;" d="M439.9,145.29l-0.38,2.6c-0.81,5.89-3.87,8.85-9.18,8.85c-2.4,0-4.25-0.69-5.5-2.08
			c-1.25-1.37-1.67-3.63-1.25-6.76l0.38-2.6c0.44-3.15,1.49-5.42,3.13-6.8c1.65-1.37,3.69-2.06,6.09-2.06
			C438.47,136.42,440.71,139.38,439.9,145.29z M430.75,153.66c1.35,0,2.54-0.44,3.59-1.33c1.05-0.87,1.67-2.02,1.84-3.43l0.65-4.62
			c0.18-1.41-0.12-2.54-0.89-3.43s-1.84-1.33-3.19-1.33c-1.37,0-2.56,0.44-3.59,1.31c-1.03,0.89-1.65,2.04-1.83,3.45l-0.65,4.62
			c-0.18,1.41,0.12,2.54,0.89,3.43S429.4,153.66,430.75,153.66z"/>
		<path style="&st1;" d="M450.39,139.86c-0.52,0.2-0.91,0.46-0.97,0.56l-0.04,0.12l-2.16,15.35c-0.08,0.42-0.3,0.62-0.67,0.62h-2
			c-0.32,0-0.58-0.22-0.52-0.62l2.52-17.91c0.06-0.38,1.33-0.93,3.49-1.29c1.09-0.18,2.2-0.26,3.33-0.26c1.19,0,2.14,0.12,2.88,0.34
			c0.26,0.08,0.38,0.24,0.32,0.48l-0.28,2.08c-0.06,0.3-0.2,0.44-0.44,0.44C453.48,139.3,451.1,139.58,450.39,139.86z"/>
		<path style="&st1;" d="M471.83,144.4c0.26-1.88,0.12-3.17-0.44-3.87c-0.58-0.67-1.65-1.01-3.25-1.01c-0.36,0-0.87,0.04-1.53,0.14
			c-0.65,0.1-1.23,0.18-1.73,0.26l-0.73,0.18l-2.2,15.79c-0.08,0.42-0.3,0.62-0.67,0.62h-2c-0.32,0-0.58-0.22-0.52-0.62l2.52-18.11
			c0.02-0.24,0.91-0.52,2.66-0.85c1.75-0.34,3.05-0.5,3.95-0.5c0.97,0,1.75,0.04,2.32,0.1c0.58,0.08,1.23,0.3,2,0.66
			c0.75,0.38,1.45,0.91,2.06,1.61c1.47-1.57,3.53-2.36,6.21-2.36c2.28,0,3.95,0.59,5,1.77c1.05,1.17,1.37,3.25,0.93,6.25
			l-1.59,11.45c-0.08,0.42-0.3,0.62-0.67,0.62h-2c-0.32,0-0.58-0.22-0.52-0.62l1.63-11.6c0.24-1.79,0.02-3.03-0.63-3.73
			c-0.66-0.69-1.75-1.03-3.23-1.03c-1.13,0-2.54,0.61-4.23,1.82c0.1,0.81-0.02,2.52-0.4,5.16l-1.31,9.38
			c-0.08,0.42-0.32,0.62-0.69,0.62h-1.98c-0.32,0-0.59-0.24-0.54-0.62L471.83,144.4z"/>
		<path style="&st1;" d="M493.63,155.88c-0.08,0.42-0.3,0.62-0.67,0.62h-2c-0.32,0-0.58-0.22-0.52-0.62l2.6-18.61
			c0.06-0.42,0.28-0.62,0.69-0.59h1.98c0.38-0.02,0.56,0.18,0.54,0.59L493.63,155.88z M493.23,133.27c0.16-1.17,0.89-1.75,2.2-1.77
			c1.13,0,1.83,0.63,1.67,1.77c-0.18,1.17-0.89,1.75-2.16,1.75C493.81,135.02,493.07,134.46,493.23,133.27z"/>
		<path style="&st1;" d="M510.77,154.22l-0.24,1.79c-0.06,0.36-0.28,0.58-0.69,0.66c-0.36,0.06-0.89,0.08-1.59,0.08
			c-3.99,0-5.65-2.24-5.04-6.75l1.43-10.24h-3.37c-0.38,0-0.55-0.2-0.5-0.59l0.24-1.88c0.06-0.42,0.28-0.62,0.69-0.59h3.37
			l0.42-2.82l0.67-2.36c0.14-0.42,0.36-0.61,0.69-0.59h1.67c0.42,0,0.59,0.2,0.54,0.59l-0.73,5.18h3.91c0.42,0,0.58,0.2,0.52,0.59
			l-0.24,1.88c-0.06,0.42-0.3,0.62-0.73,0.59h-3.91l-1.33,9.64c-0.06,0.69-0.06,1.37-0.04,2s0.3,1.17,0.83,1.61s1.31,0.65,2.34,0.65
			c0.16,0,0.5-0.04,0.59-0.04C510.65,153.62,510.83,153.82,510.77,154.22z"/>
		<path style="&st1;" d="M532.94,145.29l-0.38,2.6c-0.81,5.89-3.87,8.85-9.18,8.85c-2.4,0-4.25-0.69-5.5-2.08
			c-1.25-1.37-1.67-3.63-1.25-6.76l0.38-2.6c0.44-3.15,1.49-5.42,3.13-6.8c1.65-1.37,3.69-2.06,6.09-2.06
			C531.52,136.42,533.76,139.38,532.94,145.29z M523.8,153.66c1.35,0,2.54-0.44,3.59-1.33c1.05-0.87,1.67-2.02,1.84-3.43l0.65-4.62
			c0.18-1.41-0.12-2.54-0.89-3.43s-1.84-1.33-3.19-1.33c-1.37,0-2.56,0.44-3.59,1.31c-1.03,0.89-1.65,2.04-1.83,3.45l-0.65,4.62
			c-0.18,1.41,0.12,2.54,0.89,3.43S522.45,153.66,523.8,153.66z"/>
		<path style="&st1;" d="M543.44,139.86c-0.52,0.2-0.91,0.46-0.97,0.56l-0.04,0.12l-2.16,15.35c-0.08,0.42-0.3,0.62-0.67,0.62h-2
			c-0.32,0-0.58-0.22-0.52-0.62l2.52-17.91c0.06-0.38,1.33-0.93,3.49-1.29c1.09-0.18,2.2-0.26,3.33-0.26c1.19,0,2.14,0.12,2.88,0.34
			c0.26,0.08,0.38,0.24,0.32,0.48l-0.28,2.08c-0.06,0.3-0.2,0.44-0.44,0.44C546.53,139.3,544.15,139.58,543.44,139.86z"/>
		<path style="&st1;" d="M555,155.88c-0.08,0.42-0.3,0.62-0.67,0.62h-2c-0.32,0-0.58-0.22-0.52-0.62l2.6-18.61
			c0.06-0.42,0.28-0.62,0.69-0.59h1.98c0.38-0.02,0.56,0.18,0.54,0.59L555,155.88z M554.6,133.27c0.16-1.17,0.89-1.75,2.2-1.77
			c1.13,0,1.82,0.63,1.67,1.77c-0.18,1.17-0.89,1.75-2.16,1.75C555.18,135.02,554.44,134.46,554.6,133.27z"/>
		<path style="&st1;" d="M577.99,145.29l-0.38,2.6c-0.81,5.89-3.87,8.85-9.18,8.85c-2.4,0-4.25-0.69-5.5-2.08
			c-1.25-1.37-1.67-3.63-1.25-6.76l0.38-2.6c0.44-3.15,1.49-5.42,3.13-6.8c1.65-1.37,3.69-2.06,6.09-2.06
			C576.56,136.42,578.8,139.38,577.99,145.29z M568.85,153.66c1.35,0,2.54-0.44,3.59-1.33c1.05-0.87,1.67-2.02,1.84-3.43l0.65-4.62
			c0.18-1.41-0.12-2.54-0.89-3.43s-1.84-1.33-3.19-1.33c-1.37,0-2.56,0.44-3.59,1.31c-1.03,0.89-1.65,2.04-1.83,3.45l-0.65,4.62
			c-0.18,1.41,0.12,2.54,0.89,3.43S567.5,153.66,568.85,153.66z"/>
		<path style="&st1;" d="M591.73,139.4c-1.33,0-2.4,0.18-3.21,0.54c-0.83,0.38-1.37,0.71-1.59,1.05c-0.24,0.34-0.38,0.67-0.4,1.01
			c-0.1,0.73,0.22,1.33,0.97,1.82c0.75,0.5,1.69,0.89,2.82,1.19c1.13,0.32,2.24,0.67,3.37,1.09c1.13,0.42,2.04,1.05,2.76,1.88
			c0.69,0.85,0.95,1.9,0.77,3.15c-0.54,3.75-3.45,5.61-8.71,5.59c-2.82,0-5.08-0.58-6.78-1.71c-0.22-0.14-0.3-0.34-0.24-0.6
			l0.16-0.5l0.73-1.35c0.08-0.18,0.24-0.28,0.5-0.28l0.2,0.08c1.65,0.93,3.49,1.39,5.51,1.39c1.8,0,3.13-0.18,3.95-0.56
			c0.81-0.38,1.29-1.05,1.43-2.04c0.1-0.81-0.22-1.47-0.97-1.98c-0.77-0.5-1.71-0.91-2.84-1.21c-1.13-0.3-2.24-0.63-3.37-1.01
			c-1.13-0.38-2.04-0.99-2.74-1.86c-0.69-0.85-0.95-1.94-0.77-3.27c0.26-1.86,1.19-3.23,2.76-4.11c1.57-0.87,3.33-1.31,5.3-1.31
			c1.71,0,3.41,0.2,5.12,0.61c0.22,0.1,0.3,0.26,0.28,0.46c0,0.08-0.04,0.24-0.12,0.48l-0.73,1.67c-0.1,0.18-0.26,0.28-0.5,0.28
			C593.26,139.56,592.05,139.38,591.73,139.4z"/>
	</g>
</g>
<g>
	<g>
		<path style="&st1;" d="M52.91,156.53c-0.47,0-0.9-0.35-0.82-0.92l4.28-30.24c0.07-0.62,0.4-0.92,1.02-0.92h9.03
			c3.26,0,5.84,0.82,7.26,1.99c0.72,0.6,1.32,1.27,1.82,1.99c1.44,2.24,1.49,4.55,1.44,5.65l-0.05,0.55l-1.62,11.71
			c-0.07,0.27-0.07,0.62-0.57,2.01c-0.52,1.39-1.12,2.59-2.54,4.15c-1.42,1.57-3.06,2.66-5.77,3.43c-1.37,0.4-2.86,0.6-4.48,0.6
			H52.91z M62.19,130.44l-2.81,20.07h3.21c3.66,0,5.75-1.82,6.27-5.45l1.27-9.15c0.32-2.39-0.32-3.95-1.52-4.65
			c-1.22-0.67-2.11-0.82-3.21-0.82H62.19z"/>
		<path style="&st1;" d="M101.62,145.88c-0.1,0.62-0.45,0.92-1.07,0.92H87.09v0.2c-0.17,1.69,0.2,2.81,1.09,3.36
			c0.9,0.55,2.54,0.82,4.92,0.82c1.42,0,3.01-0.12,4.73-0.35c0.32,0,0.55,0.15,0.67,0.45l0.05,4.38c-0.13,0.37-0.32,0.6-0.57,0.67
			c-1.47,0.42-3.96,0.62-7.49,0.6c-3.51,0-6.14-0.92-7.93-2.79c-1.82-1.84-2.44-4.78-1.89-8.78l0.55-3.81
			c0.1-0.75,0.25-1.47,0.45-2.16c0.17-0.7,0.55-1.57,1.09-2.64c0.55-1.04,1.22-1.94,2.01-2.69c1.59-1.49,4.55-2.81,8.23-2.81
			c3.66,0,6.42,1.19,7.59,2.81c0.57,0.82,1.04,1.69,1.37,2.64c0.32,0.97,0.45,1.87,0.37,2.71c-0.08,0.85-0.13,1.57-0.13,2.14
			L101.62,145.88z M95.7,141.31c0.37-2.86-0.72-4.28-3.31-4.28c-2.64,0-4.15,1.42-4.53,4.28H95.7z"/>
		<path style="&st1;" d="M109.09,133.7c0.1-0.55,1.52-1.09,4.28-1.64c2.76-0.52,5.05-0.8,6.86-0.8c3.36,0,5.82,1.04,7.36,3.13
			c1.52,2.09,1.94,5.65,1.22,10.67c-0.6,4.4-2.36,7.74-4.5,9.43c-2.14,1.69-4.3,2.44-6.42,2.44c-2.14,0-3.93-0.3-5.35-0.89
			l-1.02,7.16c-0.1,0.62-0.45,0.92-1.02,0.92h-4.73c-0.47,0-0.9-0.4-0.82-0.92L109.09,133.7z M115.15,137.58l-1.84,12.98
			c1.37,0.42,2.51,0.62,3.46,0.62c2.89,0,4.58-1.29,5.05-3.88c0.2-1.02,0.37-2.04,0.5-3.06l0.42-3.31c0.1-1.39-0.25-2.39-1.02-3.01
			c-0.77-0.6-1.77-0.89-2.96-0.89c-0.82,0-2.24,0.2-3.06,0.4L115.15,137.58z"/>
		<path style="&st1;" d="M136.9,137.23l-0.2-4.23c0.02-0.32,0.25-0.6,0.65-0.77c2.11-0.65,4.63-0.97,7.59-0.97
			c6.47,0,9.75,3.41,8.88,9.95l-1.94,13.53c-0.08,0.55-1.34,1.04-3.83,1.49c-2.51,0.47-4.6,0.7-6.27,0.7c-2.86,0-4.75-0.3-6.59-1.32
			c-1.84-1.02-2.61-3.16-2.21-6.27c0.45-3.08,1.54-5.22,3.28-6.39c1.72-1.17,3.96-1.74,6.67-1.74h3.9l0.05-0.32
			c0.4-2.86-0.87-3.85-4.08-3.85c-1.52-0.03-3.28,0.2-5.25,0.65C137.22,137.67,137,137.53,136.9,137.23z M146.47,146.38h-2.14
			c-2.91,0-4.48,0.82-4.7,2.46c-0.27,2.01,0.5,2.64,2.81,2.64c2.21,0,3.38-0.4,3.51-1.22L146.47,146.38z"/>
		<path style="&st1;" d="M170.11,136.7c-2.01,0-3.41,0.75-3.71,1.24c-0.15,0.27-0.25,0.52-0.27,0.8c-0.4,2.14,4.38,2.61,7.91,4.1
			c1.22,0.5,2.19,1.29,2.93,2.41s1,2.54,0.77,4.23c-0.3,2.14-1.34,3.91-3.13,5.32c-1.79,1.42-4.53,2.11-8.23,2.11
			c-3.73,0-6.69-0.87-8.9-2.59c-0.3-0.22-0.42-0.5-0.37-0.77c0-0.12,0.22-0.42,0.22-0.5l1.57-2.91c0.2-0.27,0.47-0.4,0.82-0.4
			c0.12,0,0.3,0.02,0.5,0.1c2.99,1.09,5.15,1.64,6.52,1.62c3.06,0,4.25-0.45,4.45-1.94c0.2-1.29-1.17-2.16-3.06-2.64
			c-0.97-0.22-1.99-0.55-3.06-0.95c-1.09-0.4-2.09-0.85-2.98-1.34c-0.9-0.47-1.59-1.24-2.11-2.26s-0.67-2.21-0.45-3.61
			c0.32-2.59,1.52-4.48,3.58-5.7c2.06-1.19,4.35-1.79,6.91-1.79c3.11,0,5.62,0.35,7.49,1.02c0.27,0.1,0.4,0.32,0.4,0.67
			c-0.08,0.12-0.25,0.52-0.25,0.6l-1.64,3.38c-0.22,0.3-0.5,0.45-0.77,0.45c-0.08,0-0.45-0.15-0.55-0.15
			C173.42,136.9,171.9,136.73,170.11,136.7z"/>
		<path style="&st1;" d="M207.58,155.14c-0.06,0.44-1.15,0.83-3.31,1.17c-2.16,0.36-4.01,0.54-5.55,0.54c-2.68,0-4.64-0.83-5.85-2.5
			c-1.21-1.67-1.55-4.5-0.97-8.51c0.5-3.33,1.59-5.75,3.29-7.24c1.71-1.49,3.51-2.22,5.4-2.22c1.71,0,3.13,0.34,4.26,1.01l0.81-5.71
			c0.06-0.5,0.32-0.73,0.81-0.73h3.79c0.46,0,0.66,0.24,0.63,0.73L207.58,155.14z M202.82,151.81l1.47-10.35
			c-1.11-0.34-2.04-0.5-2.82-0.48c-2.28,0-3.59,1.03-3.97,3.07c-0.18,0.81-0.34,1.63-0.46,2.44l-0.28,2.64
			c-0.08,1.11,0.18,1.9,0.79,2.4c0.62,0.5,1.39,0.73,2.32,0.73c0.65,0,1.81-0.16,2.44-0.32L202.82,151.81z"/>
		<path style="&st1;" d="M229.96,148.04c-0.08,0.5-0.36,0.73-0.85,0.73h-10.73v0.16c-0.14,1.35,0.16,2.24,0.87,2.68
			c0.71,0.44,2.02,0.65,3.93,0.65c1.13,0,2.4-0.1,3.77-0.28c0.26,0,0.44,0.12,0.54,0.36l0.04,3.49c-0.1,0.3-0.26,0.48-0.46,0.54
			c-1.17,0.34-3.15,0.5-5.97,0.48c-2.8,0-4.9-0.73-6.33-2.22c-1.45-1.47-1.94-3.81-1.51-7l0.44-3.04c0.08-0.59,0.2-1.17,0.36-1.73
			c0.14-0.56,0.44-1.25,0.87-2.1c0.44-0.83,0.97-1.55,1.61-2.14c1.27-1.19,3.63-2.24,6.57-2.24c2.92,0,5.12,0.95,6.05,2.24
			c0.46,0.65,0.83,1.35,1.09,2.1c0.26,0.77,0.36,1.49,0.3,2.16s-0.1,1.25-0.1,1.71L229.96,148.04z M225.24,144.39
			c0.3-2.28-0.58-3.41-2.64-3.41c-2.1,0-3.31,1.13-3.61,3.41H225.24z"/>
	</g>
</g>
<g>
	<path style="&st1;" d="M66.82,220.85c-0.1,0.62-0.45,0.92-1.07,0.92H52.3v0.2c-0.17,1.69,0.2,2.81,1.09,3.36
		c0.9,0.55,2.54,0.82,4.92,0.82c1.42,0,3.01-0.12,4.73-0.35c0.32,0,0.55,0.15,0.67,0.45l0.05,4.38c-0.13,0.37-0.32,0.6-0.57,0.67
		c-1.47,0.42-3.96,0.62-7.49,0.6c-3.51,0-6.14-0.92-7.93-2.79c-1.82-1.84-2.44-4.78-1.89-8.78l0.55-3.81
		c0.1-0.75,0.25-1.47,0.45-2.16c0.17-0.7,0.55-1.57,1.09-2.64c0.55-1.04,1.22-1.94,2.01-2.69c1.59-1.49,4.55-2.81,8.23-2.81
		c3.66,0,6.42,1.19,7.59,2.81c0.57,0.82,1.04,1.69,1.37,2.64c0.32,0.97,0.45,1.87,0.37,2.71c-0.08,0.84-0.13,1.57-0.13,2.14
		L66.82,220.85z M60.9,216.27c0.37-2.86-0.72-4.28-3.31-4.28c-2.64,0-4.15,1.42-4.53,4.28H60.9z"/>
	<path style="&st1;" d="M88,215.9c0.17-1.42-0.15-2.44-0.95-3.03c-0.8-0.57-1.84-0.87-3.13-0.87c-0.9,0-2.24,0.25-3.01,0.45
		l-0.55,0.15l-2.56,17.98c-0.1,0.62-0.45,0.92-1.02,0.92h-4.73c-0.47,0-0.9-0.35-0.82-0.92l3.06-21.91c0.1-0.55,1.54-1.09,4.33-1.64
		c2.79-0.52,5.05-0.8,6.76-0.8c3.43,0,5.92,0.92,7.46,2.76c1.52,1.87,1.94,5.25,1.27,10.17l-1.64,11.42
		c-0.1,0.62-0.45,0.92-1.02,0.92h-4.73c-0.47,0-0.9-0.4-0.82-0.92L88,215.9z"/>
	<path style="&st1;" d="M110.94,210.6c0.27-1.69,0.67-3.28,2.04-5.57c0.67-1.14,1.52-2.14,2.51-2.98c1.96-1.69,5.37-3.06,9.53-3.06
		c2.96,0,5.55,0.42,7.79,1.24c0.27,0.1,0.4,0.32,0.4,0.7l-1.32,4.43c-0.2,0.32-0.47,0.5-0.82,0.52c-2.04-0.57-3.98-0.87-5.79-0.87
		c-1.92,0-3.61,0.47-5.12,1.44c-1.52,0.97-2.44,2.56-2.76,4.78l-1.19,8.46c-0.3,2.21,0.17,3.78,1.42,4.75
		c1.22,0.97,2.79,1.47,4.7,1.47c1.84,0,3.86-0.3,6.07-0.87c0.32,0,0.55,0.17,0.67,0.5l0.1,4.45c-0.12,0.37-0.35,0.62-0.62,0.7
		c-2.44,0.82-5.15,1.22-8.16,1.22c-3.46,0-6.24-0.9-7.74-2.21c-0.75-0.67-1.37-1.42-1.89-2.26c-1.04-1.69-1.12-3.46-1.29-5.07
		c-0.08-0.8-0.05-1.49,0.12-2.06L110.94,210.6z"/>
	<path style="&st1;" d="M144.77,208.61c1.57-1.59,3.73-2.39,6.52-2.39c5.17,0,8.01,3.13,7.19,9.18l-2.14,15.17
		c-0.1,0.62-0.45,0.92-1.02,0.92h-4.73c-0.47,0-0.9-0.35-0.82-0.92l2.09-14.92c0.1-0.82-0.1-1.62-0.6-2.44
		c-0.52-0.82-1.47-1.22-2.86-1.22c-1.49,0-2.93,0.57-4.33,1.72l-2.41,16.86c-0.1,0.62-0.45,0.92-1.02,0.92h-4.73
		c-0.47,0-0.9-0.35-0.82-0.92l4.28-30.24c0.07-0.62,0.4-0.92,1.02-0.92h4.75c0.57,0,0.82,0.3,0.8,0.92L144.77,208.61z"/>
	<path style="&st1;" d="M182.48,208.83c1.62,1.77,2.14,4.65,1.57,8.66l-0.47,3.16c-1.02,7.51-4.97,11.27-11.86,11.24
		c-6.84,0-9.73-3.76-8.71-11.24l0.45-3.16c1.09-7.51,5.05-11.27,11.89-11.27C178.45,206.22,180.84,207.09,182.48,208.83z
		 M172.53,226.14c1.04,0,1.99-0.35,2.81-1.04c0.82-0.7,1.29-1.62,1.47-2.79l0.92-6.52c0.27-2.31-1.12-3.81-3.21-3.81
		c-1.07,0-1.99,0.35-2.81,1.04c-0.82,0.7-1.29,1.62-1.42,2.76l-0.92,6.52c-0.17,1.17,0.05,2.09,0.67,2.79
		C170.64,225.8,171.46,226.14,172.53,226.14z"/>
	<path style="&st1;" d="M201.32,211.99c-2.09,0-3.63,0.47-4.03,0.8l-0.25,0.27l-2.46,17.51c-0.1,0.62-0.45,0.92-1.02,0.92h-4.73
		c-0.47,0-0.9-0.35-0.82-0.92l3.06-21.91c0.12-0.6,2.01-1.42,5.22-2.01c1.62-0.27,3.31-0.42,5.07-0.42c1.27,0,2.34,0.1,3.26,0.3
		c0.37,0.17,0.55,0.42,0.5,0.77l-0.6,4.28c-0.07,0.45-0.3,0.67-0.62,0.67C203.06,212.07,202.19,211.99,201.32,211.99z"/>
	<path style="&st1;" d="M219.95,211.99c-2.09,0-3.63,0.47-4.03,0.8l-0.25,0.27l-2.46,17.51c-0.1,0.62-0.45,0.92-1.02,0.92h-4.73
		c-0.47,0-0.9-0.35-0.82-0.92l3.06-21.91c0.12-0.6,2.01-1.42,5.22-2.01c1.62-0.27,3.31-0.42,5.07-0.42c1.27,0,2.34,0.1,3.26,0.3
		c0.37,0.17,0.55,0.42,0.5,0.77l-0.6,4.28c-0.07,0.45-0.3,0.67-0.62,0.67C221.69,212.07,220.82,211.99,219.95,211.99z"/>
	<path style="&st1;" d="M231.84,230.57c-0.1,0.62-0.45,0.92-1.02,0.92h-4.73c-0.47,0-0.9-0.35-0.82-0.92l3.26-23.03
		c0.07-0.62,0.4-0.92,1.02-0.9h4.75c0.57-0.03,0.82,0.27,0.8,0.9L231.84,230.57z M229.16,201.55c0.3-2.14,1.59-3.21,3.9-3.21
		c2.36,0,3.41,1.07,3.11,3.21c-0.27,2.11-1.59,3.16-4,3.16C229.9,204.7,228.88,203.66,229.16,201.55z"/>
	<path style="&st1;" d="M244.73,230.57c-0.1,0.62-0.45,0.92-1.02,0.92h-4.73c-0.47,0-0.9-0.35-0.82-0.92l4.28-30.24
		c0.08-0.62,0.4-0.92,1.02-0.92h4.75c0.57,0,0.82,0.3,0.8,0.92L244.73,230.57z"/>
	<path style="&st1;" d="M257.62,230.57c-0.1,0.62-0.45,0.92-1.02,0.92h-4.73c-0.47,0-0.9-0.35-0.82-0.92l4.28-30.24
		c0.08-0.62,0.4-0.92,1.02-0.92h4.75c0.57,0,0.82,0.3,0.8,0.92L257.62,230.57z"/>
	<path style="&st1;" d="M284.28,208.83c1.62,1.77,2.14,4.65,1.57,8.66l-0.47,3.16c-1.02,7.51-4.97,11.27-11.86,11.24
		c-6.84,0-9.72-3.76-8.71-11.24l0.45-3.16c1.09-7.51,5.05-11.27,11.89-11.27C280.25,206.22,282.64,207.09,284.28,208.83z
		 M274.33,226.14c1.04,0,1.99-0.35,2.81-1.04c0.82-0.7,1.29-1.62,1.47-2.79l0.92-6.52c0.27-2.31-1.12-3.81-3.21-3.81
		c-1.07,0-1.99,0.35-2.81,1.04c-0.82,0.7-1.29,1.62-1.42,2.76l-0.92,6.52c-0.17,1.17,0.05,2.09,0.67,2.79
		C272.44,225.8,273.26,226.14,274.33,226.14z"/>
	<path style="&st1;" d="M302.1,211.67c-2.01,0-3.41,0.75-3.71,1.24c-0.15,0.27-0.25,0.52-0.27,0.8c-0.4,2.14,4.38,2.61,7.91,4.1
		c1.22,0.5,2.19,1.29,2.94,2.41s0.99,2.54,0.77,4.23c-0.3,2.14-1.34,3.91-3.13,5.32c-1.79,1.42-4.53,2.11-8.23,2.11
		c-3.73,0-6.69-0.87-8.9-2.59c-0.3-0.22-0.42-0.5-0.37-0.77c0-0.12,0.22-0.42,0.22-0.5l1.57-2.91c0.2-0.27,0.47-0.4,0.82-0.4
		c0.13,0,0.3,0.03,0.5,0.1c2.98,1.09,5.15,1.64,6.52,1.62c3.06,0,4.25-0.45,4.45-1.94c0.2-1.29-1.17-2.16-3.06-2.64
		c-0.97-0.22-1.99-0.55-3.06-0.95c-1.09-0.4-2.09-0.85-2.98-1.34c-0.9-0.47-1.59-1.24-2.11-2.26s-0.67-2.21-0.45-3.61
		c0.32-2.59,1.52-4.48,3.58-5.7c2.06-1.19,4.35-1.79,6.91-1.79c3.11,0,5.62,0.35,7.49,1.02c0.27,0.1,0.4,0.32,0.4,0.67
		c-0.07,0.12-0.25,0.52-0.25,0.6l-1.64,3.38c-0.22,0.3-0.5,0.45-0.77,0.45c-0.08,0-0.45-0.15-0.55-0.15
		C305.4,211.87,303.89,211.69,302.1,211.67z"/>
</g>
<g>
	<g>
		<path style="&st1;" d="M344.49,230.4c-0.06,0.32-1.94,0.77-4.68,1.09c-1.37,0.16-2.66,0.24-3.85,0.24c-5.4,0-7.6-3.49-6.61-10.47
			c0.48-3.51,1.86-6.27,3.61-7.7c1.73-1.43,3.47-2.14,5.28-2.14c2.24,0,4.13,0.32,5.61,0.93l0.81-5.85
			c0.02-0.42,0.26-0.61,0.67-0.59h2c0.4-0.02,0.58,0.18,0.52,0.59L344.49,230.4z M341.61,228.08l1.79-12.75
			c-1.86-0.54-3.33-0.81-4.42-0.81c-2.38,0-4.05,0.77-4.94,2.2c-0.89,1.45-1.27,2.74-1.53,4.74c-0.1,0.83-0.18,1.51-0.22,2.04
			c-0.04,0.54-0.02,1.17,0.08,1.88c0.1,0.71,0.3,1.29,0.61,1.71c0.62,0.85,2,1.57,4.01,1.57c0.99,0,2.94-0.28,3.89-0.42
			L341.61,228.08z"/>
		<path style="&st1;" d="M364.5,228.65l0.04,2.14c-0.08,0.24-0.22,0.4-0.4,0.46c-1.29,0.34-3.04,0.5-5.24,0.48
			c-5.99,0-8.57-3-7.72-9.01l0.4-2.98c0.16-1.09,0.44-2.18,1.33-3.85c0.44-0.81,0.97-1.55,1.63-2.18c1.27-1.27,3.51-2.3,6.19-2.3
			c2.94,0,5.02,1.05,5.89,2.4c0.44,0.67,0.77,1.41,1.03,2.2c0.26,0.81,0.34,1.55,0.26,2.24c-0.08,0.69-0.12,1.27-0.12,1.73
			l-0.36,2.74c-0.08,0.42-0.32,0.62-0.69,0.59h-12.4l-0.08,0.5c-0.16,2.22,0.22,3.49,1.51,4.11c0.66,0.32,1.35,0.52,2.08,0.59
			c0.73,0.1,1.77,0.14,3.11,0.14c0.65-0.02,1.69-0.12,3.09-0.34C364.36,228.32,364.52,228.44,364.5,228.65z M364.54,220.24
			c0.26-2.06-0.08-3.65-0.67-4.4c-0.3-0.38-0.69-0.67-1.17-0.89c-0.95-0.44-1.51-0.44-2.2-0.44c-3.31,0-5.24,1.9-5.77,5.73H364.54z"
			/>
		<path style="&st1;" d="M381.52,214.39c-1.33,0-2.4,0.18-3.21,0.54c-0.83,0.38-1.37,0.71-1.59,1.05c-0.24,0.34-0.38,0.67-0.4,1.01
			c-0.1,0.73,0.22,1.33,0.97,1.82c0.75,0.5,1.69,0.89,2.82,1.19c1.13,0.32,2.24,0.67,3.37,1.09c1.13,0.42,2.04,1.05,2.76,1.88
			c0.69,0.85,0.95,1.9,0.77,3.15c-0.54,3.75-3.45,5.61-8.71,5.59c-2.82,0-5.08-0.58-6.78-1.71c-0.22-0.14-0.3-0.34-0.24-0.6
			l0.16-0.5l0.73-1.35c0.08-0.18,0.24-0.28,0.5-0.28l0.2,0.08c1.65,0.93,3.49,1.39,5.51,1.39c1.81,0,3.13-0.18,3.95-0.56
			c0.81-0.38,1.29-1.05,1.43-2.04c0.1-0.81-0.22-1.47-0.97-1.98c-0.77-0.5-1.71-0.91-2.84-1.21s-2.24-0.63-3.37-1.01
			s-2.04-0.99-2.74-1.86c-0.69-0.85-0.95-1.94-0.77-3.27c0.26-1.86,1.19-3.23,2.76-4.11c1.57-0.87,3.33-1.31,5.3-1.31
			c1.71,0,3.41,0.2,5.12,0.61c0.22,0.1,0.3,0.26,0.28,0.46c0,0.08-0.04,0.24-0.12,0.48l-0.73,1.67c-0.1,0.18-0.26,0.28-0.5,0.28
			C383.05,214.55,381.84,214.37,381.52,214.39z"/>
		<path style="&st1;" d="M407.01,230.4c-0.06,0.32-1.94,0.77-4.68,1.09c-1.37,0.16-2.66,0.24-3.85,0.24c-5.4,0-7.6-3.49-6.61-10.47
			c0.48-3.51,1.86-6.27,3.61-7.7c1.73-1.43,3.47-2.14,5.28-2.14c2.24,0,4.13,0.32,5.61,0.93l0.81-5.85
			c0.02-0.42,0.26-0.61,0.67-0.59h2c0.4-0.02,0.58,0.18,0.52,0.59L407.01,230.4z M404.13,228.08l1.79-12.75
			c-1.86-0.54-3.33-0.81-4.42-0.81c-2.38,0-4.05,0.77-4.94,2.2c-0.89,1.45-1.27,2.74-1.53,4.74c-0.1,0.83-0.18,1.51-0.22,2.04
			c-0.04,0.54-0.02,1.17,0.08,1.88c0.1,0.71,0.3,1.29,0.61,1.71c0.62,0.85,2,1.57,4.01,1.57c0.99,0,2.94-0.28,3.89-0.42
			L404.13,228.08z"/>
		<path style="&st1;" d="M427.02,228.65l0.04,2.14c-0.08,0.24-0.22,0.4-0.4,0.46c-1.29,0.34-3.04,0.5-5.24,0.48
			c-5.99,0-8.57-3-7.72-9.01l0.4-2.98c0.16-1.09,0.44-2.18,1.33-3.85c0.44-0.81,0.97-1.55,1.63-2.18c1.27-1.27,3.51-2.3,6.19-2.3
			c2.94,0,5.02,1.05,5.89,2.4c0.44,0.67,0.77,1.41,1.03,2.2c0.26,0.81,0.34,1.55,0.26,2.24c-0.08,0.69-0.12,1.27-0.12,1.73
			l-0.36,2.74c-0.08,0.42-0.32,0.62-0.69,0.59h-12.4l-0.08,0.5c-0.16,2.22,0.22,3.49,1.51,4.11c0.66,0.32,1.35,0.52,2.08,0.59
			c0.73,0.1,1.77,0.14,3.11,0.14c0.65-0.02,1.69-0.12,3.09-0.34C426.88,228.32,427.04,228.44,427.02,228.65z M427.06,220.24
			c0.26-2.06-0.08-3.65-0.67-4.4c-0.3-0.38-0.69-0.67-1.17-0.89c-0.95-0.44-1.51-0.44-2.2-0.44c-3.31,0-5.24,1.9-5.77,5.73H427.06z"
			/>
	</g>
</g>
<g>
	<g>
		<path style="&st18;" d="M570.01,176.1c5.28,0,10.51,1.38,15.12,4c7.26,4.13,12.41,10.85,14.51,18.93
			c2.09,8.08,0.86,16.46-3.48,23.6c-4.34,7.13-11.21,12.08-19.35,13.93l-99.54,21.84l-0.01,0l-0.01,0l-0.14,0.03l-0.14,0.03
			l-0.27,0.05l-0.15,0.03c-1.71,0.34-3.44,0.51-5.17,0.51c-4.88,0-9.66-1.37-13.81-3.98c-5.67-3.55-9.72-9.09-11.41-15.61
			c-1.72-6.63-0.81-13.55,2.55-19.47c3.36-5.92,8.84-10.25,15.42-12.17l0.03-0.01l0.03-0.01l97.27-30.49
			c0.85-0.25,1.73-0.46,2.6-0.64C566.02,176.3,568.02,176.1,570.01,176.1 M570.01,172.47c-2.22,0-4.45,0.22-6.65,0.66
			c-0.98,0.2-1.97,0.44-2.94,0.72l-97.3,30.5c-7.49,2.19-13.73,7.11-17.56,13.87c-3.83,6.75-4.87,14.63-2.91,22.18
			c1.92,7.42,6.54,13.73,13,17.78c4.77,2.99,10.2,4.53,15.74,4.53c1.96,0,3.92-0.19,5.88-0.58l0.16-0.03l0.28-0.06l0.18-0.04
			l0.18-0.04l99.55-21.85c9.1-2.07,16.8-7.6,21.66-15.59c4.86-7.99,6.24-17.36,3.9-26.4c-2.34-9.04-8.11-16.56-16.23-21.18
			C581.73,173.99,575.9,172.47,570.01,172.47L570.01,172.47z"/>
	</g>
	<g>
		<g>
			<path style="&st0;" d="M605.33,214.25c-0.53-9.33-4.72-17.83-11.78-23.94c-6.23-5.39-14.17-8.35-22.37-8.35
				c-1,0-2.02,0.04-3.02,0.13l-101.39,10.9c-7.78,0.68-14.86,4.29-19.93,10.17c-5.08,5.87-7.63,13.4-7.19,21.19
				c0.44,7.65,3.73,14.74,9.27,19.97c5.53,5.22,12.79,8.1,20.43,8.1l0.16,0l0.28,0l0.18,0l0.18,0l101.9-1.97
				c9.33-0.25,17.96-4.17,24.29-11.05C602.68,232.5,605.87,223.58,605.33,214.25z"/>
		</g>
	</g>
</g>
<g>
	<g>
		<path style="&st1;" d="M494.68,211.63c-0.33,0-0.53-0.15-0.62-0.47c0.03-0.36-0.44-2.31-1.45-5.83c-0.09-0.27-0.09-0.5-0.06-0.71
			c0-0.36,0.24-0.65,0.68-0.86c3.34-1.57,7.13-2.37,11.34-2.37c3.85,0,6.81,1.01,8.85,2.99c2.04,2.01,2.81,4.8,2.28,8.35
			c-0.27,2.01-1.01,3.85-2.22,5.54c-1.21,1.69-2.61,3.11-4.14,4.2c-1.57,1.1-3.11,2.13-4.65,3.11s-2.87,1.98-4.03,3.02
			s-1.83,2.07-1.98,3.17h13.29c0.65,0,0.92,0.36,0.83,1.04l-0.83,6.25c-0.09,0.68-0.47,1.04-1.16,1.04H488.5
			c-0.56,0-1.01-0.36-0.92-1.04l0.86-6.07c0.33-2.28,1.13-4.35,2.4-6.22c1.27-1.86,2.72-3.4,4.35-4.62
			c1.63-1.18,3.26-2.28,4.86-3.26c1.6-0.98,2.99-1.95,4.14-2.93c1.16-0.98,1.78-1.92,1.89-2.84c0.24-1.78-1.42-2.75-4.26-2.75
			c-2.1,0-4.32,0.42-6.72,1.21C494.98,211.6,494.83,211.63,494.68,211.63z"/>
		<path style="&st1;" d="M534.24,201.39c2.58,0,4.77,0.44,6.57,1.3c1.78,0.86,3.02,1.92,3.7,3.14c1.36,2.49,2.01,5.06,1.87,6.84
			l-0.12,1.27L544.25,228c-0.03,0.33-0.12,0.77-0.24,1.33c-0.12,0.56-0.53,1.6-1.24,3.05c-0.71,1.45-1.57,2.72-2.58,3.82
			c-1.01,1.1-2.52,2.07-4.53,2.99c-2.04,0.92-4.35,1.36-6.93,1.36c-2.58,0-4.77-0.44-6.54-1.3c-1.78-0.86-3.02-1.92-3.7-3.17
			c-1.39-2.46-2.04-5-1.89-6.81l0.12-1.27l2.01-14.06c0.03-0.33,0.12-0.77,0.24-1.33c0.12-0.56,0.53-1.57,1.24-3.02
			c0.71-1.45,1.57-2.72,2.58-3.82c1.01-1.1,2.52-2.1,4.56-3.02C529.36,201.83,531.67,201.39,534.24,201.39z M536.49,215.33
			c0.44-3.32-0.71-4.97-3.49-4.97c-2.81,0-4.44,1.66-4.88,4.97l-1.57,11.28c-0.5,3.32,0.65,4.97,3.46,4.97
			c2.78,0,4.41-1.66,4.91-4.97L536.49,215.33z"/>
	</g>
</g>
<g>
	<path style="&st1;" d="M473.31,202.83c-0.05,0.09-0.17,0.37-0.17,0.44l-1.8,3.29c-0.16,0.21-0.33,0.31-0.49,0.31l-0.44-0.1
		c-1.28-0.38-2.64-0.58-4.11-0.58c-1.84,0-2.85,0.51-3.01,1.5c-0.09,0.86,1.01,1.5,2.62,1.85c0.8,0.17,1.66,0.46,2.57,0.82
		c0.89,0.37,1.73,0.8,2.48,1.28c0.75,0.47,1.33,1.19,1.75,2.15s0.54,2.08,0.35,3.39c-0.09,0.77-0.28,1.56-1.17,2.96
		c-0.44,0.72-0.98,1.33-1.63,1.87c-0.65,0.54-1.56,1-2.75,1.4c-1.21,0.42-2.55,0.61-4.06,0.61c-0.38,0-0.88-0.03-1.47-0.09
		c-0.59-0.05-1.56-0.3-2.9-0.72s-2.4-0.98-3.15-1.7c-0.16-0.16-0.25-0.35-0.26-0.54c0.05-0.16,0.11-0.28,0.19-0.35l2.26-3.38
		c0.16-0.21,0.37-0.32,0.59-0.32c0.09,0,0.21,0.04,0.33,0.11c1.5,1.12,3.29,1.68,5.33,1.68c1.59,0,2.57-0.4,2.8-0.79
		c0.12-0.19,0.19-0.42,0.24-0.72c0.3-1.78-3.71-2.31-6.64-3.76c-1.01-0.47-1.84-1.21-2.47-2.17c-0.63-0.96-0.86-2.15-0.66-3.55
		c0.33-2.29,1.33-4.02,2.97-5.16c1.64-1.14,3.65-1.7,6.05-1.7c1.36,0,2.5,0.1,3.43,0.3c0.93,0.21,1.91,0.59,2.96,1.17
		C473.22,202.43,473.31,202.59,473.31,202.83z"/>
	<path style="&st1;" d="M477.43,231.09c-0.23,0.44-0.49,0.65-0.79,0.65h-4.16c-0.33,0-0.63-0.28-0.58-0.65l16.74-37.82
		c0.23-0.45,0.49-0.68,0.79-0.68h4.18c0.33,0,0.59,0.31,0.54,0.68L477.43,231.09z"/>
</g>
<g>
	<g>
		<path style="&st1;" d="M548.52,216.84c0.58-0.49,1.21-0.75,1.9-0.75c0.72,0,1.28,0.24,1.7,0.73c0.42,0.49,0.59,1.08,0.49,1.8
			c-0.1,0.69-0.42,1.28-0.99,1.77c-0.58,0.49-1.21,0.73-1.93,0.73c-0.69,0-1.25-0.24-1.68-0.73c-0.42-0.49-0.59-1.08-0.49-1.77
			C547.6,217.94,547.94,217.33,548.52,216.84z"/>
		<path style="&st1;" d="M562.44,202.5c3.99,0,5.72,1.77,5.21,5.34c-0.25,1.89-1.14,3.24-2.68,4.07c0.69,0.21,1.2,0.71,1.52,1.48
			c0.31,0.77,0.41,1.59,0.3,2.42c-0.49,3.56-2.83,5.34-6.99,5.32c-1.83,0-3.27-0.41-4.31-1.23c-1.04-0.82-1.44-2.18-1.17-4.1
			c0.11-0.83,0.45-1.63,1-2.41c0.55-0.77,1.18-1.28,1.92-1.49c-1.27-0.83-1.77-2.18-1.52-4.07
			C556.22,204.28,558.46,202.5,562.44,202.5z M561.6,216.8c0.38-0.25,0.61-0.62,0.66-1.11l0.1-0.61c0.11-0.96-0.63-1.52-1.48-1.52
			c-0.42,0-0.83,0.13-1.21,0.38c-0.38,0.27-0.61,0.65-0.66,1.14l-0.08,0.61c-0.06,0.48,0.07,0.85,0.38,1.11
			C559.91,217.32,560.82,217.32,561.6,216.8z M563.02,208.56l0.08-0.61c0.15-1-0.41-1.49-1.21-1.49s-1.46,0.49-1.62,1.49l-0.08,0.61
			c-0.15,1,0.38,1.54,1.18,1.54C562.29,210.09,562.84,209.59,563.02,208.56z"/>
		<path style="&st1;" d="M576.88,202.5c1.23,0,2.27,0.21,3.13,0.62c0.84,0.41,1.44,0.92,1.76,1.49c0.65,1.18,0.96,2.41,0.89,3.25
			l-0.06,0.61l-0.96,6.69c-0.01,0.16-0.06,0.37-0.11,0.63c-0.06,0.27-0.25,0.76-0.59,1.45c-0.34,0.69-0.75,1.3-1.23,1.82
			c-0.48,0.52-1.2,0.99-2.16,1.42c-0.97,0.44-2.07,0.65-3.29,0.65c-1.23,0-2.27-0.21-3.11-0.62c-0.84-0.41-1.44-0.92-1.76-1.51
			c-0.66-1.17-0.97-2.38-0.9-3.24l0.06-0.61l0.96-6.69c0.01-0.15,0.06-0.37,0.11-0.63c0.06-0.27,0.25-0.75,0.59-1.44
			c0.34-0.69,0.75-1.29,1.23-1.82c0.48-0.52,1.2-1,2.17-1.44C574.55,202.71,575.65,202.5,576.88,202.5z M577.95,209.13
			c0.21-1.58-0.34-2.37-1.66-2.37c-1.34,0-2.11,0.79-2.32,2.37l-0.75,5.37c-0.24,1.58,0.31,2.37,1.65,2.37
			c1.32,0,2.1-0.79,2.34-2.37L577.95,209.13z"/>
	</g>
</g>
<g>
	<path style="&st1;" d="M551.2,233.06l-0.01-0.54c0.03-0.13,0.09-0.21,0.19-0.25c0.51-0.1,1.12-0.15,1.82-0.16
		c1.87,0,2.86,0.98,2.62,2.8l-0.54,3.78c-0.03,0.19-0.36,0.4-0.99,0.65c-0.63,0.25-1.27,0.38-1.93,0.38c-0.84,0-1.5-0.16-1.97-0.48
		c-0.48-0.32-0.65-0.88-0.53-1.68c0.2-1.48,1.11-2.22,2.7-2.22h2.26l0.04-0.28c0.2-1.43-0.58-2.06-2.16-2.06
		c-0.33,0-0.79,0.06-1.37,0.17C551.28,233.17,551.24,233.14,551.2,233.06z M554.7,236.23h-1.66c-0.5,0-0.63-0.01-1.11,0.09
		c-0.23,0.05-0.41,0.13-0.54,0.21c-0.27,0.18-0.55,0.52-0.61,1.03c-0.08,0.53,0.03,0.87,0.32,1.04s0.75,0.26,1.38,0.26
		c0.47,0,0.9-0.07,1.3-0.23c0.4-0.16,0.62-0.38,0.66-0.68L554.7,236.23z"/>
	<path style="&st1;" d="M558.4,239.45c-0.02,0.13-0.09,0.19-0.2,0.19h-0.56c-0.13,0-0.18-0.06-0.16-0.19l1.29-9.22
		c0.02-0.13,0.09-0.19,0.21-0.18h0.56c0.11-0.01,0.16,0.05,0.16,0.18L558.4,239.45z"/>
	<path style="&st1;" d="M569.7,239.29c-0.01,0.05-0.18,0.1-0.5,0.17c-0.33,0.07-0.74,0.13-1.24,0.19c-0.5,0.05-0.97,0.08-1.43,0.08
		c-2,0-2.81-1.31-2.45-3.92c0.2-1.42,0.73-2.45,1.42-2.97c0.68-0.52,1.37-0.72,2.17-0.72c0.57,0,1.25,0.13,2.04,0.4l0.32-2.29
		c0.01-0.13,0.08-0.19,0.21-0.18h0.57c0.12-0.01,0.17,0.05,0.15,0.18L569.7,239.29z M568.86,238.59l0.74-5.24
		c-0.81-0.23-1.44-0.35-1.89-0.35c-0.99,0-1.69,0.33-2.07,0.92c-0.19,0.3-0.33,0.59-0.42,0.88c-0.1,0.3-0.17,0.65-0.23,1.07
		c-0.05,0.35-0.08,0.63-0.09,0.85c-0.01,0.22,0,0.48,0.04,0.77c0.04,0.3,0.13,0.54,0.26,0.71c0.26,0.34,0.83,0.65,1.69,0.65
		c0.25,0,0.53-0.02,0.86-0.07c0.33-0.04,0.59-0.08,0.79-0.12L568.86,238.59z"/>
	<path style="&st1;" d="M573.03,232.39c0.03-0.13,0.1-0.19,0.21-0.18h0.56c0.13,0,0.19,0.06,0.16,0.18l-0.99,7.06
		c-0.02,0.13-0.09,0.19-0.2,0.19h-0.56c-0.12,0-0.17-0.06-0.16-0.19L573.03,232.39z M574.1,231.22c-0.08,0.1-0.16,0.15-0.24,0.16
		h-0.37c-0.11,0-0.16-0.05-0.15-0.16l0.7-1.21c0.05-0.11,0.12-0.17,0.21-0.17h0.63c0.12,0,0.16,0.06,0.13,0.17L574.1,231.22z"/>
	<path style="&st1;" d="M576.73,233.06l-0.01-0.54c0.03-0.13,0.09-0.21,0.19-0.25c0.51-0.1,1.12-0.15,1.82-0.16
		c1.87,0,2.86,0.98,2.62,2.8l-0.54,3.78c-0.03,0.19-0.36,0.4-0.99,0.65c-0.63,0.25-1.27,0.38-1.93,0.38c-0.84,0-1.5-0.16-1.97-0.48
		c-0.48-0.32-0.65-0.88-0.53-1.68c0.2-1.48,1.11-2.22,2.7-2.22h2.26l0.04-0.28c0.2-1.43-0.58-2.06-2.16-2.06
		c-0.33,0-0.79,0.06-1.37,0.17C576.81,233.17,576.76,233.14,576.73,233.06z M580.23,236.23h-1.66c-0.5,0-0.63-0.01-1.11,0.09
		c-0.23,0.05-0.41,0.13-0.54,0.21c-0.27,0.18-0.55,0.52-0.61,1.03c-0.08,0.53,0.03,0.87,0.32,1.04s0.75,0.26,1.38,0.26
		c0.47,0,0.9-0.07,1.3-0.23c0.4-0.16,0.62-0.38,0.66-0.68L580.23,236.23z"/>
</g>
<text transform="matrix(1 0 0 1 581.7125 238.8763)" style="&st1; &st19; &st20;">*</text>
</svg>
