<?xml version="1.0" encoding="utf-8"?>
<!-- Generator: Adobe Illustrator 23.0.0, SVG Export Plug-In . SVG Version: 6.00 Build 0)  -->
<!DOCTYPE svg PUBLIC "-//W3C//DTD SVG 1.1//EN" "http://www.w3.org/Graphics/SVG/1.1/DTD/svg11.dtd" [
	<!ENTITY st0 "fill:#FF4D0F;">
	<!ENTITY st1 "fill:#FFFFFF;">
	<!ENTITY st2 "fill:url(#SVGID_1_);">
	<!ENTITY st3 "fill:url(#SVGID_2_);">
	<!ENTITY st4 "fill:url(#SVGID_3_);">
	<!ENTITY st5 "fill:url(#SVGID_4_);">
	<!ENTITY st6 "fill:url(#SVGID_5_);">
	<!ENTITY st7 "fill:url(#SVGID_6_);">
	<!ENTITY st8 "fill:url(#SVGID_7_);">
	<!ENTITY st9 "fill:url(#SVGID_8_);">
	<!ENTITY st10 "fill:url(#SVGID_9_);">
	<!ENTITY st11 "fill:url(#SVGID_10_);">
	<!ENTITY st12 "fill:url(#SVGID_11_);">
	<!ENTITY st13 "fill:url(#SVGID_12_);">
	<!ENTITY st14 "fill:url(#SVGID_13_);">
	<!ENTITY st15 "fill:url(#SVGID_14_);">
	<!ENTITY st16 "fill:url(#SVGID_15_);">
	<!ENTITY st17 "fill:url(#SVGID_16_);">
	<!ENTITY st18 "fill:#a9eec2;">
	<!ENTITY st19 "font-family:'Anteb-LightItalic';">
	<!ENTITY st20 "font-size:26.2754px;">
]>
<svg version="1.1" id="Capa_1" xmlns="http://www.w3.org/2000/svg" xmlns:xlink="http://www.w3.org/1999/xlink" x="0px" y="0px"
	 viewBox="0 0 903.79 633.89" style="enable-background:new 0 0 903.79 633.89;" xml:space="preserve">
<g>
	<g>
		<g>
			<g>
				<path style="&st0;" d="M864.43,10.87L10.11,141.28l860.51-79.98c13.07-1.21,23.06-12.18,23.06-25.31v0
					C893.68,20.43,879.82,8.53,864.43,10.87z"/>
			</g>
		</g>
	</g>
	<g>
		<path style="&st1;" d="M62.17,29.1c9.37,0,16.96,2.38,21.18,5.77c2.08,1.73,3.86,3.68,5.37,5.77c4.15,6.49,4.36,13.2,4.36,16.38
			l-0.14,1.59l-1.79,12.26c-0.21,0.79-0.14,1.8-1.72,5.84s-3.43,7.5-7.51,12.12s-8.8,7.79-16.74,10.03
			c-3.94,1.15-8.3,1.73-12.95,1.73H41.78l-2.65,18.9c-0.29,1.8-1.29,2.67-2.93,2.67H22.6c-1.36,0-2.58-1.01-2.36-2.67l12.31-87.73
			c0.21-1.8,1.14-2.67,2.93-2.67H62.17z M49.29,46.48l-5.01,36.65h10.38c3.15,0,5.94-0.51,10.02-2.53
			c4.08-1.95,7.23-6.64,8.16-13.56l0.57-4.69c0.93-6.93-0.79-11.47-4.44-13.49c-3.65-1.95-6.15-2.38-9.3-2.38H49.29z"/>
		<path style="&st1;" d="M137.93,65.6c-6.01,0-10.45,1.37-11.59,2.31l-0.72,0.79l-7.08,50.79c-0.29,1.8-1.29,2.67-2.93,2.67h-13.59
			c-1.36,0-2.58-1.01-2.36-2.67l8.8-63.56c0.36-1.73,5.8-4.11,15.02-5.84c4.65-0.79,9.52-1.23,14.6-1.23c3.65,0,6.73,0.29,9.37,0.87
			c1.07,0.5,1.57,1.23,1.43,2.24l-1.72,12.41c-0.21,1.3-0.86,1.95-1.79,1.95C142.94,65.82,140.44,65.6,137.93,65.6z"/>
		<path style="&st1;" d="M209.55,56.44c4.65,5.12,6.15,13.49,4.51,25.11l-1.36,9.16c-2.93,21.79-14.31,32.68-34.13,32.61
			c-19.68,0-27.98-10.89-25.04-32.61l1.29-9.16c3.15-21.79,14.52-32.68,34.2-32.68C197.96,48.87,204.83,51.39,209.55,56.44z
			 M180.93,106.65c3.01,0,5.72-1.01,8.08-3.03c2.36-2.02,3.72-4.69,4.22-8.08l2.65-18.9c0.79-6.71-3.22-11.04-9.23-11.04
			c-3.08,0-5.72,1.01-8.08,3.03c-2.36,2.02-3.72,4.69-4.08,8.01l-2.65,18.9c-0.5,3.39,0.14,6.06,1.93,8.08
			C175.49,105.64,177.85,106.65,180.93,106.65z M197.6,39.85c-1.22,1.59-2.29,2.38-3.36,2.38h-9.09c-1.36,0-2.43-0.72-2.15-2.38
			l8.3-15.22c0.93-1.66,2.07-2.53,3.36-2.45h12.45c1.36,0,2.29,0.94,2.07,2.45L197.6,39.85z"/>
		<path style="&st1;" d="M250.04,101.89l-13.45,18.18c-0.86,1.37-2,2.09-3.36,2.09h-13.38c-1.36,0-2.5-1.01-2.29-2.67l24.33-33.26
			l-15.1-33.55c0.21-1.8,1.15-2.67,2.93-2.6h13.45c1.22,0,2.22,0.79,3.08,2.31l8.23,18.04l13.17-18.04
			c1.22-1.59,2.43-2.38,3.65-2.31h13.52c1.36,0,2.58,1.08,2.29,2.6l-24.47,33.55l14.95,33.26c-0.29,1.8-1.29,2.67-2.93,2.67h-13.31
			c-1.5,0-2.5-0.72-3.08-2.09L250.04,101.89z"/>
		<path style="&st1;" d="M310.35,119.49c-0.29,1.8-1.29,2.67-2.93,2.67h-13.59c-1.36,0-2.58-1.01-2.36-2.67l9.37-66.81
			c0.21-1.8,1.15-2.67,2.93-2.6h13.67c1.65-0.07,2.36,0.79,2.29,2.6L310.35,119.49z M302.62,35.3c0.86-6.2,4.58-9.31,11.23-9.31
			c6.8,0,9.8,3.1,8.94,9.31c-0.79,6.13-4.58,9.16-11.52,9.16C304.77,44.46,301.83,41.43,302.62,35.3z"/>
		<path style="&st1;" d="M384.04,119.49c-0.29,1.8-1.29,2.67-2.93,2.67h-13.59c-1.36,0-2.58-1.01-2.36-2.67l6.01-42.57
			c0.57-4.4,0.29-7.43-0.93-9.02c-1.22-1.51-3.65-2.31-7.15-2.31c-1.93,0-5.01,0.87-7.01,1.44l-1.29,0.43l-7.37,52.02
			c-0.29,1.8-1.29,2.67-2.93,2.67h-13.59c-1.36,0-2.58-1.01-2.36-2.67l8.8-63.2c0.29-1.59,3.72-3.25,10.38-4.91
			c6.58-1.66,11.73-2.53,15.38-2.53c4.36,0,7.94,0.43,10.73,1.23c2.72,0.87,5.79,2.74,9.23,5.55c5.8-4.54,12.52-6.78,20.25-6.78
			c7.66,0,12.02,0.94,16.53,3.82c2.22,1.52,3.79,3.54,4.72,6.21c1.72,5.34,2.93,13.71,0.86,25.75l-4.87,34.85
			c-0.29,1.8-1.29,2.67-2.93,2.67H404c-1.36,0-2.58-1.01-2.36-2.67l6.01-42.85c1.15-8.3-1.93-11.04-8.8-11.04
			c-3.15,0-6.44,1.15-9.8,3.39c0.93,3.68,0.72,9.88-0.57,18.61L384.04,119.49z"/>
		<path style="&st1;" d="M448.78,66.18l-0.57-12.26c0.07-0.94,0.72-1.73,1.86-2.24c6.08-1.88,13.31-2.81,21.82-2.81
			c18.6,0,28.05,9.88,25.54,28.86l-5.58,39.25c-0.21,1.59-3.86,3.03-11.02,4.33c-7.23,1.37-13.24,2.02-18.03,2.02
			c-8.23,0-13.67-0.87-18.96-3.82c-5.29-2.96-7.51-9.16-6.37-18.18c1.29-8.95,4.44-15.15,9.44-18.54
			c4.94-3.39,11.38-5.05,19.17-5.05h11.23l0.14-0.94c1.14-8.3-2.5-11.18-11.73-11.18c-4.36-0.07-9.44,0.58-15.1,1.88
			C449.71,67.48,449.07,67.05,448.78,66.18z M476.33,92.73h-6.15c-8.37,0-12.88,2.38-13.52,7.14c-0.79,5.84,1.43,7.65,8.08,7.65
			c6.37,0,9.73-1.15,10.09-3.53L476.33,92.73z"/>
		<path style="&st1;" d="M564.47,119.49c-0.29,1.8-1.29,2.67-2.93,2.67h-13.59c-1.36,0-2.58-1.01-2.36-2.67l6.01-42.57
			c0.57-4.4,0.29-7.43-0.93-9.02c-1.22-1.51-3.65-2.31-7.15-2.31c-1.93,0-5.01,0.87-7.01,1.44l-1.29,0.43l-7.37,52.02
			c-0.29,1.8-1.29,2.67-2.93,2.67h-13.59c-1.36,0-2.58-1.01-2.36-2.67l8.8-63.2c0.29-1.59,3.72-3.25,10.37-4.91
			c6.58-1.66,11.73-2.53,15.38-2.53c4.36,0,7.94,0.43,10.73,1.23c2.72,0.87,5.79,2.74,9.23,5.55c5.79-4.54,12.52-6.78,20.25-6.78
			c7.66,0,12.02,0.94,16.53,3.82c2.22,1.52,3.79,3.54,4.72,6.21c1.72,5.34,2.93,13.71,0.86,25.75l-4.87,34.85
			c-0.29,1.8-1.29,2.67-2.93,2.67h-13.59c-1.36,0-2.58-1.01-2.36-2.67l6.01-42.85c1.14-8.3-1.93-11.04-8.8-11.04
			c-3.15,0-6.44,1.15-9.8,3.39c0.93,3.68,0.72,9.88-0.57,18.61L564.47,119.49z"/>
		<path style="&st1;" d="M680.52,91.29c-0.29,1.8-1.29,2.67-3.08,2.67h-38.71v0.58c-0.5,4.91,0.57,8.15,3.15,9.74
			c2.58,1.59,7.3,2.38,14.17,2.38c4.08,0,8.66-0.36,13.59-1.01c0.93,0,1.57,0.43,1.93,1.3l0.14,12.7c-0.36,1.08-0.93,1.73-1.65,1.95
			c-4.22,1.23-11.38,1.8-21.54,1.73c-10.09,0-17.67-2.67-22.82-8.08c-5.22-5.34-7.01-13.85-5.44-25.47l1.57-11.04
			c0.29-2.16,0.72-4.26,1.29-6.28c0.5-2.02,1.57-4.54,3.15-7.65c1.57-3.03,3.51-5.63,5.79-7.79c4.58-4.33,13.09-8.15,23.68-8.15
			c10.52,0,18.46,3.46,21.82,8.15c1.65,2.38,3,4.91,3.93,7.65c0.93,2.81,1.29,5.41,1.07,7.86s-0.36,4.54-0.36,6.2L680.52,91.29z
			 M663.49,78.01c1.07-8.3-2.08-12.41-9.52-12.41c-7.58,0-11.95,4.11-13.02,12.41H663.49z"/>
		<path style="&st1;" d="M741.4,76.93c0.5-4.11-0.43-7.07-2.72-8.8c-2.29-1.66-5.29-2.53-9.02-2.53c-2.58,0-6.44,0.72-8.66,1.3
			l-1.57,0.43l-7.37,52.16c-0.29,1.8-1.29,2.67-2.93,2.67h-13.59c-1.36,0-2.58-1.01-2.36-2.67l8.8-63.56
			c0.29-1.59,4.44-3.17,12.45-4.76c8.01-1.51,14.53-2.31,19.46-2.31c9.87,0,17.03,2.67,21.46,8.01c4.37,5.41,5.58,15.22,3.65,29.51
			l-4.72,33.11c-0.29,1.8-1.29,2.67-2.93,2.67h-13.59c-1.36,0-2.58-1.15-2.36-2.67L741.4,76.93z"/>
		<path style="&st1;" d="M799.06,123.32c-15.53,0-22.11-8.58-19.6-25.83l4.22-30.73h-7.16c-1.65,0-2.43-0.87-2.22-2.67l1.65-11.4
			c0.21-1.37,1.29-2.6,2.93-2.6h7.16l1.29-8.87l3.29-9.31c0.79-1.88,1.86-2.81,3.22-2.81h11.38c1.36,0,2.58,1.01,2.36,2.67
			l-2.65,18.32h11.45c1.5,0,2.58,1.23,2.36,2.6l-1.65,11.4c-0.21,1.37-1.43,2.67-3.08,2.67h-11.45l-4.22,30.44
			c-0.86,6.28,1.72,9.45,7.66,9.45c0.21,0,0.93-0.07,2.15-0.14c1.22-0.07,1.86-0.14,1.93-0.14c1.65,0,2.43,0.87,2.22,2.67
			l-1.5,10.75c-0.21,1.59-1.22,2.53-3.08,2.81C803.78,123.1,800.92,123.32,799.06,123.32z"/>
		<path style="&st1;" d="M889.64,91.29c-0.29,1.8-1.29,2.67-3.08,2.67h-38.71v0.58c-0.5,4.91,0.57,8.15,3.15,9.74
			c2.58,1.59,7.3,2.38,14.17,2.38c4.08,0,8.66-0.36,13.59-1.01c0.93,0,1.57,0.43,1.93,1.3l0.14,12.7c-0.36,1.08-0.93,1.73-1.65,1.95
			c-4.22,1.23-11.38,1.8-21.54,1.73c-10.09,0-17.67-2.67-22.82-8.08c-5.22-5.34-7.01-13.85-5.44-25.47l1.57-11.04
			c0.29-2.16,0.71-4.26,1.29-6.28c0.5-2.02,1.57-4.54,3.15-7.65c1.57-3.03,3.51-5.63,5.8-7.79c4.58-4.33,13.09-8.15,23.68-8.15
			c10.52,0,18.46,3.46,21.82,8.15c1.65,2.38,3,4.91,3.94,7.65c0.93,2.81,1.29,5.41,1.07,7.86s-0.36,4.54-0.36,6.2L889.64,91.29z
			 M872.61,78.01c1.07-8.3-2.07-12.41-9.52-12.41c-7.58,0-11.95,4.11-13.02,12.41H872.61z"/>
	</g>
</g>
<g>
	<g>
		<g>
			<linearGradient id="SVGID_1_" gradientUnits="userSpaceOnUse" x1="332.3381" y1="320.0667" x2="852.4141" y2="320.0667">
				<stop  offset="0" style="stop-color:#FF4D0F;stop-opacity:0"/>
				<stop  offset="1" style="stop-color:#FF4D0F"/>
			</linearGradient>
			<path style="&st2;" d="M349.06,287.25h8.79c0.78,0,1.47,0.57,1.35,1.51l-7.03,49.73c-0.16,1.02-0.74,1.51-1.68,1.51h-7.77
				c-0.78,0-1.47-0.57-1.35-1.51l5.68-40.36l-12.96,5.93c-0.86,0-1.27-0.37-1.27-1.06l-0.49-6.63c0.08-1.02,0.49-1.68,1.23-2
				L349.06,287.25z"/>
			<linearGradient id="SVGID_2_" gradientUnits="userSpaceOnUse" x1="332.3381" y1="320.0667" x2="852.4141" y2="320.0667">
				<stop  offset="0" style="stop-color:#FF4D0F;stop-opacity:0"/>
				<stop  offset="1" style="stop-color:#FF4D0F"/>
			</linearGradient>
			<path style="&st3;" d="M364.85,340.49c-2.66-0.94-3.84-2.9-3.52-5.85c0.29-1.59,1.1-3.03,2.45-4.25c1.35-1.19,2.82-1.8,4.5-1.8
				c1.59,0,2.94,0.61,3.97,1.8c1.02,1.23,1.39,2.66,1.15,4.25c-0.16,1.23-0.86,3.11-2.04,5.68c-1.19,2.58-2.41,4.83-3.64,6.79
				c-0.37,0.49-0.82,0.74-1.35,0.78h-3.27c-0.78,0-1.1-0.41-1.06-1.19C363.54,343.97,364.48,341.92,364.85,340.49z"/>
			<linearGradient id="SVGID_3_" gradientUnits="userSpaceOnUse" x1="332.3381" y1="320.0667" x2="852.4141" y2="320.0667">
				<stop  offset="0" style="stop-color:#FF4D0F;stop-opacity:0"/>
				<stop  offset="1" style="stop-color:#FF4D0F"/>
			</linearGradient>
			<path style="&st4;" d="M406.27,297.56l-1.68-6.63c0.04-0.78,0.33-1.31,0.82-1.51c3.97-1.92,8.87-2.86,14.76-2.86
				c5.11,0,9.04,1.31,11.78,3.93c2.7,2.66,3.72,6.3,3.03,11c-0.37,2.66-1.43,5.15-3.11,7.48c-1.72,2.33-3.72,4.29-5.97,5.93
				c-2.25,1.68-4.54,3.27-6.79,4.78c-2.25,1.55-4.29,3.23-6.05,4.99c-1.8,1.8-2.9,3.6-3.35,5.44h19.75c0.86,0,1.47,0.74,1.35,1.51
				l-1.02,6.87c-0.12,0.78-0.74,1.51-1.68,1.51h-29.4c-0.78,0-1.43-0.57-1.31-1.51l0.98-7.2c0.78-5.36,3.89-10.14,7.52-13.13
				c1.8-1.47,3.72-2.94,5.81-4.42c4.13-2.94,7.77-4.78,10.26-7.61c1.27-1.39,1.96-2.82,2.13-4.25c0.53-3.64-1.92-5.44-7.44-5.44
				c-2.41,0-5.56,0.61-9.41,1.84C406.76,298.29,406.43,298.05,406.27,297.56z"/>
			<linearGradient id="SVGID_4_" gradientUnits="userSpaceOnUse" x1="332.3381" y1="320.0667" x2="852.4141" y2="320.0667">
				<stop  offset="0" style="stop-color:#FF4D0F;stop-opacity:0"/>
				<stop  offset="1" style="stop-color:#FF4D0F"/>
			</linearGradient>
			<path style="&st5;" d="M449.66,350.8l1.76-5.85c0.2-0.49,0.61-0.74,1.19-0.78c1.51,0.45,3.03,0.65,4.54,0.7
				c3.39,0,5.64-0.57,6.67-1.72c1.02-1.14,1.76-3.31,2.21-6.5l-7.12-36.03c0.12-0.86,0.86-1.47,1.68-1.47h7.77
				c0.94,0,1.47,0.45,1.51,1.31l4.09,27.24l11.65-27.24c0.37-0.9,0.98-1.35,1.84-1.31h7.73c0.78,0,1.43,0.61,1.31,1.47l-17.5,37.13
				c-2.66,5.93-6.13,10.1-8.71,12.23c-1.27,1.06-2.74,1.88-4.42,2.45c-1.68,0.53-3.07,0.86-4.13,0.98
				c-1.06,0.12-2.41,0.16-4.01,0.16c-3.88,0-6.38-0.37-7.44-1.1C449.82,352.15,449.61,351.58,449.66,350.8z"/>
			<linearGradient id="SVGID_5_" gradientUnits="userSpaceOnUse" x1="332.3381" y1="320.0667" x2="852.4141" y2="320.0667">
				<stop  offset="0" style="stop-color:#FF4D0F;stop-opacity:0"/>
				<stop  offset="1" style="stop-color:#FF4D0F"/>
			</linearGradient>
			<path style="&st6;" d="M541.25,336.53c-3.72,2.74-8.18,4.13-13.37,4.13c-5.28,0-9.65-0.86-13.17-2.58
				c-0.37-0.21-0.53-0.74-0.49-1.51l3.35-6.46c0.29-0.49,0.7-0.74,1.23-0.74c2.78,0.94,5.56,1.43,8.38,1.43s5.11-0.41,6.83-1.23
				c1.72-0.82,2.74-2.45,3.07-4.91l0.08-0.49c0.53-3.8-1.23-5.68-5.28-5.68h-5.28c-0.86,0-1.47-0.74-1.35-1.51l0.94-6.71
				c0.2-1.02,0.82-1.51,1.76-1.51h5.28c4.09,0,6.38-1.88,6.87-5.68l0.08-0.49c0.33-2.45-0.25-4.09-1.68-4.91
				c-1.47-0.82-3.64-1.23-6.46-1.23s-5.77,0.49-8.79,1.43c-0.53,0-0.9-0.25-1.1-0.78l-1.51-6.42c0.12-0.78,0.41-1.31,0.94-1.51
				c4.01-1.72,8.63-2.58,13.9-2.62c5.19,0,9.24,1.35,12.19,4.09c2.9,2.74,4.05,6.58,3.39,11.49c-0.86,5.68-3.93,9.49-9.28,11.41
				c4.78,2.04,6.83,5.89,6.09,11.53C547.18,329.98,544.98,333.79,541.25,336.53z"/>
			<linearGradient id="SVGID_6_" gradientUnits="userSpaceOnUse" x1="332.3381" y1="320.0667" x2="852.4141" y2="320.0667">
				<stop  offset="0" style="stop-color:#FF4D0F;stop-opacity:0"/>
				<stop  offset="1" style="stop-color:#FF4D0F"/>
			</linearGradient>
			<path style="&st7;" d="M588.55,338.41c-0.09,0.46-2.84,1.13-6.85,1.6c-2,0.23-3.89,0.35-5.63,0.35c-7.89,0-11.12-5.11-9.67-15.32
				c0.7-5.14,2.73-9.17,5.28-11.26c2.53-2.09,5.08-3.13,7.72-3.13c3.28,0,6.04,0.46,8.21,1.36l1.19-8.56
				c0.03-0.61,0.38-0.9,0.99-0.87h2.93c0.58-0.03,0.84,0.26,0.75,0.87L588.55,338.41z M584.34,335.01l2.61-18.66
				c-2.73-0.78-4.88-1.19-6.47-1.19c-3.48,0-5.92,1.13-7.23,3.22c-1.31,2.12-1.86,4-2.24,6.94c-0.14,1.22-0.26,2.21-0.32,2.99
				c-0.06,0.78-0.03,1.71,0.12,2.76c0.15,1.04,0.44,1.89,0.9,2.5c0.9,1.25,2.93,2.29,5.86,2.29c1.45,0,4.29-0.41,5.69-0.61
				L584.34,335.01z"/>
			<linearGradient id="SVGID_7_" gradientUnits="userSpaceOnUse" x1="332.3381" y1="320.0667" x2="852.4141" y2="320.0667">
				<stop  offset="0" style="stop-color:#FF4D0F;stop-opacity:0"/>
				<stop  offset="1" style="stop-color:#FF4D0F"/>
			</linearGradient>
			<path style="&st8;" d="M622.13,323.61l-0.55,3.8c-1.19,8.62-5.66,12.94-13.44,12.94c-3.51,0-6.21-1.02-8.04-3.05
				c-1.83-2-2.44-5.31-1.83-9.9l0.55-3.8c0.64-4.61,2.18-7.92,4.58-9.96c2.41-2,5.4-3.02,8.91-3.02
				C620.04,310.63,623.32,314.96,622.13,323.61z M608.75,335.85c1.97,0,3.71-0.64,5.25-1.94c1.54-1.28,2.44-2.96,2.7-5.02l0.96-6.76
				c0.26-2.06-0.17-3.71-1.31-5.02s-2.7-1.94-4.67-1.94c-2,0-3.74,0.64-5.25,1.92c-1.51,1.31-2.41,2.99-2.67,5.05l-0.96,6.76
				c-0.26,2.06,0.17,3.71,1.31,5.02C605.24,335.21,606.78,335.85,608.75,335.85z"/>
			<linearGradient id="SVGID_8_" gradientUnits="userSpaceOnUse" x1="332.3381" y1="320.0667" x2="852.4141" y2="320.0667">
				<stop  offset="0" style="stop-color:#FF4D0F;stop-opacity:0"/>
				<stop  offset="1" style="stop-color:#FF4D0F"/>
			</linearGradient>
			<path style="&st9;" d="M637.48,315.65c-0.75,0.29-1.33,0.67-1.42,0.81l-0.06,0.17l-3.16,22.46c-0.12,0.61-0.44,0.9-0.99,0.9
				h-2.93c-0.46,0-0.84-0.32-0.75-0.9l3.69-26.21c0.09-0.55,1.95-1.36,5.11-1.89c1.6-0.26,3.22-0.38,4.88-0.38
				c1.74,0,3.13,0.17,4.21,0.49c0.38,0.12,0.55,0.35,0.46,0.7l-0.41,3.05c-0.09,0.43-0.29,0.64-0.64,0.64
				C642.01,314.84,638.53,315.25,637.48,315.65z"/>
			<linearGradient id="SVGID_9_" gradientUnits="userSpaceOnUse" x1="332.3381" y1="320.0667" x2="852.4141" y2="320.0667">
				<stop  offset="0" style="stop-color:#FF4D0F;stop-opacity:0"/>
				<stop  offset="1" style="stop-color:#FF4D0F"/>
			</linearGradient>
			<path style="&st10;" d="M668.86,322.3c0.38-2.76,0.17-4.64-0.64-5.66c-0.84-0.99-2.41-1.48-4.76-1.48c-0.52,0-1.28,0.06-2.23,0.2
				c-0.96,0.14-1.8,0.26-2.53,0.38l-1.07,0.26l-3.22,23.1c-0.12,0.61-0.44,0.9-0.99,0.9h-2.93c-0.46,0-0.84-0.32-0.75-0.9l3.69-26.5
				c0.03-0.35,1.33-0.75,3.89-1.25c2.55-0.49,4.47-0.73,5.78-0.73c1.42,0,2.55,0.06,3.4,0.14c0.84,0.12,1.8,0.44,2.93,0.96
				c1.1,0.55,2.12,1.33,3.02,2.35c2.15-2.29,5.17-3.45,9.08-3.45c3.34,0,5.78,0.87,7.31,2.58c1.54,1.71,2,4.76,1.36,9.14
				l-2.32,16.75c-0.12,0.61-0.44,0.9-0.99,0.9h-2.93c-0.46,0-0.84-0.32-0.75-0.9l2.38-16.98c0.35-2.61,0.03-4.44-0.93-5.46
				s-2.55-1.51-4.73-1.51c-1.65,0-3.71,0.9-6.18,2.67c0.15,1.19-0.03,3.69-0.58,7.55l-1.92,13.73c-0.12,0.61-0.46,0.9-1.02,0.9h-2.9
				c-0.46,0-0.87-0.35-0.78-0.9L668.86,322.3z"/>
			<linearGradient id="SVGID_10_" gradientUnits="userSpaceOnUse" x1="332.3381" y1="320.0667" x2="852.4141" y2="320.0667">
				<stop  offset="0" style="stop-color:#FF4D0F;stop-opacity:0"/>
				<stop  offset="1" style="stop-color:#FF4D0F"/>
			</linearGradient>
			<path style="&st11;" d="M700.75,339.1c-0.12,0.61-0.44,0.9-0.99,0.9h-2.93c-0.46,0-0.84-0.32-0.75-0.9l3.8-27.22
				c0.09-0.61,0.41-0.9,1.02-0.87h2.9c0.55-0.03,0.81,0.26,0.78,0.87L700.75,339.1z M700.17,306.02c0.23-1.71,1.31-2.55,3.22-2.58
				c1.65,0,2.67,0.93,2.44,2.58c-0.26,1.71-1.31,2.55-3.16,2.55C701.01,308.57,699.94,307.76,700.17,306.02z"/>
			<linearGradient id="SVGID_11_" gradientUnits="userSpaceOnUse" x1="332.3381" y1="320.0667" x2="852.4141" y2="320.0667">
				<stop  offset="0" style="stop-color:#FF4D0F;stop-opacity:0"/>
				<stop  offset="1" style="stop-color:#FF4D0F"/>
			</linearGradient>
			<path style="&st12;" d="M725.83,336.66l-0.35,2.61c-0.09,0.52-0.41,0.84-1.02,0.96c-0.52,0.09-1.31,0.12-2.32,0.12
				c-5.83,0-8.27-3.28-7.37-9.87l2.09-14.98h-4.93c-0.55,0-0.81-0.29-0.73-0.87l0.35-2.76c0.09-0.61,0.41-0.9,1.02-0.87h4.93
				l0.61-4.12l0.99-3.45c0.2-0.61,0.52-0.9,1.02-0.87h2.44c0.61,0,0.87,0.29,0.78,0.87l-1.07,7.58h5.72c0.61,0,0.84,0.29,0.75,0.87
				l-0.35,2.76c-0.09,0.61-0.43,0.9-1.07,0.87h-5.72l-1.94,14.11c-0.09,1.02-0.09,2-0.06,2.93s0.44,1.71,1.22,2.35
				c0.78,0.64,1.92,0.96,3.42,0.96c0.23,0,0.73-0.06,0.87-0.06C725.65,335.79,725.91,336.08,725.83,336.66z"/>
			<linearGradient id="SVGID_12_" gradientUnits="userSpaceOnUse" x1="332.3381" y1="320.0667" x2="852.4141" y2="320.0667">
				<stop  offset="0" style="stop-color:#FF4D0F;stop-opacity:0"/>
				<stop  offset="1" style="stop-color:#FF4D0F"/>
			</linearGradient>
			<path style="&st13;" d="M758.27,323.61l-0.55,3.8c-1.19,8.62-5.66,12.94-13.44,12.94c-3.51,0-6.21-1.02-8.04-3.05
				c-1.83-2-2.44-5.31-1.83-9.9l0.55-3.8c0.64-4.61,2.18-7.92,4.59-9.96c2.41-2,5.4-3.02,8.91-3.02
				C756.18,310.63,759.46,314.96,758.27,323.61z M744.89,335.85c1.97,0,3.71-0.64,5.25-1.94c1.54-1.28,2.44-2.96,2.7-5.02l0.96-6.76
				c0.26-2.06-0.17-3.71-1.31-5.02s-2.7-1.94-4.67-1.94c-2,0-3.74,0.64-5.25,1.92c-1.51,1.31-2.41,2.99-2.67,5.05l-0.96,6.76
				c-0.26,2.06,0.17,3.71,1.31,5.02C741.38,335.21,742.92,335.85,744.89,335.85z"/>
			<linearGradient id="SVGID_13_" gradientUnits="userSpaceOnUse" x1="332.3381" y1="320.0667" x2="852.4141" y2="320.0667">
				<stop  offset="0" style="stop-color:#FF4D0F;stop-opacity:0"/>
				<stop  offset="1" style="stop-color:#FF4D0F"/>
			</linearGradient>
			<path style="&st14;" d="M773.63,315.65c-0.75,0.29-1.33,0.67-1.42,0.81l-0.06,0.17l-3.16,22.46c-0.12,0.61-0.44,0.9-0.99,0.9
				h-2.93c-0.46,0-0.84-0.32-0.75-0.9L768,312.9c0.09-0.55,1.95-1.36,5.11-1.89c1.6-0.26,3.22-0.38,4.88-0.38
				c1.74,0,3.13,0.17,4.21,0.49c0.38,0.12,0.55,0.35,0.46,0.7l-0.41,3.05c-0.09,0.43-0.29,0.64-0.64,0.64
				C778.15,314.84,774.67,315.25,773.63,315.65z"/>
			<linearGradient id="SVGID_14_" gradientUnits="userSpaceOnUse" x1="332.3381" y1="320.0667" x2="852.4141" y2="320.0667">
				<stop  offset="0" style="stop-color:#FF4D0F;stop-opacity:0"/>
				<stop  offset="1" style="stop-color:#FF4D0F"/>
			</linearGradient>
			<path style="&st15;" d="M790.55,339.1c-0.12,0.61-0.44,0.9-0.99,0.9h-2.93c-0.46,0-0.84-0.32-0.75-0.9l3.8-27.22
				c0.09-0.61,0.41-0.9,1.02-0.87h2.9c0.55-0.03,0.81,0.26,0.78,0.87L790.55,339.1z M789.97,306.02c0.23-1.71,1.31-2.55,3.22-2.58
				c1.65,0,2.67,0.93,2.44,2.58c-0.26,1.71-1.3,2.55-3.16,2.55C790.81,308.57,789.73,307.76,789.97,306.02z"/>
			<linearGradient id="SVGID_15_" gradientUnits="userSpaceOnUse" x1="332.3381" y1="320.0667" x2="852.4141" y2="320.0667">
				<stop  offset="0" style="stop-color:#FF4D0F;stop-opacity:0"/>
				<stop  offset="1" style="stop-color:#FF4D0F"/>
			</linearGradient>
			<path style="&st16;" d="M824.18,323.61l-0.55,3.8c-1.19,8.62-5.66,12.94-13.44,12.94c-3.51,0-6.21-1.02-8.04-3.05
				c-1.83-2-2.44-5.31-1.83-9.9l0.55-3.8c0.64-4.61,2.18-7.92,4.59-9.96c2.41-2,5.4-3.02,8.91-3.02
				C822.09,310.63,825.37,314.96,824.18,323.61z M810.8,335.85c1.97,0,3.71-0.64,5.25-1.94c1.54-1.28,2.44-2.96,2.7-5.02l0.96-6.76
				c0.26-2.06-0.17-3.71-1.3-5.02c-1.13-1.31-2.7-1.94-4.67-1.94c-2,0-3.74,0.64-5.25,1.92c-1.51,1.31-2.41,2.99-2.67,5.05
				l-0.96,6.76c-0.26,2.06,0.17,3.71,1.31,5.02S808.83,335.85,810.8,335.85z"/>
			<linearGradient id="SVGID_16_" gradientUnits="userSpaceOnUse" x1="332.3381" y1="320.0667" x2="852.4141" y2="320.0667">
				<stop  offset="0" style="stop-color:#FF4D0F;stop-opacity:0"/>
				<stop  offset="1" style="stop-color:#FF4D0F"/>
			</linearGradient>
			<path style="&st17;" d="M844.29,314.99c-1.94,0-3.51,0.26-4.7,0.78c-1.22,0.55-2,1.04-2.32,1.54c-0.35,0.49-0.55,0.99-0.58,1.48
				c-0.14,1.07,0.32,1.94,1.42,2.67c1.1,0.73,2.47,1.31,4.12,1.74c1.65,0.46,3.28,0.99,4.93,1.6s2.99,1.54,4.03,2.76
				c1.02,1.25,1.39,2.79,1.13,4.61c-0.78,5.49-5.05,8.21-12.74,8.18c-4.12,0-7.43-0.84-9.93-2.5c-0.32-0.2-0.44-0.49-0.35-0.87
				l0.23-0.73l1.07-1.97c0.12-0.26,0.35-0.41,0.73-0.41l0.29,0.12c2.41,1.36,5.11,2.03,8.07,2.03c2.64,0,4.58-0.26,5.78-0.81
				c1.19-0.55,1.89-1.54,2.09-2.99c0.15-1.19-0.32-2.15-1.42-2.9c-1.13-0.73-2.5-1.34-4.15-1.77c-1.65-0.44-3.28-0.93-4.93-1.48
				c-1.65-0.55-2.99-1.45-4-2.73c-1.02-1.25-1.39-2.84-1.13-4.79c0.38-2.73,1.74-4.73,4.04-6.01c2.29-1.28,4.88-1.92,7.75-1.92
				c2.5,0,4.99,0.29,7.49,0.9c0.32,0.14,0.44,0.38,0.41,0.67c0,0.12-0.06,0.35-0.17,0.7l-1.07,2.44c-0.14,0.26-0.38,0.41-0.73,0.41
				C846.53,315.22,844.76,314.96,844.29,314.99z"/>
		</g>
		<g>
			<path style="&st18;" d="M349.06,287.25h8.79c0.78,0,1.47,0.57,1.35,1.51l-7.03,49.73c-0.16,1.02-0.74,1.51-1.68,1.51h-7.77
				c-0.78,0-1.47-0.57-1.35-1.51l5.68-40.36l-12.96,5.93c-0.86,0-1.27-0.37-1.27-1.06l-0.49-6.63c0.08-1.02,0.49-1.68,1.23-2
				L349.06,287.25z"/>
			<path style="&st18;" d="M364.85,340.49c-2.66-0.94-3.84-2.9-3.52-5.85c0.29-1.59,1.1-3.03,2.45-4.25c1.35-1.19,2.82-1.8,4.5-1.8
				c1.59,0,2.94,0.61,3.97,1.8c1.02,1.23,1.39,2.66,1.15,4.25c-0.16,1.23-0.86,3.11-2.04,5.68c-1.19,2.58-2.41,4.83-3.64,6.79
				c-0.37,0.49-0.82,0.74-1.35,0.78h-3.27c-0.78,0-1.1-0.41-1.06-1.19C363.54,343.97,364.48,341.92,364.85,340.49z"/>
			<path style="&st18;" d="M406.27,297.56l-1.68-6.63c0.04-0.78,0.33-1.31,0.82-1.51c3.97-1.92,8.87-2.86,14.76-2.86
				c5.11,0,9.04,1.31,11.78,3.93c2.7,2.66,3.72,6.3,3.03,11c-0.37,2.66-1.43,5.15-3.11,7.48c-1.72,2.33-3.72,4.29-5.97,5.93
				c-2.25,1.68-4.54,3.27-6.79,4.78c-2.25,1.55-4.29,3.23-6.05,4.99c-1.8,1.8-2.9,3.6-3.35,5.44h19.75c0.86,0,1.47,0.74,1.35,1.51
				l-1.02,6.87c-0.12,0.78-0.74,1.51-1.68,1.51h-29.4c-0.78,0-1.43-0.57-1.31-1.51l0.98-7.2c0.78-5.36,3.89-10.14,7.52-13.13
				c1.8-1.47,3.72-2.94,5.81-4.42c4.13-2.94,7.77-4.78,10.26-7.61c1.27-1.39,1.96-2.82,2.13-4.25c0.53-3.64-1.92-5.44-7.44-5.44
				c-2.41,0-5.56,0.61-9.41,1.84C406.76,298.29,406.43,298.05,406.27,297.56z"/>
			<path style="&st18;" d="M449.66,350.8l1.76-5.85c0.2-0.49,0.61-0.74,1.19-0.78c1.51,0.45,3.03,0.65,4.54,0.7
				c3.39,0,5.64-0.57,6.67-1.72c1.02-1.14,1.76-3.31,2.21-6.5l-7.12-36.03c0.12-0.86,0.86-1.47,1.68-1.47h7.77
				c0.94,0,1.47,0.45,1.51,1.31l4.09,27.24l11.65-27.24c0.37-0.9,0.98-1.35,1.84-1.31h7.73c0.78,0,1.43,0.61,1.31,1.47l-17.5,37.13
				c-2.66,5.93-6.13,10.1-8.71,12.23c-1.27,1.06-2.74,1.88-4.42,2.45c-1.68,0.53-3.07,0.86-4.13,0.98
				c-1.06,0.12-2.41,0.16-4.01,0.16c-3.88,0-6.38-0.37-7.44-1.1C449.82,352.15,449.61,351.58,449.66,350.8z"/>
			<path style="&st18;" d="M541.25,336.53c-3.72,2.74-8.18,4.13-13.37,4.13c-5.28,0-9.65-0.86-13.17-2.58
				c-0.37-0.21-0.53-0.74-0.49-1.51l3.35-6.46c0.29-0.49,0.7-0.74,1.23-0.74c2.78,0.94,5.56,1.43,8.38,1.43s5.11-0.41,6.83-1.23
				c1.72-0.82,2.74-2.45,3.07-4.91l0.08-0.49c0.53-3.8-1.23-5.68-5.28-5.68h-5.28c-0.86,0-1.47-0.74-1.35-1.51l0.94-6.71
				c0.2-1.02,0.82-1.51,1.76-1.51h5.28c4.09,0,6.38-1.88,6.87-5.68l0.08-0.49c0.33-2.45-0.25-4.09-1.68-4.91
				c-1.47-0.82-3.64-1.23-6.46-1.23s-5.77,0.49-8.79,1.43c-0.53,0-0.9-0.25-1.1-0.78l-1.51-6.42c0.12-0.78,0.41-1.31,0.94-1.51
				c4.01-1.72,8.63-2.58,13.9-2.62c5.19,0,9.24,1.35,12.19,4.09c2.9,2.74,4.05,6.58,3.39,11.49c-0.86,5.68-3.93,9.49-9.28,11.41
				c4.78,2.04,6.83,5.89,6.09,11.53C547.18,329.98,544.98,333.79,541.25,336.53z"/>
			<path style="&st1;" d="M588.55,338.41c-0.09,0.46-2.84,1.13-6.85,1.6c-2,0.23-3.89,0.35-5.63,0.35c-7.89,0-11.12-5.11-9.67-15.32
				c0.7-5.14,2.73-9.17,5.28-11.26c2.53-2.09,5.08-3.13,7.72-3.13c3.28,0,6.04,0.46,8.21,1.36l1.19-8.56
				c0.03-0.61,0.38-0.9,0.99-0.87h2.93c0.58-0.03,0.84,0.26,0.75,0.87L588.55,338.41z M584.34,335.01l2.61-18.66
				c-2.73-0.78-4.88-1.19-6.47-1.19c-3.48,0-5.92,1.13-7.23,3.22c-1.31,2.12-1.86,4-2.24,6.94c-0.14,1.22-0.26,2.21-0.32,2.99
				c-0.06,0.78-0.03,1.71,0.12,2.76c0.15,1.04,0.44,1.89,0.9,2.5c0.9,1.25,2.93,2.29,5.86,2.29c1.45,0,4.29-0.41,5.69-0.61
				L584.34,335.01z"/>
			<path style="&st1;" d="M622.13,323.61l-0.55,3.8c-1.19,8.62-5.66,12.94-13.44,12.94c-3.51,0-6.21-1.02-8.04-3.05
				c-1.83-2-2.44-5.31-1.83-9.9l0.55-3.8c0.64-4.61,2.18-7.92,4.58-9.96c2.41-2,5.4-3.02,8.91-3.02
				C620.04,310.63,623.32,314.96,622.13,323.61z M608.75,335.85c1.97,0,3.71-0.64,5.25-1.94c1.54-1.28,2.44-2.96,2.7-5.02l0.96-6.76
				c0.26-2.06-0.17-3.71-1.31-5.02s-2.7-1.94-4.67-1.94c-2,0-3.74,0.64-5.25,1.92c-1.51,1.31-2.41,2.99-2.67,5.05l-0.96,6.76
				c-0.26,2.06,0.17,3.71,1.31,5.02C605.24,335.21,606.78,335.85,608.75,335.85z"/>
			<path style="&st1;" d="M637.48,315.65c-0.75,0.29-1.33,0.67-1.42,0.81l-0.06,0.17l-3.16,22.46c-0.12,0.61-0.44,0.9-0.99,0.9
				h-2.93c-0.46,0-0.84-0.32-0.75-0.9l3.69-26.21c0.09-0.55,1.95-1.36,5.11-1.89c1.6-0.26,3.22-0.38,4.88-0.38
				c1.74,0,3.13,0.17,4.21,0.49c0.38,0.12,0.55,0.35,0.46,0.7l-0.41,3.05c-0.09,0.43-0.29,0.64-0.64,0.64
				C642.01,314.84,638.53,315.25,637.48,315.65z"/>
			<path style="&st1;" d="M668.86,322.3c0.38-2.76,0.17-4.64-0.64-5.66c-0.84-0.99-2.41-1.48-4.76-1.48c-0.52,0-1.28,0.06-2.23,0.2
				c-0.96,0.14-1.8,0.26-2.53,0.38l-1.07,0.26l-3.22,23.1c-0.12,0.61-0.44,0.9-0.99,0.9h-2.93c-0.46,0-0.84-0.32-0.75-0.9l3.69-26.5
				c0.03-0.35,1.33-0.75,3.89-1.25c2.55-0.49,4.47-0.73,5.78-0.73c1.42,0,2.55,0.06,3.4,0.14c0.84,0.12,1.8,0.44,2.93,0.96
				c1.1,0.55,2.12,1.33,3.02,2.35c2.15-2.29,5.17-3.45,9.08-3.45c3.34,0,5.78,0.87,7.31,2.58c1.54,1.71,2,4.76,1.36,9.14
				l-2.32,16.75c-0.12,0.61-0.44,0.9-0.99,0.9h-2.93c-0.46,0-0.84-0.32-0.75-0.9l2.38-16.98c0.35-2.61,0.03-4.44-0.93-5.46
				s-2.55-1.51-4.73-1.51c-1.65,0-3.71,0.9-6.18,2.67c0.15,1.19-0.03,3.69-0.58,7.55l-1.92,13.73c-0.12,0.61-0.46,0.9-1.02,0.9h-2.9
				c-0.46,0-0.87-0.35-0.78-0.9L668.86,322.3z"/>
			<path style="&st1;" d="M700.75,339.1c-0.12,0.61-0.44,0.9-0.99,0.9h-2.93c-0.46,0-0.84-0.32-0.75-0.9l3.8-27.22
				c0.09-0.61,0.41-0.9,1.02-0.87h2.9c0.55-0.03,0.81,0.26,0.78,0.87L700.75,339.1z M700.17,306.02c0.23-1.71,1.31-2.55,3.22-2.58
				c1.65,0,2.67,0.93,2.44,2.58c-0.26,1.71-1.31,2.55-3.16,2.55C701.01,308.57,699.94,307.76,700.17,306.02z"/>
			<path style="&st1;" d="M725.83,336.66l-0.35,2.61c-0.09,0.52-0.41,0.84-1.02,0.96c-0.52,0.09-1.31,0.12-2.32,0.12
				c-5.83,0-8.27-3.28-7.37-9.87l2.09-14.98h-4.93c-0.55,0-0.81-0.29-0.73-0.87l0.35-2.76c0.09-0.61,0.41-0.9,1.02-0.87h4.93
				l0.61-4.12l0.99-3.45c0.2-0.61,0.52-0.9,1.02-0.87h2.44c0.61,0,0.87,0.29,0.78,0.87l-1.07,7.58h5.72c0.61,0,0.84,0.29,0.75,0.87
				l-0.35,2.76c-0.09,0.61-0.43,0.9-1.07,0.87h-5.72l-1.94,14.11c-0.09,1.02-0.09,2-0.06,2.93s0.44,1.71,1.22,2.35
				c0.78,0.64,1.92,0.96,3.42,0.96c0.23,0,0.73-0.06,0.87-0.06C725.65,335.79,725.91,336.08,725.83,336.66z"/>
			<path style="&st1;" d="M758.27,323.61l-0.55,3.8c-1.19,8.62-5.66,12.94-13.44,12.94c-3.51,0-6.21-1.02-8.04-3.05
				c-1.83-2-2.44-5.31-1.83-9.9l0.55-3.8c0.64-4.61,2.18-7.92,4.59-9.96c2.41-2,5.4-3.02,8.91-3.02
				C756.18,310.63,759.46,314.96,758.27,323.61z M744.89,335.85c1.97,0,3.71-0.64,5.25-1.94c1.54-1.28,2.44-2.96,2.7-5.02l0.96-6.76
				c0.26-2.06-0.17-3.71-1.31-5.02s-2.7-1.94-4.67-1.94c-2,0-3.74,0.64-5.25,1.92c-1.51,1.31-2.41,2.99-2.67,5.05l-0.96,6.76
				c-0.26,2.06,0.17,3.71,1.31,5.02C741.38,335.21,742.92,335.85,744.89,335.85z"/>
			<path style="&st1;" d="M773.63,315.65c-0.75,0.29-1.33,0.67-1.42,0.81l-0.06,0.17l-3.16,22.46c-0.12,0.61-0.44,0.9-0.99,0.9
				h-2.93c-0.46,0-0.84-0.32-0.75-0.9L768,312.9c0.09-0.55,1.95-1.36,5.11-1.89c1.6-0.26,3.22-0.38,4.88-0.38
				c1.74,0,3.13,0.17,4.21,0.49c0.38,0.12,0.55,0.35,0.46,0.7l-0.41,3.05c-0.09,0.43-0.29,0.64-0.64,0.64
				C778.15,314.84,774.67,315.25,773.63,315.65z"/>
			<path style="&st1;" d="M790.55,339.1c-0.12,0.61-0.44,0.9-0.99,0.9h-2.93c-0.46,0-0.84-0.32-0.75-0.9l3.8-27.22
				c0.09-0.61,0.41-0.9,1.02-0.87h2.9c0.55-0.03,0.81,0.26,0.78,0.87L790.55,339.1z M789.97,306.02c0.23-1.71,1.31-2.55,3.22-2.58
				c1.65,0,2.67,0.93,2.44,2.58c-0.26,1.71-1.3,2.55-3.16,2.55C790.81,308.57,789.73,307.76,789.97,306.02z"/>
			<path style="&st1;" d="M824.18,323.61l-0.55,3.8c-1.19,8.62-5.66,12.94-13.44,12.94c-3.51,0-6.21-1.02-8.04-3.05
				c-1.83-2-2.44-5.31-1.83-9.9l0.55-3.8c0.64-4.61,2.18-7.92,4.59-9.96c2.41-2,5.4-3.02,8.91-3.02
				C822.09,310.63,825.37,314.96,824.18,323.61z M810.8,335.85c1.97,0,3.71-0.64,5.25-1.94c1.54-1.28,2.44-2.96,2.7-5.02l0.96-6.76
				c0.26-2.06-0.17-3.71-1.3-5.02c-1.13-1.31-2.7-1.94-4.67-1.94c-2,0-3.74,0.64-5.25,1.92c-1.51,1.31-2.41,2.99-2.67,5.05
				l-0.96,6.76c-0.26,2.06,0.17,3.71,1.31,5.02S808.83,335.85,810.8,335.85z"/>
			<path style="&st1;" d="M844.29,314.99c-1.94,0-3.51,0.26-4.7,0.78c-1.22,0.55-2,1.04-2.32,1.54c-0.35,0.49-0.55,0.99-0.58,1.48
				c-0.14,1.07,0.32,1.94,1.42,2.67c1.1,0.73,2.47,1.31,4.12,1.74c1.65,0.46,3.28,0.99,4.93,1.6s2.99,1.54,4.03,2.76
				c1.02,1.25,1.39,2.79,1.13,4.61c-0.78,5.49-5.05,8.21-12.74,8.18c-4.12,0-7.43-0.84-9.93-2.5c-0.32-0.2-0.44-0.49-0.35-0.87
				l0.23-0.73l1.07-1.97c0.12-0.26,0.35-0.41,0.73-0.41l0.29,0.12c2.41,1.36,5.11,2.03,8.07,2.03c2.64,0,4.58-0.26,5.78-0.81
				c1.19-0.55,1.89-1.54,2.09-2.99c0.15-1.19-0.32-2.15-1.42-2.9c-1.13-0.73-2.5-1.34-4.15-1.77c-1.65-0.44-3.28-0.93-4.93-1.48
				c-1.65-0.55-2.99-1.45-4-2.73c-1.02-1.25-1.39-2.84-1.13-4.79c0.38-2.73,1.74-4.73,4.04-6.01c2.29-1.28,4.88-1.92,7.75-1.92
				c2.5,0,4.99,0.29,7.49,0.9c0.32,0.14,0.44,0.38,0.41,0.67c0,0.12-0.06,0.35-0.17,0.7l-1.07,2.44c-0.14,0.26-0.38,0.41-0.73,0.41
				C846.53,315.22,844.76,314.96,844.29,314.99z"/>
		</g>
	</g>
	<g>
		<g>
			<path style="&st1;" d="M55.92,340.05c-0.69,0-1.31-0.51-1.2-1.35l6.26-44.27c0.11-0.91,0.58-1.35,1.49-1.35h13.22
				c4.77,0,8.56,1.2,10.63,2.91c1.06,0.87,1.93,1.86,2.66,2.91c2.11,3.28,2.18,6.66,2.11,8.26l-0.07,0.8l-2.37,17.15
				c-0.11,0.4-0.11,0.91-0.84,2.95c-0.76,2.04-1.64,3.79-3.71,6.08c-2.08,2.29-4.48,3.9-8.45,5.02c-2,0.58-4.19,0.87-6.55,0.87
				H55.92z M69.5,301.85l-4.11,29.38h4.7c5.35,0,8.41-2.66,9.17-7.97l1.86-13.4c0.47-3.5-0.47-5.79-2.22-6.81
				c-1.78-0.98-3.09-1.2-4.7-1.2H69.5z"/>
			<path style="&st1;" d="M127.19,324.46c-0.15,0.91-0.66,1.35-1.57,1.35h-19.7v0.29c-0.25,2.48,0.29,4.11,1.6,4.92
				s3.71,1.2,7.21,1.2c2.08,0,4.41-0.18,6.92-0.51c0.47,0,0.8,0.22,0.98,0.66l0.07,6.41c-0.18,0.55-0.47,0.87-0.84,0.98
				c-2.15,0.62-5.79,0.91-10.96,0.87c-5.13,0-8.99-1.35-11.61-4.08c-2.66-2.69-3.57-6.99-2.77-12.85l0.8-5.57
				c0.15-1.09,0.36-2.15,0.66-3.17c0.25-1.02,0.8-2.29,1.6-3.86c0.8-1.53,1.78-2.84,2.95-3.93c2.33-2.18,6.66-4.11,12.05-4.11
				c5.35,0,9.39,1.75,11.1,4.11c0.84,1.2,1.53,2.48,2,3.86c0.47,1.42,0.66,2.73,0.55,3.97c-0.11,1.24-0.18,2.29-0.18,3.13
				L127.19,324.46z M118.53,317.76c0.55-4.19-1.06-6.26-4.84-6.26c-3.86,0-6.08,2.08-6.63,6.26H118.53z"/>
			<path style="&st1;" d="M138.11,306.62c0.15-0.8,2.22-1.6,6.26-2.4c4.04-0.76,7.39-1.17,10.05-1.17c4.92,0,8.52,1.53,10.78,4.59
				c2.22,3.06,2.84,8.26,1.78,15.62c-0.87,6.44-3.46,11.32-6.59,13.8c-3.13,2.48-6.3,3.57-9.39,3.57c-3.13,0-5.75-0.44-7.83-1.31
				l-1.49,10.49c-0.15,0.91-0.66,1.35-1.49,1.35h-6.92c-0.69,0-1.31-0.58-1.2-1.35L138.11,306.62z M146.99,312.3l-2.69,19
				c2,0.62,3.68,0.91,5.06,0.91c4.22,0,6.7-1.89,7.39-5.68c0.29-1.49,0.55-2.99,0.73-4.48l0.62-4.84c0.15-2.04-0.36-3.5-1.49-4.41
				c-1.13-0.87-2.58-1.31-4.33-1.31c-1.2,0-3.28,0.29-4.48,0.58L146.99,312.3z"/>
			<path style="&st1;" d="M178.8,311.79l-0.29-6.19c0.04-0.47,0.36-0.87,0.95-1.13c3.09-0.95,6.77-1.42,11.1-1.42
				c9.47,0,14.27,4.99,13,14.56l-2.84,19.81c-0.11,0.8-1.97,1.53-5.61,2.18c-3.68,0.69-6.74,1.02-9.17,1.02
				c-4.19,0-6.95-0.44-9.65-1.93c-2.69-1.49-3.82-4.62-3.24-9.17c0.66-4.51,2.26-7.65,4.81-9.36c2.51-1.71,5.79-2.55,9.76-2.55h5.72
				l0.07-0.47c0.58-4.19-1.27-5.64-5.97-5.64c-2.22-0.04-4.81,0.29-7.68,0.95C179.28,312.45,178.95,312.23,178.8,311.79z
				 M192.82,325.19h-3.13c-4.26,0-6.55,1.2-6.88,3.6c-0.4,2.95,0.73,3.86,4.11,3.86c3.24,0,4.95-0.58,5.13-1.78L192.82,325.19z"/>
			<path style="&st1;" d="M227.4,311.03c-2.95,0-4.99,1.09-5.42,1.82c-0.22,0.4-0.36,0.76-0.4,1.17c-0.58,3.13,6.41,3.82,11.58,6.01
				c1.78,0.73,3.2,1.89,4.3,3.53c1.09,1.64,1.46,3.71,1.13,6.19c-0.44,3.13-1.97,5.72-4.59,7.79s-6.63,3.09-12.05,3.09
				c-5.46,0-9.79-1.27-13.03-3.79c-0.44-0.33-0.62-0.73-0.55-1.13c0-0.18,0.33-0.62,0.33-0.73l2.29-4.26
				c0.29-0.4,0.69-0.58,1.2-0.58c0.18,0,0.44,0.04,0.73,0.15c4.37,1.6,7.54,2.4,9.54,2.37c4.48,0,6.23-0.66,6.52-2.84
				c0.29-1.89-1.71-3.17-4.48-3.86c-1.42-0.33-2.91-0.8-4.48-1.38c-1.6-0.58-3.06-1.24-4.37-1.97c-1.31-0.69-2.33-1.82-3.09-3.31
				c-0.76-1.49-0.98-3.24-0.66-5.28c0.47-3.79,2.22-6.55,5.24-8.34c3.02-1.75,6.37-2.62,10.12-2.62c4.55,0,8.23,0.51,10.96,1.49
				c0.4,0.15,0.58,0.47,0.58,0.98c-0.11,0.18-0.36,0.76-0.36,0.87l-2.4,4.95c-0.33,0.44-0.73,0.66-1.13,0.66
				c-0.11,0-0.66-0.22-0.8-0.22C232.24,311.32,230.02,311.07,227.4,311.03z"/>
			<path style="&st1;" d="M282.22,338.01c-0.09,0.64-1.68,1.22-4.85,1.71c-3.16,0.52-5.86,0.78-8.13,0.78
				c-3.92,0-6.79-1.22-8.56-3.66s-2.26-6.59-1.42-12.45c0.73-4.88,2.32-8.42,4.82-10.59s5.14-3.25,7.89-3.25
				c2.5,0,4.59,0.49,6.24,1.48l1.19-8.36c0.09-0.73,0.46-1.07,1.19-1.07h5.54c0.67,0,0.96,0.35,0.93,1.07L282.22,338.01z
				 M275.26,333.14l2.15-15.15c-1.63-0.49-2.99-0.73-4.12-0.7c-3.34,0-5.25,1.51-5.8,4.5c-0.26,1.19-0.49,2.38-0.67,3.57l-0.41,3.86
				c-0.12,1.63,0.26,2.79,1.16,3.51c0.9,0.73,2.03,1.07,3.4,1.07c0.96,0,2.64-0.23,3.57-0.46L275.26,333.14z"/>
			<path style="&st1;" d="M314.96,327.62c-0.12,0.73-0.52,1.07-1.25,1.07h-15.7v0.23c-0.2,1.97,0.23,3.28,1.28,3.92
				c1.04,0.64,2.96,0.96,5.75,0.96c1.65,0,3.51-0.14,5.51-0.41c0.38,0,0.64,0.17,0.78,0.52l0.06,5.11c-0.14,0.44-0.38,0.7-0.67,0.78
				c-1.71,0.49-4.61,0.73-8.74,0.7c-4.09,0-7.17-1.07-9.26-3.25c-2.12-2.15-2.84-5.57-2.21-10.25l0.64-4.44
				c0.12-0.87,0.29-1.71,0.52-2.52c0.2-0.81,0.64-1.83,1.28-3.08c0.64-1.22,1.42-2.26,2.35-3.13c1.86-1.74,5.31-3.28,9.61-3.28
				c4.27,0,7.49,1.39,8.85,3.28c0.67,0.96,1.22,1.97,1.6,3.08c0.38,1.13,0.52,2.18,0.44,3.16c-0.09,0.99-0.15,1.83-0.15,2.5
				L314.96,327.62z M308.05,322.28c0.44-3.34-0.84-4.99-3.86-4.99c-3.08,0-4.85,1.65-5.28,4.99H308.05z"/>
		</g>
	</g>
</g>
<g>
	<g>
		<g>
			<path style="&st1;" d="M203.63,409.27c-0.15,0.91-0.66,1.35-1.57,1.35h-19.7v0.29c-0.25,2.48,0.29,4.11,1.6,4.92
				s3.71,1.2,7.21,1.2c2.08,0,4.41-0.18,6.92-0.51c0.47,0,0.8,0.22,0.98,0.66l0.07,6.41c-0.18,0.55-0.47,0.87-0.84,0.98
				c-2.15,0.62-5.79,0.91-10.96,0.87c-5.13,0-8.99-1.35-11.61-4.08c-2.66-2.69-3.57-6.99-2.77-12.85l0.8-5.57
				c0.15-1.09,0.36-2.15,0.66-3.17c0.25-1.02,0.8-2.29,1.6-3.86c0.8-1.53,1.78-2.84,2.95-3.93c2.33-2.18,6.66-4.11,12.05-4.11
				c5.35,0,9.39,1.75,11.1,4.11c0.84,1.2,1.53,2.48,2,3.86c0.47,1.42,0.66,2.73,0.55,3.97c-0.11,1.24-0.18,2.29-0.18,3.13
				L203.63,409.27z M194.96,402.57c0.55-4.19-1.06-6.26-4.84-6.26c-3.86,0-6.08,2.08-6.63,6.26H194.96z"/>
			<path style="&st1;" d="M234.6,402.03c0.25-2.08-0.22-3.57-1.38-4.44c-1.17-0.84-2.69-1.27-4.59-1.27c-1.31,0-3.28,0.36-4.41,0.66
				l-0.8,0.22l-3.75,26.32c-0.15,0.91-0.66,1.35-1.49,1.35h-6.92c-0.69,0-1.31-0.51-1.2-1.35l4.48-32.08c0.15-0.8,2.26-1.6,6.33-2.4
				c4.08-0.76,7.39-1.17,9.9-1.17c5.02,0,8.67,1.35,10.92,4.04c2.22,2.73,2.84,7.68,1.86,14.89l-2.4,16.71
				c-0.15,0.91-0.66,1.35-1.49,1.35h-6.92c-0.69,0-1.31-0.58-1.2-1.35L234.6,402.03z"/>
			<path style="&st1;" d="M268.16,394.27c0.4-2.48,0.98-4.81,2.99-8.16c0.98-1.67,2.22-3.13,3.68-4.37
				c2.88-2.48,7.86-4.48,13.94-4.48c4.33,0,8.12,0.62,11.4,1.82c0.4,0.15,0.58,0.47,0.58,1.02l-1.93,6.48
				c-0.29,0.47-0.69,0.73-1.2,0.76c-2.99-0.84-5.83-1.27-8.48-1.27c-2.8,0-5.28,0.69-7.5,2.11c-2.22,1.42-3.57,3.75-4.04,6.99
				l-1.75,12.38c-0.44,3.24,0.25,5.53,2.08,6.95c1.78,1.42,4.08,2.15,6.88,2.15c2.69,0,5.64-0.44,8.88-1.27
				c0.47,0,0.8,0.25,0.98,0.73l0.15,6.52c-0.18,0.55-0.51,0.91-0.91,1.02c-3.57,1.2-7.54,1.78-11.94,1.78
				c-5.06,0-9.14-1.31-11.32-3.24c-1.09-0.98-2-2.08-2.77-3.31c-1.53-2.48-1.64-5.06-1.89-7.43c-0.11-1.16-0.07-2.18,0.18-3.02
				L268.16,394.27z"/>
			<path style="&st1;" d="M317.67,391.36c2.29-2.33,5.46-3.5,9.54-3.5c7.57,0,11.72,4.59,10.52,13.43l-3.13,22.21
				c-0.15,0.91-0.66,1.35-1.49,1.35h-6.92c-0.69,0-1.31-0.51-1.2-1.35l3.06-21.84c0.15-1.2-0.15-2.37-0.87-3.57
				c-0.76-1.2-2.15-1.78-4.19-1.78c-2.18,0-4.3,0.84-6.33,2.51l-3.53,24.68c-0.15,0.91-0.66,1.35-1.49,1.35h-6.92
				c-0.69,0-1.31-0.51-1.2-1.35l6.26-44.27c0.11-0.91,0.58-1.35,1.49-1.35h6.95c0.84,0,1.2,0.44,1.17,1.35L317.67,391.36z"/>
			<path style="&st1;" d="M372.85,391.69c2.37,2.58,3.13,6.81,2.29,12.67l-0.69,4.62c-1.49,11-7.28,16.49-17.37,16.46
				c-10.01,0-14.24-5.5-12.74-16.46l0.66-4.62c1.6-11,7.39-16.49,17.4-16.49C366.95,387.86,370.45,389.14,372.85,391.69z
				 M358.29,417.03c1.53,0,2.91-0.51,4.11-1.53s1.89-2.37,2.15-4.08l1.35-9.54c0.4-3.39-1.64-5.57-4.7-5.57
				c-1.57,0-2.91,0.51-4.11,1.53s-1.89,2.37-2.08,4.04l-1.35,9.54c-0.25,1.71,0.07,3.06,0.98,4.08
				C355.52,416.52,356.72,417.03,358.29,417.03z"/>
			<path style="&st1;" d="M400.41,396.31c-3.06,0-5.32,0.69-5.9,1.16l-0.36,0.4l-3.6,25.63c-0.15,0.91-0.66,1.35-1.49,1.35h-6.92
				c-0.69,0-1.31-0.51-1.2-1.35l4.48-32.08c0.18-0.87,2.95-2.08,7.65-2.95c2.37-0.4,4.84-0.62,7.43-0.62c1.86,0,3.42,0.15,4.77,0.44
				c0.55,0.25,0.8,0.62,0.73,1.13l-0.87,6.26c-0.11,0.66-0.44,0.98-0.91,0.98C402.95,396.42,401.68,396.31,400.41,396.31z"/>
			<path style="&st1;" d="M427.67,396.31c-3.06,0-5.32,0.69-5.9,1.16l-0.36,0.4l-3.6,25.63c-0.15,0.91-0.66,1.35-1.49,1.35h-6.92
				c-0.69,0-1.31-0.51-1.2-1.35l4.48-32.08c0.18-0.87,2.95-2.08,7.65-2.95c2.37-0.4,4.84-0.62,7.43-0.62c1.86,0,3.42,0.15,4.77,0.44
				c0.55,0.25,0.8,0.62,0.73,1.13l-0.87,6.26c-0.11,0.66-0.44,0.98-0.91,0.98C430.22,396.42,428.94,396.31,427.67,396.31z"/>
			<path style="&st1;" d="M445.07,423.51c-0.15,0.91-0.66,1.35-1.49,1.35h-6.92c-0.69,0-1.31-0.51-1.2-1.35l4.77-33.71
				c0.11-0.91,0.58-1.35,1.49-1.31h6.95c0.84-0.04,1.2,0.4,1.17,1.31L445.07,423.51z M441.13,381.02c0.44-3.13,2.33-4.7,5.72-4.7
				c3.46,0,4.99,1.57,4.55,4.7c-0.4,3.09-2.33,4.62-5.86,4.62C442.23,385.64,440.73,384.11,441.13,381.02z"/>
			<path style="&st1;" d="M463.92,423.51c-0.15,0.91-0.66,1.35-1.49,1.35h-6.92c-0.69,0-1.31-0.51-1.2-1.35l6.26-44.27
				c0.11-0.91,0.58-1.35,1.49-1.35h6.95c0.84,0,1.2,0.44,1.17,1.35L463.92,423.51z"/>
			<path style="&st1;" d="M482.78,423.51c-0.15,0.91-0.66,1.35-1.49,1.35h-6.92c-0.69,0-1.31-0.51-1.2-1.35l6.26-44.27
				c0.11-0.91,0.58-1.35,1.49-1.35h6.95c0.84,0,1.2,0.44,1.17,1.35L482.78,423.51z"/>
			<path style="&st1;" d="M521.8,391.69c2.37,2.58,3.13,6.81,2.29,12.67l-0.69,4.62c-1.49,11-7.28,16.49-17.37,16.46
				c-10.01,0-14.23-5.5-12.74-16.46l0.66-4.62c1.6-11,7.39-16.49,17.4-16.49C515.9,387.86,519.4,389.14,521.8,391.69z
				 M507.24,417.03c1.53,0,2.91-0.51,4.11-1.53c1.2-1.02,1.89-2.37,2.15-4.08l1.35-9.54c0.4-3.39-1.64-5.57-4.7-5.57
				c-1.57,0-2.91,0.51-4.11,1.53s-1.89,2.37-2.08,4.04l-1.35,9.54c-0.25,1.71,0.07,3.06,0.98,4.08
				C504.47,416.52,505.67,417.03,507.24,417.03z"/>
			<path style="&st1;" d="M547.86,395.84c-2.95,0-4.99,1.09-5.42,1.82c-0.22,0.4-0.36,0.76-0.4,1.17
				c-0.58,3.13,6.41,3.82,11.58,6.01c1.78,0.73,3.2,1.89,4.3,3.53c1.09,1.64,1.46,3.71,1.13,6.19c-0.44,3.13-1.97,5.72-4.59,7.79
				s-6.63,3.09-12.05,3.09c-5.46,0-9.79-1.27-13.03-3.79c-0.44-0.33-0.62-0.73-0.55-1.13c0-0.18,0.33-0.62,0.33-0.73l2.29-4.26
				c0.29-0.4,0.69-0.58,1.2-0.58c0.18,0,0.44,0.04,0.73,0.15c4.37,1.6,7.54,2.4,9.54,2.37c4.48,0,6.23-0.66,6.52-2.84
				c0.29-1.89-1.71-3.17-4.48-3.86c-1.42-0.33-2.91-0.8-4.48-1.38c-1.6-0.58-3.06-1.24-4.37-1.97c-1.31-0.69-2.33-1.82-3.09-3.31
				c-0.76-1.49-0.98-3.24-0.66-5.28c0.47-3.79,2.22-6.55,5.24-8.34c3.02-1.75,6.37-2.62,10.12-2.62c4.55,0,8.23,0.51,10.96,1.49
				c0.4,0.15,0.58,0.47,0.58,0.98c-0.11,0.18-0.36,0.76-0.36,0.87l-2.4,4.95c-0.33,0.44-0.73,0.66-1.13,0.66
				c-0.11,0-0.66-0.22-0.8-0.22C552.7,396.13,550.48,395.87,547.86,395.84z"/>
		</g>
		<g>
			<g>
				<path style="&st1;" d="M609.87,423.26c-0.09,0.46-2.84,1.13-6.85,1.6c-2,0.23-3.89,0.35-5.63,0.35
					c-7.89,0-11.12-5.11-9.66-15.32c0.7-5.14,2.73-9.17,5.28-11.26c2.52-2.09,5.08-3.13,7.72-3.13c3.28,0,6.04,0.46,8.21,1.36
					l1.19-8.56c0.03-0.61,0.38-0.9,0.99-0.87h2.93c0.58-0.03,0.84,0.26,0.75,0.87L609.87,423.26z M605.66,419.86l2.61-18.66
					c-2.73-0.78-4.88-1.19-6.47-1.19c-3.48,0-5.92,1.13-7.23,3.22c-1.31,2.12-1.86,4-2.23,6.94c-0.14,1.22-0.26,2.21-0.32,2.99
					c-0.06,0.78-0.03,1.71,0.12,2.76c0.14,1.04,0.44,1.89,0.9,2.5c0.9,1.25,2.93,2.29,5.86,2.29c1.45,0,4.3-0.41,5.69-0.61
					L605.66,419.86z"/>
				<path style="&st1;" d="M639.16,420.7l0.06,3.13c-0.12,0.35-0.32,0.58-0.58,0.67c-1.89,0.49-4.44,0.73-7.66,0.7
					c-8.77,0-12.54-4.38-11.29-13.18l0.58-4.35c0.23-1.6,0.64-3.19,1.94-5.63c0.64-1.19,1.42-2.26,2.38-3.19
					c1.86-1.86,5.14-3.37,9.05-3.37c4.29,0,7.34,1.54,8.62,3.51c0.64,0.99,1.13,2.06,1.51,3.22c0.38,1.19,0.49,2.26,0.38,3.28
					c-0.12,1.02-0.17,1.86-0.17,2.52l-0.52,4c-0.12,0.61-0.46,0.9-1.02,0.87H624.3l-0.12,0.73c-0.23,3.25,0.32,5.11,2.21,6.01
					c0.96,0.46,1.97,0.75,3.05,0.87c1.07,0.15,2.58,0.2,4.56,0.2c0.96-0.03,2.47-0.17,4.53-0.49
					C638.95,420.21,639.18,420.38,639.16,420.7z M639.21,408.4c0.38-3.02-0.12-5.34-0.99-6.44c-0.44-0.55-1.02-0.99-1.71-1.31
					c-1.39-0.64-2.21-0.64-3.22-0.64c-4.85,0-7.66,2.79-8.45,8.39H639.21z"/>
				<path style="&st1;" d="M664.06,399.84c-1.94,0-3.51,0.26-4.7,0.78c-1.22,0.55-2,1.04-2.32,1.54c-0.35,0.49-0.55,0.99-0.58,1.48
					c-0.14,1.07,0.32,1.94,1.42,2.67c1.1,0.73,2.47,1.31,4.12,1.74c1.65,0.46,3.28,0.99,4.93,1.6s2.99,1.54,4.03,2.76
					c1.02,1.25,1.39,2.79,1.13,4.61c-0.78,5.49-5.05,8.21-12.74,8.18c-4.12,0-7.43-0.84-9.93-2.5c-0.32-0.2-0.44-0.49-0.35-0.87
					l0.23-0.73l1.07-1.97c0.12-0.26,0.35-0.41,0.73-0.41l0.29,0.12c2.41,1.36,5.11,2.03,8.07,2.03c2.64,0,4.58-0.26,5.78-0.81
					c1.19-0.55,1.89-1.54,2.09-2.99c0.15-1.19-0.32-2.15-1.42-2.9c-1.13-0.73-2.5-1.34-4.15-1.77c-1.65-0.44-3.28-0.93-4.93-1.48
					c-1.65-0.55-2.99-1.45-4-2.73c-1.02-1.25-1.39-2.84-1.13-4.79c0.38-2.73,1.74-4.73,4.04-6.01c2.29-1.28,4.88-1.92,7.75-1.92
					c2.5,0,4.99,0.29,7.49,0.9c0.32,0.14,0.44,0.38,0.41,0.67c0,0.12-0.06,0.35-0.17,0.7l-1.07,2.44c-0.14,0.26-0.38,0.41-0.73,0.41
					C666.29,400.07,664.52,399.81,664.06,399.84z"/>
				<path style="&st1;" d="M701.35,423.26c-0.09,0.46-2.84,1.13-6.85,1.6c-2,0.23-3.89,0.35-5.63,0.35
					c-7.89,0-11.12-5.11-9.66-15.32c0.7-5.14,2.73-9.17,5.28-11.26c2.53-2.09,5.08-3.13,7.72-3.13c3.28,0,6.04,0.46,8.21,1.36
					l1.19-8.56c0.03-0.61,0.38-0.9,0.99-0.87h2.93c0.58-0.03,0.84,0.26,0.76,0.87L701.35,423.26z M697.14,419.86l2.61-18.66
					c-2.73-0.78-4.88-1.19-6.47-1.19c-3.48,0-5.92,1.13-7.23,3.22c-1.31,2.12-1.86,4-2.24,6.94c-0.15,1.22-0.26,2.21-0.32,2.99
					c-0.06,0.78-0.03,1.71,0.12,2.76c0.15,1.04,0.43,1.89,0.9,2.5c0.9,1.25,2.93,2.29,5.86,2.29c1.45,0,4.29-0.41,5.69-0.61
					L697.14,419.86z"/>
				<path style="&st1;" d="M730.63,420.7l0.06,3.13c-0.12,0.35-0.32,0.58-0.58,0.67c-1.89,0.49-4.44,0.73-7.66,0.7
					c-8.76,0-12.54-4.38-11.29-13.18l0.58-4.35c0.23-1.6,0.64-3.19,1.95-5.63c0.64-1.19,1.42-2.26,2.38-3.19
					c1.86-1.86,5.14-3.37,9.05-3.37c4.3,0,7.34,1.54,8.62,3.51c0.64,0.99,1.13,2.06,1.51,3.22c0.38,1.19,0.49,2.26,0.38,3.28
					c-0.12,1.02-0.17,1.86-0.17,2.52l-0.52,4c-0.12,0.61-0.46,0.9-1.02,0.87h-18.14l-0.12,0.73c-0.23,3.25,0.32,5.11,2.21,6.01
					c0.96,0.46,1.97,0.75,3.05,0.87c1.07,0.15,2.58,0.2,4.56,0.2c0.96-0.03,2.47-0.17,4.53-0.49
					C730.43,420.21,730.66,420.38,730.63,420.7z M730.69,408.4c0.38-3.02-0.12-5.34-0.99-6.44c-0.44-0.55-1.02-0.99-1.71-1.31
					c-1.39-0.64-2.21-0.64-3.22-0.64c-4.85,0-7.66,2.79-8.45,8.39H730.69z"/>
			</g>
		</g>
	</g>
</g>
<g>
	<g>
		<g>
			<path style="&st18;" d="M554.54,453.74c10.97,0,21.83,2.87,31.4,8.3c15.08,8.57,25.78,22.53,30.13,39.31
				c4.35,16.78,1.78,34.18-7.23,49c-9.02,14.81-23.29,25.08-40.18,28.92l-206.7,45.36l-0.03,0.01l-0.03,0.01l-0.29,0.07l-0.29,0.06
				l-0.56,0.11l-0.32,0.06c-3.54,0.71-7.15,1.06-10.73,1.06c-10.14,0-20.06-2.85-28.68-8.25c-11.77-7.37-20.18-18.88-23.69-32.41
				c-3.57-13.78-1.69-28.14,5.3-40.44c6.99-12.3,18.36-21.28,32.03-25.27l0.07-0.02l0.07-0.02l201.99-63.32
				c1.78-0.52,3.59-0.96,5.4-1.32C546.25,454.15,550.4,453.74,554.54,453.74 M554.54,446.19c-4.61,0-9.24,0.45-13.82,1.36
				c-2.04,0.41-4.1,0.91-6.11,1.5L332.55,512.4c-15.56,4.55-28.51,14.77-36.47,28.79c-7.96,14.02-10.11,30.38-6.04,46.06
				c4,15.41,13.58,28.51,26.99,36.92c9.9,6.2,21.19,9.41,32.69,9.41c4.06,0,8.15-0.4,12.21-1.21l0.33-0.07l0.58-0.12l0.37-0.08
				l0.37-0.08l206.73-45.37c18.91-4.29,34.88-15.79,44.98-32.37c10.09-16.59,12.96-36.05,8.09-54.83
				c-4.87-18.78-16.84-34.4-33.71-43.98C578.87,449.35,566.76,446.19,554.54,446.19L554.54,446.19z"/>
		</g>
		<g>
			<g>
				<path style="&st0;" d="M627.89,532.97c-1.11-19.37-9.79-37.02-24.46-49.72c-12.94-11.19-29.44-17.34-46.46-17.34
					c-2.08,0-4.2,0.09-6.28,0.28l-210.55,22.63c-16.15,1.42-30.85,8.92-41.4,21.11c-10.55,12.19-15.85,27.82-14.93,44
					c0.91,15.89,7.75,30.62,19.26,41.48c11.49,10.84,26.56,16.81,42.43,16.81l0.34,0l0.59,0l0.38,0l0.38-0.01l211.61-4.09
					c19.38-0.52,37.3-8.67,50.44-22.95C622.37,570.86,628.99,552.33,627.89,532.97z"/>
			</g>
		</g>
	</g>
	<g>
		<g>
			<g>
				<path style="&st1;" d="M398.11,527.51c-0.68,0-1.11-0.31-1.29-0.98c0.06-0.74-0.92-4.8-3.01-12.11
					c-0.18-0.55-0.18-1.04-0.12-1.48c0-0.74,0.49-1.35,1.41-1.78c6.95-3.26,14.82-4.92,23.55-4.92c7.99,0,14.14,2.09,18.38,6.21
					c4.24,4.18,5.84,9.96,4.73,17.34c-0.55,4.18-2.09,7.99-4.61,11.5c-2.52,3.5-5.41,6.46-8.61,8.73c-3.26,2.27-6.46,4.43-9.65,6.46
					c-3.2,2.03-5.96,4.12-8.36,6.27c-2.4,2.15-3.81,4.3-4.12,6.58h27.6c1.35,0,1.91,0.74,1.72,2.15l-1.72,12.97
					c-0.18,1.41-0.98,2.15-2.4,2.15h-46.35c-1.17,0-2.09-0.74-1.91-2.15l1.78-12.6c0.68-4.73,2.34-9.04,4.98-12.91
					s5.66-7.07,9.04-9.59c3.38-2.46,6.76-4.73,10.08-6.76c3.32-2.03,6.21-4.06,8.61-6.09c2.4-2.03,3.69-4,3.93-5.9
					c0.49-3.69-2.95-5.72-8.85-5.72c-4.37,0-8.98,0.86-13.96,2.52C398.73,527.45,398.42,527.51,398.11,527.51z"/>
				<path style="&st1;" d="M480.26,506.24c5.35,0,9.9,0.92,13.65,2.71c3.69,1.78,6.27,4,7.68,6.52c2.83,5.16,4.18,10.51,3.87,14.2
					l-0.25,2.64l-4.18,29.2c-0.06,0.68-0.25,1.6-0.49,2.77s-1.11,3.32-2.58,6.33s-3.26,5.66-5.35,7.93s-5.23,4.3-9.41,6.21
					c-4.24,1.91-9.04,2.83-14.39,2.83s-9.9-0.92-13.59-2.71c-3.69-1.78-6.27-4-7.68-6.58c-2.89-5.1-4.24-10.39-3.93-14.14l0.25-2.64
					l4.18-29.2c0.06-0.68,0.25-1.6,0.49-2.77c0.25-1.17,1.11-3.26,2.58-6.27c1.47-3.01,3.26-5.66,5.35-7.93
					c2.09-2.27,5.23-4.36,9.47-6.27C470.12,507.16,474.91,506.24,480.26,506.24z M484.93,535.2c0.92-6.89-1.48-10.33-7.25-10.33
					c-5.84,0-9.22,3.44-10.14,10.33l-3.26,23.42c-1.05,6.89,1.35,10.33,7.19,10.33c5.78,0,9.16-3.44,10.21-10.33L484.93,535.2z"/>
			</g>
		</g>
		<g>
			<path style="&st1;" d="M353.73,509.24c-0.11,0.18-0.36,0.76-0.36,0.91l-3.74,6.83c-0.33,0.44-0.69,0.65-1.02,0.65l-0.91-0.22
				c-2.65-0.8-5.48-1.2-8.53-1.2c-3.81,0-5.92,1.05-6.25,3.12c-0.18,1.78,2.11,3.12,5.45,3.85c1.67,0.36,3.45,0.94,5.34,1.71
				c1.85,0.76,3.6,1.67,5.16,2.65s2.76,2.47,3.63,4.47c0.87,2,1.13,4.32,0.73,7.05c-0.18,1.6-0.58,3.23-2.43,6.14
				c-0.91,1.49-2.03,2.76-3.38,3.89c-1.34,1.13-3.23,2.07-5.7,2.91c-2.51,0.87-5.3,1.27-8.43,1.27c-0.8,0-1.82-0.07-3.05-0.18
				c-1.23-0.11-3.23-0.62-6.03-1.49c-2.8-0.87-4.97-2.03-6.54-3.52c-0.33-0.33-0.51-0.73-0.54-1.13c0.11-0.33,0.22-0.58,0.4-0.73
				l4.68-7.01c0.33-0.44,0.76-0.65,1.23-0.65c0.18,0,0.44,0.07,0.69,0.22c3.12,2.32,6.83,3.49,11.08,3.49c3.3,0,5.34-0.83,5.81-1.63
				c0.25-0.4,0.4-0.87,0.51-1.49c0.62-3.7-7.7-4.79-13.8-7.81c-2.11-0.98-3.81-2.51-5.12-4.5c-1.31-2-1.78-4.47-1.38-7.37
				c0.69-4.76,2.76-8.35,6.17-10.71c3.41-2.36,7.59-3.52,12.57-3.52c2.83,0,5.19,0.22,7.12,0.62c1.92,0.44,3.96,1.24,6.14,2.43
				C353.54,508.41,353.73,508.73,353.73,509.24z"/>
			<path style="&st1;" d="M362.29,567.93c-0.47,0.91-1.02,1.34-1.63,1.34h-8.64c-0.69,0-1.31-0.58-1.2-1.34l34.75-78.55
				c0.47-0.94,1.02-1.42,1.63-1.42h8.68c0.69,0,1.24,0.65,1.13,1.42L362.29,567.93z"/>
		</g>
	</g>
	<g>
		<g>
			<path style="&st1;" d="M509.9,538.32c1.2-1.02,2.52-1.55,3.95-1.55c1.49,0,2.66,0.5,3.54,1.52s1.23,2.25,1.02,3.75
				c-0.21,1.43-0.88,2.66-2.05,3.69c-1.2,1.02-2.52,1.52-4.01,1.52c-1.43,0-2.6-0.5-3.48-1.52s-1.23-2.25-1.02-3.69
				C508,540.61,508.7,539.35,509.9,538.32z"/>
			<path style="&st1;" d="M538.83,508.53c8.28,0,11.88,3.69,10.83,11.09c-0.53,3.92-2.37,6.73-5.56,8.46
				c1.43,0.44,2.49,1.46,3.16,3.07c0.64,1.61,0.85,3.31,0.61,5.03c-1.02,7.4-5.88,11.09-14.52,11.06c-3.8,0-6.79-0.85-8.96-2.55
				s-2.99-4.54-2.43-8.52c0.23-1.73,0.94-3.39,2.08-5c1.14-1.61,2.46-2.66,3.98-3.1c-2.63-1.73-3.69-4.54-3.16-8.46
				C525.9,512.22,530.55,508.53,538.83,508.53z M537.08,538.24c0.79-0.53,1.26-1.29,1.38-2.31l0.21-1.26
				c0.23-1.99-1.32-3.16-3.07-3.16c-0.88,0-1.73,0.26-2.52,0.79c-0.79,0.56-1.26,1.35-1.38,2.37l-0.18,1.26
				c-0.12,1,0.15,1.76,0.79,2.31C533.56,539.32,535.47,539.32,537.08,538.24z M540.03,521.12l0.18-1.26c0.32-2.08-0.85-3.1-2.52-3.1
				s-3.04,1.02-3.37,3.1l-0.17,1.26c-0.32,2.08,0.79,3.19,2.46,3.19C538.51,524.31,539.65,523.25,540.03,521.12z"/>
			<path style="&st1;" d="M568.81,508.53c2.55,0,4.71,0.44,6.5,1.29c1.76,0.85,2.99,1.9,3.66,3.1c1.35,2.46,1.99,5,1.84,6.76
				l-0.12,1.26l-1.99,13.9c-0.03,0.32-0.12,0.76-0.23,1.32c-0.12,0.56-0.53,1.58-1.23,3.01c-0.7,1.43-1.55,2.69-2.55,3.78
				s-2.49,2.05-4.48,2.96c-2.02,0.91-4.3,1.35-6.85,1.35c-2.55,0-4.71-0.44-6.47-1.29s-2.99-1.9-3.66-3.13
				c-1.38-2.43-2.02-4.95-1.87-6.73l0.12-1.26l1.99-13.9c0.03-0.32,0.12-0.76,0.23-1.32s0.53-1.55,1.23-2.99
				c0.7-1.43,1.55-2.69,2.55-3.78s2.49-2.08,4.51-2.99C563.98,508.97,566.26,508.53,568.81,508.53z M571.03,522.32
				c0.44-3.28-0.7-4.92-3.45-4.92c-2.78,0-4.39,1.64-4.83,4.92l-1.55,11.15c-0.5,3.28,0.64,4.92,3.42,4.92
				c2.75,0,4.36-1.64,4.86-4.92L571.03,522.32z"/>
		</g>
	</g>
	<g>
		<path style="&st1;" d="M515.48,572.02l-0.03-1.13c0.06-0.28,0.18-0.45,0.39-0.51c1.05-0.2,2.31-0.31,3.78-0.32
			c3.87,0,5.94,2.04,5.45,5.82l-1.11,7.84c-0.06,0.39-0.74,0.83-2.05,1.36s-2.64,0.79-4.01,0.79c-1.74,0-3.12-0.34-4.09-1
			c-0.99-0.66-1.36-1.82-1.09-3.49c0.42-3.07,2.3-4.61,5.62-4.61H523l0.09-0.59c0.42-2.98-1.2-4.27-4.49-4.27
			c-0.69,0-1.63,0.12-2.84,0.36C515.65,572.25,515.55,572.18,515.48,572.02z M522.74,578.59h-3.44c-1.03,0-1.31-0.03-2.3,0.19
			c-0.48,0.11-0.85,0.26-1.11,0.43c-0.56,0.37-1.14,1.08-1.27,2.13c-0.17,1.1,0.06,1.8,0.66,2.16c0.6,0.35,1.56,0.54,2.87,0.54
			c0.97,0,1.87-0.15,2.7-0.48s1.3-0.79,1.37-1.42L522.74,578.59z"/>
		<path style="&st1;" d="M530.43,585.29c-0.05,0.26-0.19,0.39-0.42,0.39h-1.17c-0.26,0-0.37-0.12-0.34-0.39l2.68-19.14
			c0.05-0.26,0.18-0.39,0.45-0.37h1.16c0.23-0.02,0.34,0.11,0.32,0.37L530.43,585.29z"/>
		<path style="&st1;" d="M553.88,584.95c-0.02,0.11-0.37,0.22-1.03,0.35c-0.68,0.14-1.54,0.28-2.58,0.39
			c-1.03,0.11-2.02,0.17-2.96,0.17c-4.15,0-5.83-2.72-5.08-8.15c0.42-2.95,1.51-5.08,2.95-6.16c1.42-1.08,2.85-1.5,4.5-1.5
			c1.19,0,2.59,0.28,4.23,0.83l0.66-4.75c0.01-0.26,0.17-0.39,0.45-0.37h1.17c0.25-0.02,0.36,0.11,0.31,0.37L553.88,584.95z
			 M552.15,583.5l1.54-10.88c-1.68-0.48-2.99-0.73-3.92-0.73c-2.05,0-3.52,0.68-4.3,1.91c-0.39,0.62-0.68,1.23-0.86,1.84
			c-0.2,0.62-0.35,1.36-0.48,2.22c-0.11,0.72-0.17,1.31-0.18,1.76c-0.03,0.45,0,0.99,0.09,1.6c0.08,0.63,0.26,1.11,0.54,1.46
			c0.54,0.71,1.73,1.34,3.5,1.34c0.51,0,1.1-0.05,1.79-0.14c0.68-0.08,1.23-0.17,1.65-0.25L552.15,583.5z"/>
		<path style="&st1;" d="M560.81,570.63c0.06-0.26,0.22-0.39,0.45-0.37h1.16c0.28,0,0.39,0.12,0.32,0.37l-2.05,14.66
			c-0.05,0.26-0.19,0.39-0.42,0.39h-1.17c-0.25,0-0.36-0.12-0.34-0.39L560.81,570.63z M563.02,568.2c-0.17,0.2-0.32,0.31-0.49,0.32
			h-0.77c-0.23,0-0.34-0.11-0.31-0.32l1.45-2.51c0.11-0.23,0.25-0.35,0.45-0.35h1.3c0.25,0,0.34,0.12,0.28,0.35L563.02,568.2z"/>
		<path style="&st1;" d="M568.48,572.02l-0.03-1.13c0.06-0.28,0.18-0.45,0.39-0.51c1.05-0.2,2.31-0.31,3.78-0.32
			c3.87,0,5.94,2.04,5.45,5.82l-1.11,7.84c-0.06,0.39-0.74,0.83-2.05,1.36s-2.64,0.79-4.01,0.79c-1.74,0-3.12-0.34-4.09-1
			c-0.99-0.66-1.36-1.82-1.09-3.49c0.42-3.07,2.3-4.61,5.62-4.61h4.69l0.09-0.59c0.42-2.98-1.2-4.27-4.49-4.27
			c-0.69,0-1.63,0.12-2.84,0.36C568.65,572.25,568.56,572.18,568.48,572.02z M575.75,578.59h-3.44c-1.03,0-1.31-0.03-2.3,0.19
			c-0.48,0.11-0.85,0.26-1.11,0.43c-0.56,0.37-1.14,1.08-1.27,2.13c-0.17,1.1,0.06,1.8,0.66,2.16c0.6,0.35,1.56,0.54,2.87,0.54
			c0.97,0,1.87-0.15,2.7-0.48s1.3-0.79,1.37-1.42L575.75,578.59z"/>
	</g>
	<text transform="matrix(1 0 0 1 578.8368 584.0975)" style="&st1; &st19; &st20;">*</text>
</g>
</svg>
